<svg width="141" height="85" viewBox="0 0 141 85" fill="none" xmlns="http://www.w3.org/2000/svg">
<g clip-path="url(#clip0_528_5180)">
<path d="M97.9 20.6C97.9 22.9 96.1 24.7 93.8 24.7C91.5 24.7 89.7 22.9 89.7 20.6C89.7 18.3 91.5 16.5 93.8 16.5C96.1 16.5 97.9 18.3 97.9 20.6Z" fill="white"/>
<path d="M123 20.6C123 22.9 121.2 24.7 118.9 24.7C116.6 24.7 114.8 22.9 114.8 20.6C114.8 18.3 116.6 16.5 118.9 16.5C121.1 16.5 123 18.3 123 20.6Z" fill="white"/>
<path d="M94.2 44.8008H46.5V76.8008H94.2V44.8008Z" fill="#01AB8D"/>
<path d="M93.3 79.4992H47.3C45.5 79.4992 44 77.9992 44 76.0992V45.0992C44 43.1992 45.5 41.6992 47.3 41.6992H93.3C95.1 41.6992 96.6 43.1992 96.6 45.0992V76.0992C96.6 77.9992 95.1 79.4992 93.3 79.4992ZM48.1 75.3992H92.5V45.7992H48.1V75.3992Z" fill="#333333"/>
<path d="M95.4 84.2996H45.1C44 84.2996 43 83.3996 43 82.1996C43 81.0996 43.9 80.0996 45.1 80.0996H95.4C96.5 80.0996 97.5 80.9996 97.5 82.1996C97.5 83.3996 96.6 84.2996 95.4 84.2996Z" fill="#333333"/>
<path d="M70.3 62.7H70.1C69 62.7 68 61.8 68 60.6C68 59.5 68.9 58.5 70.1 58.5H70.3C71.4 58.5 72.4 59.4 72.4 60.6C72.3 61.8 71.4 62.7 70.3 62.7Z" fill="#333333"/>
<path d="M138.5 68H132.3C132.1 51.6 128.9 43.5 120.9 38.6C117.4 36.4 113.8 35.1 110.2 34.5C114 33.5 117.2 31 119.1 27.5C122.9 27.4 126 24.3 126 20.4C126 17.6 124.3 15.1 121.9 14C121.1 5.3 113.5 0 106.4 0C98.3 0 91.7 6.2 91 14.1C88.6 15.2 86.9 17.7 86.9 20.5C86.9 24.3 90 27.4 93.8 27.6C95.7 31.1 98.9 33.6 102.7 34.6C100.5 35 98.2 35.6 96 36.6C95 37.1 94.5 38.3 95 39.3C95.5 40.3 96.7 40.8 97.7 40.3C104.7 37.2 111.6 37.8 118.8 42.1C124.6 45.6 128 51.1 128.2 68H120V58C120 56.9 119.1 55.9 117.9 55.9C116.8 55.9 115.8 56.8 115.8 58V68H102.3C101.2 68 100.2 68.9 100.2 70.1C100.2 71.3 101.1 72.2 102.3 72.2H138.4C139.5 72.2 140.5 71.3 140.5 70.1C140.5 68.9 139.6 68 138.5 68ZM118.9 23.4C118.7 23.4 118.5 23.4 118.3 23.3C117 23 115.9 21.8 115.9 20.4C115.9 18.8 117.2 17.4 118.9 17.4C120.5 17.4 121.9 18.7 121.9 20.4C121.8 22.1 120.5 23.4 118.9 23.4ZM106.4 4.1C110.2 4.1 114.2 6.2 116.3 9.9C113.7 7.4 110.1 6 106.4 6C102.7 6 99.3 7.4 96.6 9.8C98.7 6.2 102.7 4.1 106.4 4.1ZM91 20.5C91 18.9 92.3 17.5 94 17.5C95.6 17.5 97 18.8 97 20.5C97 21.9 96 23.1 94.6 23.4C94.4 23.4 94.2 23.5 94 23.5C92.3 23.4 91 22.1 91 20.5ZM97.8 26.4C99.7 25.1 101 23 101 20.5C101 18 99.7 15.9 97.8 14.6C99.7 11.8 102.9 10.1 106.3 10.1C109.8 10.1 112.9 11.8 114.9 14.6C113 15.9 111.7 18 111.7 20.5C111.7 23 113 25.1 114.9 26.4C113 29.2 109.8 30.9 106.3 30.9C102.9 30.9 99.7 29.2 97.8 26.4Z" fill="#333333"/>
<path d="M44.6 36.4992C42.6 35.5992 40.5 34.9992 38.5 34.5992C44.5 32.6992 48.9 27.0992 48.9 20.4992C48.9 12.3992 42.3 5.69922 34.1 5.69922C26 5.69922 19.3 12.2992 19.3 20.4992C19.3 27.0992 23.7 32.7992 29.8 34.5992C26.4 35.1992 23 36.4992 19.7 38.5992C11.7 43.4992 8.5 51.5992 8.3 67.9992H2.1C0.9 67.9992 0 68.8992 0 69.9992C0 71.0992 0.9 72.0992 2.1 72.0992H38.2C39.3 72.0992 40.3 71.1992 40.3 69.9992C40.3 68.7992 39.3 67.9992 38.2 67.9992H24.7V57.9992C24.7 56.8992 23.8 55.8992 22.6 55.8992C21.4 55.8992 20.5 56.7992 20.5 57.9992V67.9992H12.3C12.5 51.0992 15.9 45.5992 21.7 42.0992C28.9 37.7992 35.8 37.1992 42.8 40.2992C43.8 40.7992 45.1 40.2992 45.5 39.2992C46.1 38.1992 45.6 36.9992 44.6 36.4992ZM23.5 20.4992C23.5 14.5992 28.3 9.79922 34.2 9.79922C40.1 9.79922 44.9 14.5992 44.9 20.4992C44.9 26.3992 40.1 31.1992 34.2 31.1992C28.3 31.0992 23.5 26.3992 23.5 20.4992Z" fill="#333333"/>
</g>
<defs>
<clipPath id="clip0_528_5180">
<rect width="140.5" height="84.3" fill="white"/>
</clipPath>
</defs>
</svg>
