<svg width="118" height="126" viewBox="0 0 118 126" fill="none" xmlns="http://www.w3.org/2000/svg">
<path d="M77.3 66.9376V83.3152C77.3 86.2113 75.3 88.8077 72.5 89.4069C72.1 89.5068 71.7 89.5068 71.2 89.5068C70.5 89.5068 69.9 89.4069 69.3 89.2072L69 118.367C69.6 121.164 67.9 124.06 65.1 124.859C64.5 125.058 63.9 125.058 63.3 125.058C61.4 125.058 59.7 124.259 58.7 123.061C58.2 123.66 57.6 124.16 56.8 124.459C55.4 125.058 53.9 125.258 52.5 124.859C52.5 124.859 52.4 124.859 52.3 124.759C51 124.359 49.8 123.46 49.1 122.162C48.4 120.964 48.2 119.566 48.5 118.268L48.4001 89.0075C47.7001 89.2072 47.1001 89.4069 46.4001 89.4069C46.0001 89.4069 45.6 89.4069 45.1 89.3071C42.3 88.7079 40.3 86.2113 40.3 83.2154V66.9376C40.3 61.445 44.8 56.9512 50.3 56.9512H67.1C72.8 56.9512 77.3 61.445 77.3 66.9376Z" fill="#01AB8D"/>
<path d="M58.9 55.9535C64.6 55.9535 69.3 51.2599 69.3 45.5676C69.3 39.8753 64.6 35.1816 58.9 35.1816C53.2 35.1816 48.5 39.8753 48.5 45.5676C48.5 51.2599 53.2 55.9535 58.9 55.9535ZM58.9 39.2761C62.4 39.2761 65.2 42.0723 65.2 45.5676C65.2 49.0628 62.4 51.859 58.9 51.859C55.4 51.859 52.6 49.0628 52.6 45.5676C52.6 42.0723 55.5 39.2761 58.9 39.2761Z" fill="#333333"/>
<path d="M67.3 56.9512H50.5C45 56.9512 40.5 61.445 40.5 66.9375V83.3152C40.5 86.2113 42.5 88.8077 45.3 89.4069C45.7 89.5068 46.2 89.5068 46.6 89.5068C47.3 89.5068 48 89.4069 48.6 89.1073L48.7 118.367C48.4 119.666 48.6 121.064 49.3 122.262C50 123.56 51.2 124.459 52.5 124.859C52.5 124.859 52.6 124.859 52.7 124.958C54.1 125.358 55.6 125.258 57 124.559C57.7 124.259 58.4 123.76 58.9 123.161C59.9 124.359 61.6 125.158 63.5 125.158C64.1 125.158 64.7 125.058 65.3 124.958C68.1 124.159 69.8 121.263 69.2 118.467L69.5 89.307C70.1 89.5068 70.8 89.6066 71.4 89.6066C71.8 89.6066 72.2 89.6066 72.7 89.5068C75.5 88.9076 77.5 86.411 77.5 83.4151V66.9375C77.3 61.445 72.8 56.9512 67.3 56.9512ZM73.2 83.3152C73.2 84.3138 72.5 85.2126 71.7 85.3125C71 85.4123 70.4 85.2126 69.9 84.8132C69.6 84.6134 69.5 84.214 69.4 83.9144C69.4 83.8145 69.4 83.6148 69.4 83.5149V68.6352C69.4 67.5367 68.5 66.5381 67.3 66.5381C66.7 66.5381 66.2 66.7378 65.8 67.1373C65.4 67.5367 65.2 68.0361 65.2 68.6352V83.5149C65.2 83.6148 65.2 83.8145 65.2 83.9144C65.2 84.0142 65.2 84.1141 65.2 84.1141V84.214L64.9 118.467C64.9 118.667 64.9 118.867 65 119.066C65.2 119.765 64.8 120.564 64.1 120.764C63.3 120.964 62.2 120.764 61.9 120.365L61 90.805C61 89.7065 60.1 88.8077 59 88.8077C57.9 88.8077 57 89.7065 56.9 90.805L55.8 120.065C55.7 120.265 55.4 120.465 55.1 120.664C54.7 120.864 54.1 120.964 53.8 120.864C53.8 120.864 53.7 120.864 53.6 120.764C53.2 120.664 52.9 120.465 52.8 120.065C52.6 119.765 52.6 119.366 52.7 118.967C52.7 118.767 52.8 118.567 52.8 118.367L52.7 88.7078V83.2153V68.3356C52.7 67.2371 51.8 66.2385 50.6 66.2385C49.5 66.2385 48.6 67.1373 48.6 68.3356V83.2153C48.6 83.3152 48.6 83.5149 48.6 83.6148C48.5 84.0143 48.3 84.3138 48.1 84.5136C47.6 85.0129 46.9 85.2126 46.3 85.0129C45.4 84.8132 44.8 83.9144 44.8 83.0156V66.9375C44.8 63.7419 47.4 61.0456 50.7 61.0456H67.5C70.7 61.0456 73.4 63.7419 73.4 66.9375V83.3152H73.2Z" fill="#333333"/>
<path d="M50.7 11.2144C51.2 11.2144 51.6 11.0147 52 10.7151L56.8 6.82043V27.6919C56.8 28.7904 57.7 29.789 58.9 29.789C60.1 29.789 61 28.8902 61 27.6919V6.82043L65.8 10.7151C66.2 11.0147 66.6 11.2144 67.1 11.2144C67.7 11.2144 68.3 10.9148 68.7 10.4155C69.4 9.51674 69.3001 8.21852 68.4 7.51948L60.2 0.928496C60.1 0.928496 60.1 0.828633 60 0.828633C60 0.828633 59.9 0.828633 59.9 0.72877H59.8C59.7 0.72877 59.7 0.72877 59.6 0.628906H59.5H59.4C59.3 0.628906 59.3 0.628906 59.2 0.628906H59.1H59H58.9H58.8H58.7H58.6C58.5 0.628906 58.5 0.628906 58.4 0.628906H58.3H58.2C58.1 0.628906 58.1 0.628906 58 0.72877H57.9C57.9 0.72877 57.8 0.72877 57.8 0.828633C57.7 0.828633 57.7 0.928496 57.6 0.928496L49.4 7.51948C48.5 8.21852 48.4 9.51674 49.1 10.4155C49.5 10.9148 50.1 11.2144 50.7 11.2144Z" fill="#333333"/>
<path d="M117.5 63.1431C117.5 63.1431 117.5 63.0432 117.6 63.0432V62.9433C117.6 62.8435 117.7 62.8435 117.7 62.7436V62.6437V62.5439C117.7 62.444 117.7 62.444 117.7 62.3441V62.2443V62.1444V62.0445V61.9447V61.8448V61.745C117.7 61.6451 117.7 61.6451 117.7 61.5452V61.4454V61.3455C117.7 61.2456 117.7 61.2456 117.6 61.1458V61.0459C117.6 61.0459 117.6 60.946 117.5 60.946C117.5 60.8462 117.4 60.8462 117.4 60.7463C117.4 60.7463 117.4 60.7463 117.4 60.6464L110.8 52.4576C110.1 51.5588 108.8 51.4589 107.9 52.158C107 52.857 106.9 54.1553 107.6 55.054L111.5 59.8475H90.6C89.5 59.8475 88.5 60.7463 88.5 61.9447C88.5 63.0432 89.4 64.0418 90.6 64.0418H111.5L107.6 68.8353C106.9 69.7341 107 71.0323 107.9 71.7314C108.3 72.031 108.7 72.2307 109.2 72.2307C109.8 72.2307 110.4 71.9311 110.8 71.4318L117.4 63.2429C117.4 63.2429 117.4 63.2429 117.4 63.1431C117.4 63.2429 117.5 63.1431 117.5 63.1431Z" fill="#333333"/>
<path d="M27.2 60.0486H6.4L10.3 55.2552C11 54.3564 10.9 53.0582 10 52.3591C9.1 51.6601 7.8 51.76 7.1 52.6587L0.5 60.8475C0.5 60.8475 0.5 60.8475 0.5 60.9474C0.5 61.0472 0.4 61.0472 0.4 61.1471C0.4 61.1471 0.4 61.247 0.3 61.247V61.3468C0.3 61.4467 0.2 61.4467 0.2 61.5466V61.6464V61.7463C0.2 61.8461 0.2 61.8461 0.2 61.946V62.0459V62.1457V62.2456V62.3455V62.4453C0 62.3455 0 62.3455 0 62.3455C0 62.4453 0 62.4453 0 62.5452V62.645V62.7449C0 62.8448 0 62.8448 0.1 62.9446V63.0445C0.1 63.0445 0.1 63.1444 0.2 63.1444C0.2 63.2442 0.3 63.2442 0.3 63.3441C0.3 63.3441 0.3 63.3441 0.3 63.444L6.9 71.6327C7.3 72.1321 7.9 72.4316 8.5 72.4316C9 72.4316 9.4 72.2319 9.8 71.9323C10.7 71.2333 10.8 69.9351 10.1 69.0363L6.2 64.2429H27.1C28.2 64.2429 29.2 63.3441 29.2 62.1457C29.3 60.9474 28.4 60.0486 27.2 60.0486Z" fill="#333333"/>
<path d="M19.9999 21.5011L26.1999 20.802C27.2999 20.7022 28.1999 19.7035 27.9999 18.5052C27.8999 17.4067 26.8999 16.5079 25.6999 16.7076L15.1999 17.8061C15.0999 17.8061 14.8999 17.8061 14.7999 17.906H14.6999H14.5999C14.4999 17.906 14.4999 17.906 14.3999 18.0059C14.2999 18.0059 14.2999 18.1057 14.1999 18.1057C14.0999 18.1057 14.0999 18.2056 13.9999 18.2056L13.8999 18.3055L13.7999 18.4053C13.7999 18.5052 13.6999 18.5052 13.6999 18.605L13.5999 18.7049C13.5999 18.8048 13.5999 18.8048 13.4999 18.9046V19.0045V19.1044C13.4999 19.2042 13.4999 19.3041 13.3999 19.404V19.5038L12.2999 29.9895C12.1999 31.088 12.9999 32.0866 14.0999 32.2864C14.1999 32.2864 14.1999 32.2864 14.2999 32.2864C15.2999 32.2864 16.1999 31.4875 16.2999 30.4888L16.9999 24.2973L31.6999 38.9772C32.0999 39.3767 32.5999 39.5764 33.1999 39.5764C33.6999 39.5764 34.2999 39.3767 34.6999 38.9772C35.4999 38.1783 35.4999 36.8801 34.6999 36.0812L19.9999 21.5011Z" fill="#333333"/>
<path d="M101.4 30.5885C101.5 31.687 102.4 32.3861 103.4 32.3861C103.5 32.3861 103.5 32.3861 103.6 32.3861C104.7 32.2862 105.6 31.2876 105.4 30.0892L104.3 19.6035V19.5036C104.3 19.4037 104.3 19.3039 104.2 19.204V19.1041V19.0043C104.2 18.9044 104.2 18.9044 104.1 18.8045C104.1 18.7047 104 18.7047 104 18.6048L103.9 18.5049L103.8 18.4051L103.7 18.3052C103.6 18.2054 103.6 18.2054 103.5 18.2054L103.4 18.1055C103.3 18.1055 103.3 18.0056 103.2 18.0056H103.1C103.1 18.0056 103.1 18.0056 103 18.0056C102.9 18.0056 102.7 17.9058 102.6 17.9058L92.1 16.8073C91 16.7074 90 17.5063 89.8 18.6048C89.7 19.7033 90.5 20.702 91.6 20.9017L97.8 21.6007L83.1 36.2808C82.3 37.0797 82.3 38.3779 83.1 39.1768C83.5 39.5763 84 39.776 84.6 39.776C85.1 39.776 85.7 39.5763 86.1 39.1768L100.7 24.3969L101.4 30.5885Z" fill="#333333"/>
</svg>
