<svg width="135" height="97" viewBox="0 0 135 97" fill="none" xmlns="http://www.w3.org/2000/svg">
<path d="M113.631 65.1016H21.6309V70.1947H113.631V65.1016Z" fill="#D1D3D4"/>
<path d="M81.8308 30.3495H52.8308C52.8308 30.3495 57.3308 19.8637 67.5308 20.6626C77.6308 21.3616 81.8308 30.3495 81.8308 30.3495Z" fill="#01AB8D"/>
<path d="M50.8308 30.3492H55.4308C56.5308 28.352 58.1308 25.7555 60.3308 24.3574C65.2308 21.3615 69.8308 21.3615 74.7308 24.3574C76.9308 25.6556 78.5308 28.2521 79.6308 30.3492H84.2308C82.7308 26.7541 80.4308 22.9593 76.9308 20.8622C75.4308 19.9634 73.9308 19.2644 72.4308 18.8649C74.0308 17.9661 75.4308 16.568 76.3308 14.7705C77.0308 13.3724 77.3308 11.9743 77.3308 10.3765C77.3308 4.98385 72.9308 0.589844 67.5308 0.589844C62.1308 0.589844 57.7308 4.98385 57.7308 10.3765C57.7308 11.8744 58.0308 13.3724 58.7308 14.7705C59.6308 16.568 60.9308 17.8663 62.6308 18.8649C61.1308 19.3642 59.6308 19.9634 58.2308 20.8622C54.6308 22.9593 52.3308 26.6543 50.8308 30.3492ZM62.4308 12.8731C62.0308 12.0742 61.8308 11.1754 61.8308 10.3765C61.8308 7.28072 64.3308 4.78412 67.4308 4.78412C70.5308 4.78412 73.0308 7.28072 73.0308 10.3765C73.0308 11.2753 72.8308 12.0742 72.4308 12.8731C71.4308 14.7705 69.5308 15.9689 67.3308 15.9689C65.3308 15.9689 63.3308 14.7705 62.4308 12.8731Z" fill="#333333"/>
<path d="M36.8307 31.6475C40.5307 31.6475 43.9307 29.5503 45.5307 26.2548C46.2307 24.8567 46.5307 23.4587 46.5307 21.8608C46.5307 16.4682 42.1307 12.0742 36.7307 12.0742C31.3307 12.0742 26.9307 16.4682 26.9307 21.8608C26.9307 23.3588 27.2307 24.8567 27.9307 26.2548C29.7307 29.5503 33.1307 31.6475 36.8307 31.6475ZM36.8307 16.2685C39.9307 16.2685 42.4307 18.7651 42.4307 21.8608C42.4307 22.7596 42.2307 23.5585 41.8307 24.3574C40.8307 26.2548 38.9307 27.4532 36.7307 27.4532C34.5307 27.4532 32.6307 26.2548 31.7307 24.3574C31.3307 23.5585 31.1307 22.6597 31.1307 21.8608C31.2307 18.7651 33.7307 16.2685 36.8307 16.2685Z" fill="#333333"/>
<path d="M19.5309 44.2295C23.2309 44.2295 26.6309 42.1324 28.2309 38.8369C28.9309 37.4388 29.2309 36.0407 29.2309 34.4429C29.2309 29.0502 24.8309 24.6562 19.4309 24.6562C14.0309 24.6562 9.63086 29.0502 9.63086 34.4429C9.63086 35.9408 9.93086 37.4388 10.6309 38.8369C12.4309 42.1324 15.7309 44.2295 19.5309 44.2295ZM19.5309 28.7507C22.6309 28.7507 25.1309 31.2472 25.1309 34.343C25.1309 35.2418 24.9309 36.0407 24.5309 36.8396C23.5309 38.737 21.6309 39.9354 19.4309 39.9354C17.2309 39.9354 15.3309 38.737 14.4309 36.8396C14.0309 36.0407 13.8309 35.1419 13.8309 34.343C13.8309 31.3471 16.3309 28.7507 19.5309 28.7507Z" fill="#333333"/>
<path d="M133.131 55.9147C132.031 55.715 130.931 56.414 130.731 57.6124L128.531 69.8956C127.231 72.5919 124.531 74.2896 121.531 74.2896H109.731C108.631 74.2896 107.631 75.1884 107.631 76.3868C107.631 77.4853 108.531 78.4839 109.731 78.4839H117.331V89.4689C117.331 90.5674 118.231 91.566 119.431 91.566C120.531 91.566 121.531 90.6673 121.531 89.4689V78.384C126.231 78.384 130.431 75.5879 132.331 71.2937C132.431 71.1939 132.431 70.9941 132.431 70.7944L134.631 58.3114C135.031 57.2129 134.231 56.1144 133.131 55.9147Z" fill="#333333"/>
<path d="M25.0307 74.2884H13.2307C10.2307 74.2884 7.53074 72.5907 6.23074 69.8944L4.13074 57.6112C3.93074 56.5127 2.83074 55.7138 1.73074 55.9135C0.63074 56.1132 -0.16926 57.2117 0.0307396 58.3102L2.23074 70.7932C2.23074 70.9929 2.33074 71.0928 2.33074 71.2925C4.23074 75.5866 8.43074 78.3828 13.1307 78.3828V89.4677C13.1307 90.5662 14.0307 91.5648 15.2307 91.5648C16.4307 91.5648 17.3307 90.666 17.3307 89.4677V78.3828H25.0307C26.1307 78.3828 27.1307 77.4841 27.1307 76.2857C27.1307 75.1872 26.2307 74.2884 25.0307 74.2884Z" fill="#333333"/>
<path d="M98.0309 31.6475C101.731 31.6475 105.131 29.5503 106.731 26.2548C107.431 24.8567 107.731 23.4587 107.731 21.8608C107.731 16.4682 103.331 12.0742 97.9309 12.0742C92.5309 12.0742 88.1309 16.4682 88.1309 21.8608C88.1309 23.3588 88.4309 24.8567 89.1309 26.2548C90.9309 29.5503 94.3309 31.6475 98.0309 31.6475ZM98.0309 16.2685C101.131 16.2685 103.631 18.7651 103.631 21.8608C103.631 22.7596 103.431 23.5585 103.031 24.3574C102.031 26.2548 100.131 27.4532 98.0309 27.4532C95.9309 27.4532 93.9309 26.2548 93.0309 24.3574C92.6309 23.5585 92.4309 22.6597 92.4309 21.8608C92.4309 18.7651 94.9309 16.2685 98.0309 16.2685Z" fill="#333333"/>
<path d="M106.631 38.8369C108.331 42.1324 111.631 44.2295 115.331 44.2295C119.031 44.2295 122.431 42.1324 124.031 38.8369C124.731 37.4388 125.031 36.0407 125.031 34.4429C125.031 29.0502 120.631 24.6562 115.231 24.6562C109.831 24.6562 105.431 29.0502 105.431 34.4429C105.631 35.9408 105.931 37.4388 106.631 38.8369ZM115.431 28.7507C118.531 28.7507 121.031 31.2472 121.031 34.343C121.031 35.2418 120.831 36.0407 120.431 36.8396C119.431 38.737 117.531 39.9354 115.431 39.9354C113.331 39.9354 111.331 38.737 110.431 36.8396C110.031 36.0407 109.831 35.1419 109.831 34.343C109.731 31.3471 112.231 28.7507 115.431 28.7507Z" fill="#333333"/>
<path d="M123.131 69.9946C123.331 70.0945 123.531 70.0945 123.731 70.0945C124.631 70.0945 125.431 69.4953 125.731 68.5965C132.131 47.5254 122.531 43.8305 122.131 43.7306C121.131 43.3311 119.931 43.9303 119.531 44.9289C119.131 45.9276 119.631 47.1259 120.631 47.6253C120.731 47.6253 126.931 50.5213 121.731 67.3982C121.431 68.5965 122.031 69.695 123.131 69.9946Z" fill="#333333"/>
<path d="M11.1307 70.0942C11.3307 70.0942 11.5307 70.0942 11.7307 69.9944C12.8307 69.6948 13.4307 68.4964 13.1307 67.3979C8.03067 50.8205 14.0307 47.7247 14.2307 47.6248C15.2307 47.2254 15.8307 46.027 15.4307 45.0284C15.0307 43.9299 13.8307 43.4306 12.8307 43.7302C12.4307 43.83 2.83066 47.525 9.23067 68.5963C9.43067 69.5949 10.2307 70.0942 11.1307 70.0942Z" fill="#333333"/>
<path d="M96.8308 72.7915H113.031C114.631 72.7915 116.031 71.4933 116.031 69.7956V64.5028C116.031 64.403 116.031 64.3031 116.031 64.2033V64.1034C116.031 63.9037 115.931 63.8038 115.831 63.6041C115.831 63.6041 115.831 63.5042 115.731 63.5042C115.631 63.4043 115.531 63.2046 115.431 63.1048L109.931 57.3127L112.531 55.3154C113.431 54.6163 113.631 53.3181 112.931 52.4193C112.231 51.5206 110.931 51.3208 110.031 52.0199L104.231 56.4139H96.0308C95.7308 56.1143 95.3308 55.7148 95.3308 55.5151C95.3308 55.2155 95.7308 54.8161 96.0308 54.6163H102.331H103.031C103.531 54.6163 103.931 54.4166 104.331 54.117L108.331 50.8215C109.231 50.1225 109.331 48.8243 108.631 47.9255C107.931 47.0267 106.631 46.9268 105.731 47.6259L102.831 50.0226L97.1308 44.0308L101.431 40.7353C102.331 40.0363 102.531 38.738 101.831 37.8393C101.131 36.9405 99.8308 36.7408 98.9308 37.4398L93.1308 41.8338H84.7308C84.4308 41.7339 84.1308 41.4343 84.1308 41.4343C84.2308 41.3345 84.4308 41.2346 84.6308 41.1348H92.0308C92.5308 41.1348 92.9308 40.935 93.3308 40.6354L97.3308 37.3399C98.2308 36.6409 98.3308 35.3427 97.6308 34.4439C96.9308 33.5451 95.6308 33.4452 94.7308 34.1443L91.3308 36.9405H90.1308C90.0308 36.7408 89.9308 36.6409 89.8308 36.541C88.7308 35.4425 87.3308 34.7435 85.8308 34.6436C85.7308 34.6436 85.5308 34.6436 85.4308 34.6436H49.2308C49.1308 34.6436 48.9308 34.6436 48.8308 34.6436C47.3308 34.7435 45.8308 35.4425 44.8308 36.541C44.7308 36.6409 44.6308 36.8406 44.5308 36.9405H43.3308L39.9308 34.1443C39.0308 33.4452 37.7308 33.5451 37.0308 34.4439C36.3308 35.3427 36.4308 36.6409 37.3308 37.3399L41.3308 40.6354C41.7308 40.935 42.1308 41.1348 42.6308 41.1348H50.0308C50.2308 41.2346 50.4308 41.3345 50.5308 41.4343C50.5308 41.5342 50.2308 41.7339 49.9308 41.9337H41.5308L35.7308 37.5397C34.8308 36.8406 33.5308 37.0403 32.8308 37.9391C32.1308 38.8379 32.3308 40.1361 33.2308 40.8352L37.6308 44.1307L31.9308 50.1225L28.9308 47.6259C28.0308 46.9268 26.7308 47.0267 26.0308 47.9255C25.3308 48.8243 25.4308 50.1225 26.3308 50.8215L30.3308 54.117C30.7308 54.4166 31.1308 54.6163 31.6308 54.6163H38.7308C39.1308 54.9159 39.4308 55.3154 39.4308 55.5151C39.4308 55.8147 39.1308 56.1143 38.7308 56.4139H30.5308L24.7308 52.0199C23.8308 51.3208 22.5308 51.5206 21.8308 52.4193C21.1308 53.3181 21.3308 54.6163 22.2308 55.3154L24.9308 57.3127L19.4308 63.1048C19.4308 63.1048 19.4308 63.1048 19.4308 63.2046C19.3308 63.3045 19.2308 63.4043 19.1308 63.6041C19.1308 63.6041 19.1308 63.7039 19.0308 63.7039C18.9308 63.9037 18.9308 64.0035 18.8308 64.2033V64.3031C18.8308 64.403 18.8308 64.5028 18.8308 64.6027V69.8955C18.8308 71.4933 20.1308 72.8914 21.8308 72.8914H37.8308L30.5308 93.8628C30.1308 94.9613 30.7308 96.0598 31.8308 96.4592C32.0308 96.5591 32.3308 96.5591 32.5308 96.5591C33.4308 96.5591 34.1308 96.0598 34.4308 95.161L42.2308 72.7915H92.5308L98.9308 95.0611C99.2308 95.9599 100.031 96.5591 100.931 96.5591C101.131 96.5591 101.331 96.5591 101.531 96.4592C102.631 96.1596 103.231 94.9613 102.931 93.9626L96.8308 72.7915ZM28.6308 60.1088C29.0308 60.4084 29.4308 60.5083 29.8308 60.5083H39.3308C39.6308 60.5083 40.0308 60.4084 40.3308 60.3086C40.6308 60.1088 43.5308 58.511 43.5308 55.5151C43.5308 52.5192 40.6308 50.9214 40.3308 50.7217C40.0308 50.5219 39.7308 50.4221 39.3308 50.4221H37.2308L41.5308 45.9282H50.3308C50.5308 45.9282 50.7308 45.9282 50.9308 45.8283C52.3308 45.4289 54.6308 43.9309 54.6308 41.3345C54.6308 40.236 54.2308 39.4371 53.6308 38.738H81.3308C80.7308 39.4371 80.3308 40.3358 80.3308 41.3345C80.3308 43.9309 82.6308 45.4289 84.0308 45.8283C84.2308 45.9282 84.4308 45.9282 84.6308 45.9282H93.4308L97.7308 50.4221H95.5308C95.2308 50.4221 94.8308 50.5219 94.5308 50.7217C94.2308 50.9214 91.3308 52.5192 91.3308 55.5151C91.3308 58.511 94.2308 60.1088 94.5308 60.3086C94.8308 60.5083 95.1308 60.5083 95.5308 60.5083H105.031C105.431 60.5083 105.931 60.4084 106.231 60.1088L106.631 59.8093L109.131 62.5056H25.8308L28.3308 59.9091L28.6308 60.1088ZM23.0308 66.6H111.931V68.6971H23.0308V66.6Z" fill="#333333"/>
</svg>
