<svg width="126" height="114" viewBox="0 0 126 114" fill="none" xmlns="http://www.w3.org/2000/svg">
<g clip-path="url(#clip0_528_5196)">
<path d="M91 24.0995C90.8 21.5995 88.7 19.5995 86.1 19.5995H83.7C82.5 19.5995 83.8 18.6995 84.1 18.2995C86 16.3995 87.5 13.9995 85.8 11.2995C84.9 9.79952 83.3 8.59952 82.1 7.39952C80.6 5.89952 79.3 4.39952 77 4.49952C74.6 4.59952 73.3 6.29952 71.7 7.89952C71.3 8.19952 71.4 5.99952 71.4 5.89952C71.4 4.69952 71.3 3.59952 70.7 2.49952C69.5 0.299523 67.3 -0.000477429 65.1 -0.000477429C63.4 -0.000477429 61.8 -0.100477 60.1 -0.000477429C57.1 -0.000477429 55.2 2.49952 55.2 5.29952C55.2 5.59952 55.4 7.49952 55.2 7.69952C54.5 7.99952 53.6 6.59952 53.2 6.09952C51.2 4.09952 48.1 3.69952 46 5.79952C44.8 6.99952 43.5 8.19952 42.3 9.49952C40.6 11.1995 39.4 13.1995 40.4 15.5995C40.8 16.5995 41.5 17.2995 42.3 17.9995C42.5 18.1995 44.1 19.4995 43.1 19.4995C40.8 19.4995 38.4 19.2995 36.8 21.2995C35.5 22.9995 35.7 25.0995 35.7 26.9995C35.7 28.6995 35.4 30.8995 36 32.5995C37.1 35.2995 39.6 35.6995 42.2 35.6995C42.8 35.6995 43.9 35.5995 43.2 36.2995C42.6 36.8995 41.8 37.5995 41.3 38.2995C39.4 40.4995 40 43.2995 41.9 45.1995C43.2 46.4995 44.5 47.8995 45.9 49.1995C47.9 51.1995 51 51.3995 53.1 49.3995C53.7 48.7995 54.3 48.1995 54.9 47.5995C55.4 47.0995 55.3 49.3995 55.3 49.5995C55.3 52.2995 56.5 54.7995 59.4 55.2995C61.1 55.5995 62.9 55.3995 64.7 55.3995C66.8 55.3995 68.9 55.3995 70.4 53.5995C71.2 52.5995 71.5 51.4995 71.5 50.2995C71.5 49.7995 71.2 47.9995 71.5 47.6995C72.1 47.4995 72.9 48.6995 73.3 49.0995C74.3 50.0995 75.4 50.8995 76.8 50.9995C79.3 51.1995 80.8 49.4995 82.4 47.8995C83.6 46.6995 85.4 45.3995 86.1 43.7995C87.5 40.9995 85.9 38.8995 84 36.9995C83.6 36.5995 82.7 35.8995 83.7 35.8995C84.6 35.8995 85.6 35.9995 86.5 35.8995C88.9 35.6995 90.8 33.7995 91 31.3995C91.1 30.1995 91 28.9995 91 27.7995C91 26.4995 91.1 25.2995 91 24.0995ZM72.2 27.6995C72.2 32.5995 68.1 36.5995 63.3 36.5995C58.5 36.5995 54.4 32.4995 54.4 27.6995C54.4 22.8995 58.5 18.7995 63.3 18.7995C68.1 18.7995 72.2 22.7995 72.2 27.6995Z" fill="#01AB8D"/>
<path d="M71.5 17.4996C69.2 15.6996 66.3 14.5996 63.3 14.5996C57.1 14.5996 51.5 19.1996 50.5 25.3996C49.4 31.5996 53 37.7996 58.9 39.9996C64.8 42.0996 71.6 39.5996 74.7 34.0996C77.8 28.5996 76.4 21.4996 71.5 17.4996ZM63.3 36.5996C58.4 36.5996 54.4 32.4996 54.4 27.6996C54.4 22.8996 58.5 18.7996 63.3 18.7996C68.1 18.7996 72.2 22.8996 72.2 27.6996C72.2 32.4996 68.2 36.5996 63.3 36.5996Z" fill="#333333"/>
<path d="M91 24.0995C90.8 21.5995 88.7 19.5995 86.1 19.5995H83.7C82.5 19.5995 83.8 18.6995 84.1 18.2995C86 16.3995 87.5 13.9995 85.8 11.2995C84.9 9.79952 83.3 8.59952 82.1 7.39952C80.6 5.89952 79.3 4.39952 77 4.49952C74.6 4.59952 73.3 6.29952 71.7 7.89952C71.3 8.19952 71.4 5.99952 71.4 5.89952C71.4 4.69952 71.3 3.59952 70.7 2.49952C69.5 0.299523 67.3 -0.000477429 65.1 -0.000477429C63.4 -0.000477429 61.8 -0.100477 60.1 -0.000477429C57.1 -0.000477429 55.2 2.49952 55.2 5.29952C55.2 5.59952 55.4 7.49952 55.2 7.69952C54.5 7.99952 53.6 6.59952 53.2 6.09952C51.2 4.09952 48.1 3.69952 46 5.79952C44.8 6.99952 43.5 8.19952 42.3 9.49952C40.6 11.1995 39.4 13.1995 40.4 15.5995C40.8 16.5995 41.5 17.2995 42.3 17.9995C42.5 18.1995 44.1 19.4995 43.1 19.4995C40.8 19.4995 38.4 19.2995 36.8 21.2995C35.5 22.9995 35.7 25.0995 35.7 26.9995C35.7 28.6995 35.4 30.8995 36 32.5995C37.1 35.2995 39.6 35.6995 42.2 35.6995C42.8 35.6995 43.9 35.5995 43.2 36.2995C42.6 36.8995 41.8 37.5995 41.3 38.2995C39.4 40.4995 40 43.2995 41.9 45.1995C43.2 46.4995 44.5 47.8995 45.9 49.1995C47.9 51.1995 51 51.3995 53.1 49.3995C53.7 48.7995 54.3 48.1995 54.9 47.5995C55.4 47.0995 55.3 49.3995 55.3 49.5995C55.3 52.2995 56.5 54.7995 59.4 55.2995C61.1 55.5995 62.9 55.3995 64.7 55.3995C66.8 55.3995 68.9 55.3995 70.4 53.5995C71.2 52.5995 71.5 51.4995 71.5 50.2995C71.5 49.7995 71.2 47.9995 71.5 47.6995C72.1 47.4995 72.9 48.6995 73.3 49.0995C74.3 50.0995 75.4 50.8995 76.8 50.9995C79.3 51.1995 80.8 49.4995 82.4 47.8995C83.6 46.6995 85.4 45.3995 86.1 43.7995C87.5 40.9995 85.9 38.8995 84 36.9995C83.6 36.5995 82.7 35.8995 83.7 35.8995C84.6 35.8995 85.6 35.9995 86.5 35.8995C88.9 35.6995 90.8 33.7995 91 31.3995C91.1 30.1995 91 28.9995 91 27.7995C91 26.4995 91.1 25.2995 91 24.0995ZM86.9 30.8995C86.9 32.1995 82.9 31.6995 82 31.6995C79.9 31.6995 79.3 34.1995 78.7 35.7995C78 37.5995 80.3 39.0995 81.4 40.1995C81.8 40.5995 82.9 41.3995 82.2 42.0995C81.9 42.5995 81.2 43.0995 80.8 43.3995C80.1 44.0995 79.4 44.8995 78.6 45.5995C78.2 45.9995 77.6 46.7995 77.1 46.7995C76.5 46.7995 75.8 45.7995 75.4 45.3995L73.5 43.4995C73 42.9995 72 42.7995 71.2 43.1995C70.1 43.6995 68.4 43.9995 67.7 44.9995C66.8 46.1995 67.3 48.4995 67.3 49.7995C67.3 50.3995 67.4 51.1995 66.5 51.1995H64.2C63.4 51.1995 59.4 51.7995 59.4 50.3995C59.1 49.0995 59.5 47.3995 59.4 46.0995C59.4 45.2995 58.8 44.4995 58.1 44.1995C57 43.7995 55.4 42.6995 54.2 42.9995C52.7 43.2995 51.3 45.3995 50.4 46.3995C49.2 47.5995 47.8 45.2995 47 44.4995C46.4 43.8995 43.6 41.8995 44.6 40.8995C45.6 39.8995 47.4 38.6995 48 37.2995C48.5 36.0995 47.6 34.9995 47.2 33.8995C46.8 32.8995 46.6 31.9995 45.4 31.6995C44 31.2995 42.2 31.5995 40.7 31.5995C39.3 31.5995 39.9 28.1995 39.9 27.3995C39.9 26.2995 39.3 23.6995 41 23.6995C42.4 23.6995 44.3 24.0995 45.6 23.5995C46.7 23.1995 46.9 21.9995 47.3 20.9995C47.8 19.7995 48.6 18.4995 47.5 17.3995C46.6 16.3995 45.1 15.4995 44.5 14.3995C43.6 13.4995 46.8 10.9995 47.3 10.4995L48.9 8.89952C49.5 8.29952 50.1 8.79952 50.5 9.29952C51.5 10.2995 52.7 12.0995 54.2 12.3995C55.4 12.5995 57 11.4995 58.1 11.0995C58.9 10.7995 59.4 9.99952 59.4 9.19952C59.5 8.49952 59.4 7.79952 59.4 7.09952C59.4 6.39952 59.2 5.29952 59.5 4.69952C59.8 4.09952 60.7 4.19952 61.2 4.19952H66.5C67.5 4.19952 67.3 5.19952 67.3 5.79952C67.3 7.09952 66.8 9.49952 67.8 10.5995C68.6 11.4995 70.2 11.6995 71.2 12.1995C72.1 12.5995 73.1 12.3995 73.7 11.6995C74.3 11.0995 74.9 10.4995 75.5 9.89952C75.9 9.49952 76.6 8.49952 77.2 8.49952C77.7 8.49952 78.1 9.09952 78.4 9.39952C79.1 10.0995 79.8 10.7995 80.5 11.4995C81.3 12.2995 83.1 13.3995 82 14.4995C81 15.4995 79.3 16.5995 78.8 17.8995C78.3 18.9995 79 19.8995 79.4 20.8995C79.8 21.8995 80 23.0995 81.1 23.4995C82.4 23.9995 84.1 23.5995 85.4 23.5995C86 23.5995 86.8 23.4995 86.8 24.3995V30.8995H86.9Z" fill="#333333"/>
<path d="M16.7 49.8988C11 49.8988 6.4 45.2988 6.4 39.5988C6.4 33.8988 11 29.2988 16.7 29.2988C22.4 29.2988 27 33.8988 27 39.5988C27 45.2988 22.4 49.8988 16.7 49.8988ZM16.7 33.2988C13.3 33.2988 10.5 36.0988 10.5 39.4988C10.5 42.8988 13.3 45.6988 16.7 45.6988C20.1 45.6988 22.9 42.8988 22.9 39.4988C22.9 36.0988 20.1 33.2988 16.7 33.2988Z" fill="#333333"/>
<path d="M35.8 113.199C32.6 113.199 29.9 110.799 29.4 107.599L27.6 94.3992H14.5C10.9 94.4992 8 91.5992 8 87.9992L7.9 86.3992V59.3992C7.9 54.8992 11.6 51.1992 16.1 51.1992H16.3C16.9 51.1992 22.3 51.4992 23.9 55.2992L31.2 62.5992H43.9C46.9 62.5992 49.4 65.0992 49.4 68.0992C49.4 71.1992 46.9 73.6992 43.9 73.6992H27.4C26.9 73.6992 26.3 73.4992 25.9 73.0992L24.3 71.4992V81.5992H35.3C37.4 81.5992 39.2 83.1992 39.5 85.2992L42.3 105.999C42.5 107.699 42.1 109.399 41 110.699C40 112.099 38.5 112.899 36.8 113.199C36.4 113.199 36.1 113.199 35.8 113.199ZM16.1 55.2992C13.8 55.2992 12 57.0992 12 59.3992V86.2992L12.1 87.7992C12.1 87.7992 12.1 87.8992 12.1 87.9992C12.1 89.2992 13.2 90.3992 14.5 90.3992H29.5C30.5 90.3992 31.4 91.1992 31.5 92.1992L33.5 107.099C33.7 108.299 34.8 109.199 36.1 109.099C36.8 108.999 37.3 108.699 37.7 108.199C38.1 107.699 38.2 107.099 38.1 106.499L35.3 85.7992L35.2 85.6992H22.2C21.1 85.6992 20.1 84.7992 20.1 83.5992V66.4992C20.1 65.6992 20.6 64.8992 21.4 64.5992C22.2 64.2992 23.1 64.4992 23.6 64.9992L28.1 69.4992H43.7C44.5 69.4992 45.1 68.8992 45.1 68.0992C45.1 67.2992 44.5 66.5992 43.7 66.5992H30.3C29.8 66.5992 29.2 66.3992 28.8 65.9992L20.6 57.7992C20.3 57.4992 20.2 57.1992 20.1 56.8992C19.8 55.9992 17.6 55.3992 16.1 55.2992Z" fill="#333333"/>
<path d="M108.5 49.8988C102.8 49.8988 98.2 45.2988 98.2 39.5988C98.2 33.8988 102.8 29.2988 108.5 29.2988C114.2 29.2988 118.8 33.8988 118.8 39.5988C118.9 45.2988 114.2 49.8988 108.5 49.8988ZM108.5 33.2988C105.1 33.2988 102.3 36.0988 102.3 39.4988C102.3 42.8988 105.1 45.6988 108.5 45.6988C111.9 45.6988 114.7 42.8988 114.7 39.4988C114.8 36.0988 112 33.2988 108.5 33.2988Z" fill="#333333"/>
<path d="M89.4 113.199C89.1 113.199 88.8 113.199 88.5 113.099C84.9 112.599 82.4 109.399 82.9 105.899L85.7 85.1992C86 83.0992 87.8 81.4992 89.9 81.4992H100.9V71.2992L99.3 72.8992C98.9 73.2992 98.4 73.4992 97.8 73.4992H81.4C78.4 73.4992 75.9 70.9992 75.9 67.9992C75.9 64.8992 78.4 62.3992 81.4 62.3992H94.1L101.4 55.0992C103 51.3992 109 51.1992 109 51.1992C113.6 51.1992 117.3 54.8992 117.3 59.3992V86.2992L117.2 88.0992C117.2 91.5992 114.3 94.4992 110.7 94.4992H97.5L95.7 107.699C95.3 110.799 92.6 113.199 89.4 113.199ZM89.9 85.6992C89.8 85.6992 89.8 85.7992 89.8 85.7992L87 106.399C86.8 107.699 87.7 108.799 89 108.999C89.2 108.999 89.3 108.999 89.4 108.999C90.5 108.999 91.5 108.099 91.7 106.999L93.7 92.0992C93.8 91.0992 94.7 90.2992 95.7 90.2992H110.7C112 90.2992 113.1 89.1992 113.1 87.8992C113.1 87.8992 113.1 87.7992 113.1 87.6992L113.2 85.9992V59.2992C113.2 57.0992 111.4 55.1992 109.2 55.1992C107.7 55.1992 105.4 55.8992 105.2 56.6992C105.1 56.9992 104.9 57.3992 104.7 57.5992L96.5 65.7992C96.1 66.1992 95.6 66.3992 95 66.3992H81.4C80.6 66.3992 80 66.9992 80 67.7992C80 68.5992 80.6 69.2992 81.4 69.2992H97L101.5 64.7992C102.1 64.1992 103 63.9992 103.7 64.3992C104.5 64.6992 105 65.4992 105 66.2992V83.5992C105 84.6992 104.1 85.6992 102.9 85.6992H89.9Z" fill="#333333"/>
<path d="M83.7 76.2988H42.9C41.8 76.2988 40.8 77.1988 40.8 78.3988C40.8 79.4988 41.7 80.4988 42.9 80.4988H61.3V111.199C61.3 112.299 62.2 113.299 63.4 113.299C64.6 113.299 65.5 112.399 65.5 111.199V80.3988H83.9C85 80.3988 86 79.4988 86 78.2988C85.8 77.1988 84.9 76.2988 83.7 76.2988Z" fill="#333333"/>
<path d="M123.6 77.4987C122.5 77.2987 121.4 77.9987 121.2 79.1987L119 91.3987C117.7 94.0987 115 95.7987 112 95.7987H100.2C99.1 95.7987 98.1 96.6987 98.1 97.8987C98.1 98.9987 99 99.9987 100.2 99.9987H107.8V111.199C107.8 112.299 108.7 113.299 109.9 113.299C111 113.299 112 112.399 112 111.199V99.9987C116.7 99.9987 120.9 97.1987 122.8 92.8987C122.9 92.7987 122.9 92.5987 122.9 92.3987L125.1 79.8987C125.4 78.7987 124.7 77.6987 123.6 77.4987Z" fill="#333333"/>
<path d="M25 95.7995H13.2C10.2 95.7995 7.5 94.0995 6.2 91.3995L4.1 77.6995C3.9 76.5995 2.9 75.7995 1.7 75.9995C0.600001 76.1995 -0.199999 77.1995 7.22706e-07 78.3995L2.2 92.4995C2.2 92.6995 2.3 92.7995 2.3 92.9995C4.2 97.2995 8.4 100.099 13.1 100.099V111.299C13.1 112.399 14 113.399 15.2 113.399C16.3 113.399 17.3 112.499 17.3 111.299V99.9995H25C26.1 99.9995 27.1 99.0995 27.1 97.8995C27.1 96.7995 26.2 95.7995 25 95.7995Z" fill="#333333"/>
</g>
<defs>
<clipPath id="clip0_528_5196">
<rect width="125.3" height="113.2" fill="white"/>
</clipPath>
</defs>
</svg>
