<svg width="98" height="35" viewBox="0 0 98 35" fill="none" xmlns="http://www.w3.org/2000/svg">
<path d="M98 0H0V35H98V0Z" fill="#353535"/>
<path d="M14.1718 6.26186C13.163 6.3104 12.3143 6.43985 11.6418 6.66639C10.9692 6.89293 10.4248 7.23273 10.0084 7.70199C9.59209 8.17124 9.30386 8.75377 9.12771 9.44956C8.95157 10.1454 8.88752 11.0191 8.90353 12.0386H8.39111V5.64697H22.8349V12.0386H22.3225C22.3225 11.0191 22.2424 10.1454 22.0823 9.43338C21.9222 8.72141 21.6499 8.1227 21.2496 7.66963C20.8493 7.20037 20.3208 6.86056 19.6483 6.65021C18.9757 6.43985 18.111 6.3104 17.0542 6.26186V27.524C17.0542 27.9933 17.1983 28.3007 17.5025 28.4301C17.8068 28.5596 18.1431 28.6081 18.5274 28.5758V29.1583H12.6186V28.5758C13.163 28.592 13.5473 28.5434 13.8035 28.3978C14.0437 28.2683 14.1718 27.88 14.1718 27.2813V6.26186Z" fill="#F2F2F2"/>
<path d="M63.0438 5.64704V6.32665L62.7715 6.29429C62.3232 6.29429 62.0189 6.40756 61.8588 6.6341C61.6987 6.86063 61.5705 7.16808 61.4585 7.55643L55.9019 29.1584H54.3487C53.564 26.1648 52.7634 23.1875 51.9627 20.2425C51.1621 17.2975 50.3454 14.3202 49.5447 11.3267L44.997 29.1584H43.4117L41.1219 20.55L37.9513 8.73766C37.8872 8.49494 37.8072 8.21986 37.7271 7.92859C37.647 7.63733 37.5349 7.36225 37.4068 7.11953C37.2787 6.87681 37.1026 6.66646 36.8944 6.48846C36.6862 6.31047 36.43 6.22956 36.0938 6.22956V5.64704H41.9545V6.22956C41.6343 6.22956 41.346 6.26193 41.0738 6.34283C40.8016 6.42374 40.6735 6.66646 40.6735 7.07099C40.6735 7.18426 40.7215 7.4917 40.8496 8.0095C40.9617 8.5273 41.1058 9.15837 41.298 9.95125C41.4902 10.7279 41.7143 11.6179 41.9545 12.605C42.1947 13.592 42.4509 14.5953 42.7072 15.6147C42.9634 16.6341 43.2356 17.6535 43.4918 18.6729C43.764 19.6923 44.0042 20.6309 44.2284 21.5046C44.4526 22.3622 44.6447 23.1066 44.8209 23.7377C44.997 24.3687 45.1091 24.8056 45.1732 25.0807L48.5679 11.4076C48.68 11.0192 48.7761 10.6309 48.8402 10.2587C48.9042 9.87034 48.9362 9.48199 48.9362 9.06128C48.9362 8.83474 48.9042 8.54348 48.8562 8.20368C48.7921 7.86387 48.7121 7.54024 48.5839 7.24898C48.4558 6.95772 48.2957 6.69882 48.0715 6.50465C47.8634 6.29429 47.5911 6.21338 47.2869 6.22956V5.64704H52.8755V6.22956C52.5552 6.22956 52.267 6.26193 51.9787 6.31047C51.6905 6.3752 51.5624 6.61791 51.5624 7.03863C51.5624 7.24898 51.5944 7.4917 51.6424 7.76678C51.6905 8.05804 51.7705 8.33313 51.8666 8.64057C51.9627 8.93183 52.0428 9.22309 52.1228 9.53054C52.2029 9.8218 52.267 10.0807 52.347 10.2749C53.0676 12.7506 53.7081 15.2263 54.3006 17.6859C54.8771 20.1616 55.4856 22.6373 56.1261 25.0969L60.3055 8.34931C60.3536 8.10659 60.4016 7.86387 60.4496 7.62115C60.4977 7.37843 60.5297 7.13571 60.5297 6.893C60.5297 6.73118 60.4656 6.60173 60.3375 6.52083C60.2094 6.42374 60.0653 6.35901 59.9052 6.31047C59.729 6.26193 59.5689 6.22956 59.3928 6.22956C59.2166 6.21338 59.0885 6.21338 58.9764 6.21338V5.63086H63.0438V5.64704Z" fill="#F2F2F2"/>
<path d="M69.9294 5.53369H69.417V29.1745H69.9294V5.53369Z" fill="#F2F2F2"/>
<path d="M29.7365 5.53369H29.2241V29.1745H29.7365V5.53369Z" fill="#F2F2F2"/>
<path d="M84.6772 5.84115C85.2537 5.88969 85.8301 6.03532 86.3746 6.27804C86.6628 6.40749 86.919 6.52076 87.1432 6.61784C87.3834 6.71493 87.5596 6.76348 87.7037 6.76348C87.8798 6.76348 88.0079 6.68257 88.088 6.50458C88.168 6.32658 88.2001 6.16477 88.168 6.01914H88.6805V12.6534H88.168C88.168 12.1518 88.088 11.5369 87.9279 10.8088C87.7677 10.0806 87.5435 9.40102 87.2393 8.75377C86.935 8.10652 86.5507 7.55636 86.0703 7.0871C85.606 6.61784 85.0455 6.39131 84.421 6.39131C83.6844 6.39131 83.0439 6.5693 82.5314 6.90911C82.019 7.24891 81.5867 7.70199 81.2344 8.25215C80.8821 8.80231 80.6099 9.44956 80.4017 10.1615C80.1935 10.8735 80.0494 11.6017 79.9533 12.346C79.8573 13.0903 79.7932 13.8023 79.7612 14.4819C79.7452 15.1777 79.7291 15.7764 79.7291 16.2942C79.7291 17.0224 79.7452 17.9447 79.7772 19.0612C79.8092 20.1777 79.9053 21.3428 80.0654 22.5078C80.2256 23.689 80.4497 24.7894 80.754 25.8088C81.0582 26.8282 81.4586 27.6049 81.987 28.1227C82.3713 28.511 82.7877 28.7699 83.252 28.8832C83.7164 29.0127 84.1968 29.0774 84.7092 29.0774C85.5899 29.0774 86.3105 28.8347 86.871 28.3492C87.4314 27.8638 87.8798 27.2489 88.2001 26.5369C88.5203 25.8088 88.7445 25.0321 88.8566 24.2068C88.9687 23.3816 89.0328 22.6211 89.0328 21.9091L89.5772 21.8767V29.4657L89.1128 29.4981C89.0968 29.3363 89.0328 29.1745 88.9687 29.0288C88.8886 28.867 88.7605 28.7861 88.5844 28.7861C88.1841 28.7861 87.7837 28.8347 87.3834 28.9318C86.9831 29.0288 86.5988 29.1421 86.1984 29.2554C85.7981 29.3687 85.4138 29.4819 84.9975 29.579C83.8605 29.8703 82.7396 29.6923 81.6667 29.2554C80.5298 28.8023 79.601 28.1065 78.8965 27.1842C78.1919 26.2619 77.6474 25.2263 77.2631 24.0936C76.8788 22.9609 76.6226 21.7797 76.5105 20.5337C76.3824 19.3039 76.3184 18.1389 76.3184 17.0386C76.3184 15.6632 76.4465 14.2877 76.7027 12.9447C76.9589 11.6017 77.4072 10.3881 78.0478 9.33629C78.6883 8.28451 79.537 7.42691 80.6099 6.76348C81.2984 6.34276 82.0671 6.06768 82.8677 5.92205C83.4762 5.84115 84.0847 5.7926 84.6772 5.84115Z" fill="#F2F2F2"/>
</svg>
