<svg width="108" height="102" viewBox="0 0 108 102" fill="none" xmlns="http://www.w3.org/2000/svg">
<g clip-path="url(#clip0_1_129)">
<path d="M66.3 70.4V86.2L80.4 78.8L66.3 70.4Z" fill="#D1D3D4"/>
<path d="M87.7 43.8C87.7 44.9 86.8 45.9 85.6 45.9H73.2V46.8C73.2 49.7 70.8 52.1 67.9 52.1H5.3C2.4 52 0 49.6 0 46.7V5.3C0 2.4 2.4 0 5.3 0H67.9C70.8 0 73.2 2.4 73.2 5.3V28.4L86.9 42.1C87.4 42.5 87.7 43.1 87.7 43.8Z" fill="#01AB8D"/>
<path d="M104 101.6H39.2C37.3 101.6 35.7 100 35.7 98.1V77.8L22 64.7C21.4 64.1 21.2 63.2 21.5 62.4C21.8 61.6 22.6 61.1 23.4 61.1H35.6V59C35.6 57.2 37 55.8 38.8 55.8H104.2C106 55.8 107.4 57.2 107.4 59V98C107.5 100 105.9 101.6 104 101.6ZM39.8 97.5H103.4V60.1H39.8V63.3C39.8 64.4 38.9 65.4 37.7 65.4H28.6L39.2 75.6C39.6 76 39.8 76.5 39.8 77.1V97.5Z" fill="#333333"/>
<path d="M66.7 88.6C66.3 88.6 66 88.5 65.7 88.3C65.1 87.9 64.7 87.3 64.7 86.5V70.1C64.7 69.4 65.1 68.7 65.8 68.3C66.5 67.9 67.2 68 67.9 68.3L81.9 76.9C82.5 77.3 82.9 78 82.9 78.7C82.9 79.4 82.5 80.1 81.8 80.5L67.8 88.3C67.4 88.5 67.1 88.6 66.7 88.6ZM68.8 73.8V83L76.6 78.6L68.8 73.8Z" fill="#333333"/>
<path d="M47.9 20.9H23.5C22.4 20.9 21.4 20 21.4 18.8C21.4 17.6 22.3 16.7 23.5 16.7H47.9C49 16.7 50 17.6 50 18.8C50 20 49.1 20.9 47.9 20.9Z" fill="#333333"/>
<path d="M47.9 28.6H23.5C22.4 28.6 21.4 27.7 21.4 26.5C21.4 25.4 22.3 24.4 23.5 24.4H47.9C49 24.4 50 25.3 50 26.5C50 27.7 49.1 28.6 47.9 28.6Z" fill="#333333"/>
<path d="M47.9 35.7H23.5C22.4 35.7 21.4 34.8 21.4 33.6C21.4 32.4 22.3 31.5 23.5 31.5H47.9C49 31.5 50 32.4 50 33.6C50 34.8 49.1 35.7 47.9 35.7Z" fill="#333333"/>
<path d="M86.9 42.1L73.2 28.4V5.3C73.2 2.4 70.8 0 67.9 0H5.3C2.4 0 0 2.4 0 5.3V46.7C0 49.6 2.4 52 5.3 52H67.9C70.8 52 73.2 49.6 73.2 46.7V45.8H85.7C86.8 45.8 87.8 44.9 87.8 43.7C87.7 43.1 87.4 42.5 86.9 42.1ZM71.1 41.7C70 41.7 69 42.6 69 43.8V46.7C69 47.4 68.5 47.9 67.8 47.9H5.3C4.6 47.9 4.1 47.4 4.1 46.7V5.3C4.1 4.7 4.6 4.1 5.3 4.1H67.9C68.5 4.1 69.1 4.6 69.1 5.3V29.3C69.1 29.8 69.3 30.4 69.7 30.8L80.7 41.8H71.1V41.7Z" fill="#333333"/>
</g>
<defs>
<clipPath id="clip0_1_129">
<rect width="107.5" height="101.6" fill="white"/>
</clipPath>
</defs>
</svg>
