<svg width="108" height="111" viewBox="0 0 108 111" fill="none" xmlns="http://www.w3.org/2000/svg">
<g clip-path="url(#clip0_1_100)">
<path d="M49 20.2V36.4L63.6 28.8L49 20.2Z" fill="#01AB8D"/>
<path d="M74.2 110.7H33.4C34.5 102.5 35.9 85.9 53.9 85.8C71.9 85.7 74.3 108.2 74.2 110.7Z" fill="white"/>
<path d="M0 110.7H4C4.2 98.2 8.6 92.8 13 90.1C19.1 86.4 24.9 86.4 31 90.1C31.9 90.7 33.2 90.4 33.7 89.4C34.3 88.5 34 87.3 33 86.7C30.8 85.4 28.6 84.4 26.4 83.9C28.8 82.9 30.8 81 32.1 78.6C32.9 77 33.3 75.3 33.3 73.5C33.3 67.2 28.2 62.2 21.9 62.2C15.6 62.2 10.5 67.3 10.5 73.5C10.5 75.3 10.9 77 11.7 78.6C12.9 81.1 15 82.9 17.4 84C15.2 84.5 13 85.5 10.8 86.8C3.6 91.3 0.2 99.3 0 110.7ZM15.4 76.8C14.9 75.8 14.6 74.6 14.6 73.5C14.6 69.4 17.9 66.1 22 66.1C26.1 66.1 29.4 69.4 29.4 73.5C29.4 74.7 29.1 75.8 28.6 76.8C27.3 79.3 24.8 80.9 22 80.9C19.2 80.9 16.7 79.4 15.4 76.8Z" fill="#333333"/>
<path d="M76.7 90.1C82.8 86.4 88.6 86.4 94.7 90.1C99.1 92.8 103.6 98.2 103.8 110.6H107.8C107.6 99.3 104.2 91.2 96.8 86.7C94.6 85.4 92.4 84.4 90.2 83.9C92.6 82.9 94.7 81 95.9 78.5C96.7 76.9 97.1 75.2 97.1 73.4C97.1 67.1 92 62.1 85.7 62.1C79.4 62.1 74.3 67.2 74.3 73.4C74.3 75.2 74.7 76.9 75.5 78.5C76.7 81 78.8 82.8 81.2 83.8C79 84.3 76.8 85.3 74.6 86.6C73.7 87.2 73.4 88.4 73.9 89.3C74.6 90.4 75.8 90.7 76.7 90.1ZM79.1 76.8C78.6 75.8 78.3 74.6 78.3 73.5C78.3 69.4 81.6 66.1 85.7 66.1C89.8 66.1 93.1 69.4 93.1 73.5C93.1 74.7 92.8 75.8 92.3 76.8C91 79.3 88.5 80.9 85.7 80.9C82.9 80.9 80.4 79.4 79.1 76.8Z" fill="#333333"/>
<path d="M31.9 110.7H35.9C36.1 98.2 40.6 92.8 45 90.2C51.1 86.5 56.9 86.5 63 90.2C67.4 92.9 71.9 98.3 72.1 110.7H76.1C75.9 99.4 72.5 91.3 65.1 86.8C62.9 85.5 60.7 84.5 58.5 84C60.9 83 62.9 81.1 64.2 78.7C65 77.1 65.4 75.4 65.4 73.6C65.4 67.3 60.3 62.3 54 62.3C47.7 62.3 42.7 67.4 42.7 73.6C42.7 75.4 43.1 77.1 43.9 78.7C45.1 81.2 47.2 83 49.6 84.1C47.4 84.6 45.2 85.6 43 86.9C35.4 91.3 32 99.3 31.9 110.7ZM47.3 76.8C46.8 75.8 46.5 74.6 46.5 73.5C46.5 69.4 49.8 66.1 53.9 66.1C58 66.1 61.3 69.4 61.3 73.5C61.3 74.7 61 75.8 60.5 76.8C59.2 79.3 56.7 80.9 53.9 80.9C51.1 80.9 48.5 79.4 47.3 76.8Z" fill="#333333"/>
<path d="M96.2 57.6H12.8C10.6 57.6 8.9 55.8 8.9 53.7V3.5C8.9 1.6 10.5 0 12.4 0H96.6C98.5 0 100.1 1.6 100.1 3.5V53.7C100.1 55.8 98.4 57.6 96.2 57.6ZM13 53.5H96V4.1H13V53.5Z" fill="#333333"/>
<path d="M49.2 38.9C48.8 38.9 48.5 38.8 48.2 38.6C47.6 38.2 47.2 37.6 47.2 36.8V19.9C47.2 19.2 47.6 18.5 48.3 18.1C49 17.7 49.7 17.8 50.4 18.1L64.7 27C65.3 27.4 65.7 28.1 65.7 28.8C65.7 29.5 65.3 30.2 64.6 30.6L50.2 38.7C49.9 38.8 49.6 38.9 49.2 38.9ZM51.3 23.6V33.3L59.6 28.7L51.3 23.6Z" fill="#333333"/>
</g>
<defs>
<clipPath id="clip0_1_100">
<rect width="107.8" height="110.7" fill="white"/>
</clipPath>
</defs>
</svg>
