<svg width="138" height="108" viewBox="0 0 138 108" fill="none" xmlns="http://www.w3.org/2000/svg">
<g clip-path="url(#clip0_1_113)">
<path d="M63.3 30.6H55.7V48H63.3V30.6Z" fill="#01AB8D"/>
<path d="M81.3 29.9H73.7V47.3H81.3V29.9Z" fill="#01AB8D"/>
<path d="M49.3 50.8C49.3 52.4 48.7 53.9 47.5 55.1L43.1 59.5C41.1 61.5 38.8 62.6 36.5 62.6C34.6 62.6 32.8 61.8 31.3 60.4L30.7 59.8L28.9 58V71.7L28.6 101.2C29.2 104 27.5 106.9 24.7 107.7C24.1 107.9 23.5 107.9 22.9 107.9C21 107.9 19.4 107.1 18.3 105.9C17.2 107.1 15.5 107.9 13.7 107.9C13.2 107.9 12.6 107.8 12.1 107.7C12.1 107.7 12 107.7 11.9 107.7C10.6 107.3 9.4 106.4 8.7 105.1C8 103.9 7.9 102.5 8.1 101.2L8 71.9C7 72.3 5.8 72.3 4.7 72.1C2 71.5 0 68.9 0 66V49.6C0 44.1 4.5 39.6 10 39.6H23.2C26 39.6 28.7 40.7 30.7 42.7L36.7 48.7L38.9 46.5C40 45.4 41.6 44.7 43.2 44.7C44.8 44.7 46.3 45.3 47.5 46.5C48.7 47.7 49.3 49.2 49.3 50.8Z" fill="white"/>
<path d="M18.5 38.6C12.7 38.6 8 33.9 8 28.2C8 22.5 12.7 17.8 18.4 17.8C24.1 17.8 28.8 22.5 28.8 28.2C28.9 33.9 24.2 38.6 18.5 38.6ZM18.5 21.9C15 21.9 12.2 24.7 12.2 28.2C12.2 31.7 15 34.5 18.5 34.5C22 34.5 24.8 31.7 24.8 28.2C24.8 24.7 21.9 21.9 18.5 21.9Z" fill="#333333"/>
<path d="M47.5 46.5C46.4 45.3 44.8 44.7 43.2 44.7C41.6 44.7 40.1 45.3 38.9 46.5L36.7 48.7L30.7 42.7C28.7 40.7 26.1 39.6 23.2 39.6H10C4.5 39.6 0 44.1 0 49.6V66C0 68.9 2 71.5 4.8 72.1C5.9 72.3 7 72.2 8 71.9L8.1 101.1C7.8 102.4 8 103.8 8.7 105C9.4 106.3 10.6 107.2 11.9 107.6C11.9 107.6 12 107.6 12.1 107.6C12.6 107.8 13.2 107.8 13.7 107.8C15.5 107.8 17.2 107 18.3 105.8C19.3 107 21 107.8 22.9 107.8C23.5 107.8 24.1 107.7 24.7 107.6C27.5 106.8 29.2 103.9 28.6 101.1L28.9 71.6V58L30.7 59.8L31.3 60.4C32.8 61.9 34.6 62.6 36.5 62.6C38.8 62.6 41.1 61.5 43.1 59.5L47.5 55.1C48.6 54 49.3 52.4 49.3 50.8C49.3 49.2 48.7 47.7 47.5 46.5ZM44.6 52.2L40.2 56.6C38.1 58.7 35.9 59.1 34.2 57.5L33.6 56.9C31.7 55 30.4 53.7 28.3 51.6C27.7 51 26.8 50.8 26.1 51.2C25.3 51.5 24.8 52.3 24.8 53.1V71.7L24.5 101.4C24.5 101.6 24.5 101.8 24.6 102C24.8 102.7 24.4 103.5 23.6 103.7C22.8 103.9 21.8 103.7 21.5 103.3L20.6 73.7C20.6 72.6 19.7 71.7 18.5 71.7C17.4 71.7 16.5 72.6 16.4 73.7L15.4 103C15.2 103.4 14.5 103.8 13.8 103.8C13.6 103.8 13.5 103.8 13.4 103.8H13.3C12.9 103.7 12.6 103.5 12.5 103.1C12.3 102.8 12.3 102.4 12.4 102C12.4 101.8 12.5 101.6 12.5 101.4L12.4 71.7V51.3C12.4 50.2 11.5 49.2 10.3 49.2C9 49.2 8 50.2 8 51.3V66.2C8 66.7 7.8 67.2 7.4 67.5C7 68 6.3 68.2 5.6 68C4.7 67.8 4.1 66.9 4.1 66V49.6C4.1 46.4 6.7 43.7 10 43.7H23.2C24.9 43.7 26.5 44.4 27.8 45.6L35.3 53.1C36.1 53.9 37.4 53.9 38.2 53.1L41.9 49.4C42.6 48.7 43.8 48.6 44.7 49.5C45.1 49.9 45.3 50.3 45.3 50.9C45.2 51.3 45 51.8 44.6 52.2Z" fill="#333333"/>
<path d="M119.7 38.6C125.4 38.6 130.1 33.9 130.1 28.2C130.1 22.5 125.4 17.8 119.7 17.8C114 17.8 109.3 22.5 109.3 28.2C109.2 33.9 113.9 38.6 119.7 38.6ZM119.7 21.9C123.2 21.9 126 24.7 126 28.2C126 31.7 123.2 34.5 119.7 34.5C116.2 34.5 113.4 31.7 113.4 28.2C113.4 24.7 116.2 21.9 119.7 21.9Z" fill="#333333"/>
<path d="M128 39.6H111.2C105.7 39.6 101.2 44.1 101.2 49.6V66C101.2 68.9 103.2 71.5 106 72.1C106.4 72.2 106.8 72.2 107.3 72.2C108 72.2 108.7 72.1 109.3 71.8L109.4 101.1C108.8 103.9 110.5 106.8 113.2 107.6C113.2 107.6 113.3 107.6 113.4 107.6C115.7 108.2 118.1 107.5 119.6 105.8C120.6 107 122.3 107.8 124.2 107.8C124.8 107.8 125.4 107.7 126 107.5C128.8 106.7 130.5 103.8 129.9 101L130.2 71.7C130.8 71.9 131.5 72 132.1 72C132.5 72 132.9 72 133.4 71.9C136.2 71.3 138.2 68.8 138.2 65.8V49.6C138 44.1 133.5 39.6 128 39.6ZM133.9 66C133.9 67 133.3 67.9 132.4 68C131.7 68.1 131.1 67.9 130.6 67.5C130.3 67.2 130.2 66.9 130.1 66.6C130.1 66.5 130.1 66.3 130.1 66.2V51.3C130.1 50.2 129.2 49.2 128 49.2C126.9 49.2 125.9 50.1 125.9 51.3V66.2C125.9 66.3 125.9 66.5 125.9 66.6C125.9 66.7 125.9 66.8 125.9 66.9V67L125.6 101.3C125.6 101.5 125.6 101.7 125.7 101.9C125.9 102.6 125.5 103.4 124.7 103.6C123.9 103.8 122.8 103.6 122.6 103.2L121.7 73.6C121.7 72.5 120.8 71.6 119.7 71.6C118.6 71.6 117.7 72.5 117.6 73.6L116.5 102.9C116.4 103.1 116.1 103.3 115.8 103.5C115.3 103.7 114.8 103.8 114.5 103.7C114.5 103.7 114.4 103.7 114.3 103.6C113.6 103.4 113.1 102.6 113.3 101.9C113.4 101.7 113.4 101.5 113.4 101.3L113.3 71.6V66.1V51.2C113.3 50.1 112.4 49.1 111.2 49.1C110.1 49.1 109.1 50 109.1 51.2V66.1C109.1 66.2 109.1 66.4 109.1 66.5C109 66.9 108.8 67.2 108.6 67.4C108.1 67.9 107.4 68.1 106.8 67.9C105.9 67.7 105.3 66.8 105.3 65.9V49.6C105.3 46.3 107.9 43.7 111.2 43.7H128C131.2 43.7 133.9 46.4 133.9 49.6V66Z" fill="#333333"/>
<path d="M91.3 33H84.3V29.8C84.3 28.7 83.4 27.7 82.2 27.7H75.2V23.5C75.2 22.4 74.3 21.4 73.1 21.4H64C62.9 21.4 61.9 22.3 61.9 23.5V27.7H54.9C53.8 27.7 52.8 28.6 52.8 29.8V48.2C52.8 49.3 53.7 50.3 54.9 50.3H64H73.1H82.2H91.3C92.4 50.3 93.4 49.4 93.4 48.2V35.1C93.4 33.9 92.5 33 91.3 33ZM57 31.9H62V46.2H57V31.9ZM66.1 29.8V25.6H71.1V29.8V46.2H66.1V29.8ZM75.2 31.9H80.2V35.1V46.2H75.2V31.9ZM89.3 46.2H84.3V37.2H89.3V46.2Z" fill="#333333"/>
<path d="M111.5 0H34.8C32.7 0 31 1.8 31 3.9V8.8C31 9.8 31.7 10.6 32.6 10.8V41.4C32.6 42.5 33.5 43.5 34.7 43.5C35.8 43.5 36.8 42.6 36.8 41.4V10.9H109.7V16C109.7 17.1 110.6 18.1 111.8 18.1C112.9 18.1 113.9 17.2 113.9 16V10.8C114.8 10.6 115.5 9.8 115.5 8.8V3.9C115.3 1.8 113.6 0 111.5 0ZM35.1 6.8V4.1H111.1V6.8H35.1Z" fill="#333333"/>
<path d="M97.5 62.2H78.1H67.9H41.8C40.7 62.2 39.7 63.1 39.7 64.3C39.7 65.5 40.6 66.4 41.8 66.4H64.8L55 89.8C54.6 90.8 55.1 92.1 56.1 92.5C56.4 92.6 56.6 92.7 56.9 92.7C57.7 92.7 58.5 92.2 58.8 91.4L69.3 66.3H76.7L87.5 91.4C87.8 92.2 88.6 92.6 89.4 92.6C89.7 92.6 89.9 92.5 90.2 92.4C91.2 92 91.7 90.7 91.3 89.7L81.2 66.3H97.4C98.5 66.3 99.5 65.4 99.5 64.2C99.5 63 98.6 62.2 97.5 62.2Z" fill="#333333"/>
<path d="M72.3 24.1H64.7V47.3H72.3V24.1Z" fill="white"/>
</g>
<defs>
<clipPath id="clip0_1_113">
<rect width="138" height="107.9" fill="white"/>
</clipPath>
</defs>
</svg>
