<svg width="7" height="11" viewBox="0 0 7 11" fill="none" xmlns="http://www.w3.org/2000/svg">
<path d="M6.48412 8.96003e-05C6.59046 3.33428e-05 6.69418 0.0345955 6.78085 0.0989685C6.86752 0.163342 6.93284 0.254329 6.96773 0.359282C7.00262 0.464233 7.00535 0.577936 6.97553 0.684583C6.94571 0.791229 6.88484 0.885518 6.80136 0.954346L1.33412 5.49843L6.80136 10.0425C6.85498 10.0858 6.89982 10.1399 6.93329 10.2015C6.96675 10.263 6.98818 10.331 6.99631 10.4013C7.00444 10.4716 6.99912 10.5429 6.98065 10.611C6.96219 10.6792 6.93095 10.7428 6.88875 10.7982C6.84655 10.8536 6.79423 10.8998 6.73483 10.9339C6.67543 10.968 6.61014 10.9894 6.54274 10.997C6.47534 11.0045 6.40718 10.998 6.34222 10.9777C6.27726 10.9575 6.21679 10.924 6.16432 10.8792L0.193079 5.89671C0.132857 5.84664 0.0842209 5.78303 0.0507912 5.7106C0.0173616 5.63817 -9.54826e-07 5.55879 -9.47797e-07 5.47838C-9.40767e-07 5.39798 0.0173617 5.3186 0.0507913 5.24617C0.0842209 5.17375 0.132857 5.11013 0.19308 5.06006L6.16432 0.109683C6.25604 0.0365209 6.36874 -0.00210195 6.48412 8.96003e-05Z" fill="#01AB8D"/>
</svg>
