<svg width="108" height="119" viewBox="0 0 108 119" fill="none" xmlns="http://www.w3.org/2000/svg">
<path d="M74.2 118.1H33.4C34.5 109.9 35.9 93.2996 53.9 93.1996C71.9 93.0996 74.3 115.6 74.2 118.1Z" fill="#01AB8D"/>
<path d="M0 118.1H4C4.2 105.6 8.7 100.2 13.1 97.6002C19.2 93.9002 25 93.9002 31.1 97.6002C32 98.2002 33.3 97.9002 33.8 96.9002C34.4 96.0002 34.1 94.8002 33.1 94.2002C30.9 92.9002 28.7 91.9002 26.5 91.4002C28.9 90.4002 30.9 88.5002 32.2 86.1002C33 84.5002 33.4 82.8002 33.4 81.0002C33.4 74.7002 28.3 69.7002 22 69.7002C15.7 69.7002 10.6 74.8002 10.6 81.0002C10.6 82.8002 11 84.5002 11.8 86.1002C13 88.6002 15.1 90.4002 17.5 91.5002C15.3 92.0002 13.1 93.0002 10.9 94.3002C3.6 98.7002 0.2 106.8 0 118.1ZM15.4 84.3002C14.9 83.3002 14.6 82.1002 14.6 81.0002C14.6 76.9002 17.9 73.6002 22 73.6002C26.1 73.6002 29.4 76.9002 29.4 81.0002C29.4 82.2002 29.1 83.3002 28.6 84.3002C27.3 86.8002 24.8 88.4002 22 88.4002C19.2 88.3002 16.7 86.8002 15.4 84.3002Z" fill="#333333"/>
<path d="M76.7 97.5996C82.8 93.8996 88.6 93.8996 94.7 97.5996C99.1 100.3 103.6 105.7 103.8 118.1H107.8C107.6 106.8 104.2 98.6996 96.8 94.1996C94.6 92.8996 92.4 91.8996 90.2 91.3996C92.6 90.3996 94.7 88.4996 95.9 85.9996C96.7 84.3996 97.1 82.6996 97.1 80.8996C97.1 74.5996 92 69.5996 85.7 69.5996C79.4 69.5996 74.3 74.6996 74.3 80.8996C74.3 82.6996 74.7 84.3996 75.5 85.9996C76.7 88.4996 78.8 90.2996 81.2 91.2996C79 91.7996 76.8 92.7996 74.6 94.0996C73.7 94.6996 73.4 95.8996 73.9 96.7996C74.6 97.7996 75.8 98.0996 76.7 97.5996ZM79.1 84.2996C78.6 83.2996 78.3 82.0996 78.3 80.9996C78.3 76.8996 81.6 73.5996 85.7 73.5996C89.8 73.5996 93.1 76.8996 93.1 80.9996C93.1 82.1996 92.8 83.2996 92.3 84.2996C91 86.7996 88.5 88.3996 85.7 88.3996C82.9 88.2996 80.4 86.7996 79.1 84.2996Z" fill="#333333"/>
<path d="M31.9 118.1H35.9C36.1 105.6 40.6 100.2 45 97.6002C51.1 93.9002 56.9 93.9002 63 97.6002C67.4 100.3 71.9 105.7 72.1 118.1H76.1C75.9 106.8 72.5 98.7002 65.1 94.2002C62.9 92.9002 60.7 91.9002 58.5 91.4002C60.9 90.4002 62.9 88.5002 64.2 86.1002C65 84.5002 65.4 82.8002 65.4 81.0002C65.4 74.7002 60.3 69.7002 54 69.7002C47.7 69.7002 42.6 74.8002 42.6 81.0002C42.6 82.8002 43 84.5002 43.8 86.1002C45 88.6002 47.1 90.4002 49.5 91.5002C47.3 92.0002 45.1 93.0002 42.9 94.3002C35.4 98.7002 32 106.8 31.9 118.1ZM47.3 84.3002C46.8 83.3002 46.5 82.1002 46.5 81.0002C46.5 76.9002 49.8 73.6002 53.9 73.6002C58 73.6002 61.3 76.9002 61.3 81.0002C61.3 82.2002 61 83.3002 60.5 84.3002C59.2 86.8002 56.7 88.4002 53.9 88.4002C51.1 88.3002 48.5 86.8002 47.3 84.3002Z" fill="#333333"/>
<path d="M53.5 17.9C52.4 17.9 51.4 17 51.4 15.8V2.1C51.4 1 52.3 0 53.5 0C54.6 0 55.6 0.9 55.6 2.1V15.9C55.6 17 54.7 17.9 53.5 17.9Z" fill="#333333"/>
<path d="M85.8 36.9002H72C70.9 36.9002 69.9 36.0002 69.9 34.8002C69.9 33.7002 70.8 32.7002 72 32.7002H85.8C86.9 32.7002 87.9 33.6002 87.9 34.8002C87.8 36.0002 86.9 36.9002 85.8 36.9002Z" fill="#333333"/>
<path d="M35 36.9002H21.2999C20.1999 36.9002 19.2 36.0002 19.2 34.8002C19.2 33.7002 20.0999 32.7002 21.2999 32.7002H35C36.1 32.7002 37.0999 33.6002 37.0999 34.8002C37.0999 36.0002 36.2 36.9002 35 36.9002Z" fill="#333333"/>
<path d="M39 24.5998C38.5 24.5998 37.9 24.3998 37.5 23.9998L27.8 14.2998C27 13.4998 27 12.1998 27.8 11.3998C28.6 10.5998 29.9 10.5998 30.7 11.3998L40.4 21.0998C41.2 21.8998 41.2 23.1998 40.4 23.9998C40.1 24.3998 39.6 24.5998 39 24.5998Z" fill="#333333"/>
<path d="M68 24.5998C67.5 24.5998 66.9 24.3998 66.5 23.9998C65.7 23.1998 65.7 21.8998 66.5 21.0998L76.2 11.3998C77 10.5998 78.3 10.5998 79.1 11.3998C79.9 12.1998 79.9 13.4998 79.1 14.2998L69.5 23.9998C69.1 24.3998 68.6 24.5998 68 24.5998Z" fill="#333333"/>
<path d="M63.1999 43.8998C62.6999 42.7998 61.9999 41.9998 61.1999 41.3998C60.3999 40.7998 59.3999 40.2998 58.3999 39.9998C57.3999 39.6998 56.3999 39.3998 55.2999 39.1998C54.1999 38.8998 53.0999 38.6998 52.0999 38.3998C51.0999 38.0998 50.2999 37.6998 49.6999 37.0998C49.0999 36.4998 48.7999 35.5998 48.7999 34.3998C48.7999 32.7998 49.2999 31.6998 50.1999 30.8998C51.0999 30.0998 52.5999 29.6998 54.4999 29.6998C55.8999 29.6998 57.3999 30.0998 58.8999 30.7998C59.8999 31.2998 61.0999 31.0998 61.6999 30.1998C62.4999 29.0998 62.0999 27.4998 60.7999 26.8998C60.0999 26.5998 59.4999 26.2998 58.7999 26.0998C57.8999 25.7998 56.8999 25.5998 55.8999 25.4998V23.9998C55.8999 22.7998 54.8999 21.7998 53.6999 21.7998C52.4999 21.7998 51.4999 22.7998 51.4999 23.9998V25.4998C49.4999 25.7998 47.7999 26.4998 46.5999 27.5998C44.8999 29.1998 44.0999 31.4998 44.0999 34.5998C44.0999 36.3998 44.3999 37.7998 44.8999 38.8998C45.4999 39.9998 46.1999 40.7998 47.0999 41.2998C47.9999 41.8998 48.9999 42.2998 50.1999 42.4998C51.2999 42.7998 52.3999 42.9998 53.4999 43.1998C54.4999 43.3998 55.4999 43.5998 56.3999 43.8998C57.2999 44.1998 57.9999 44.5998 58.4999 45.1998C58.9999 45.7998 59.2999 46.6998 59.2999 47.7998C59.2999 49.3998 58.7999 50.5998 57.7999 51.3998C56.4999 52.3998 54.2999 52.7998 51.2999 52.4998C49.7999 52.2998 48.4999 51.4998 47.3999 50.4998C46.4999 49.6998 44.9999 49.7998 44.1999 50.7998C43.3999 51.7998 43.5999 53.1998 44.5999 53.9998C44.9999 54.2998 45.4999 54.5998 45.8999 54.8998C46.9999 55.5998 48.0999 56.0998 49.3999 56.3998C50.0999 56.5998 50.7999 56.6998 51.5999 56.7998V58.1998C51.5999 59.3998 52.5999 60.3998 53.7999 60.3998C54.9999 60.3998 55.9999 59.3998 55.9999 58.1998V56.6998C58.2999 56.3998 59.9999 55.6998 61.2999 54.5998C63.0999 53.0998 63.8999 50.7998 63.8999 47.7998C63.9999 46.2998 63.6999 44.8998 63.1999 43.8998Z" fill="#333333"/>
</svg>
