<svg width="143" height="109" viewBox="0 0 143 109" fill="none" xmlns="http://www.w3.org/2000/svg">
<g clip-path="url(#clip0_35_14994)">
<path d="M115.8 11.7998H82.4V58.0998H115.8V11.7998Z" fill="#01AB8D"/>
<path d="M67.4 28.7998C67.4 28.6998 67.4 28.6998 67.4 28.7998V17.7998C66.1 18.0998 64.8 18.2998 63.6 18.5998C62.5 18.7998 61.4 19.0998 60.4 19.5998C58.5 20.5998 57.3 22.4998 56.7 24.5998C56.1 26.5998 56.1 28.7998 56.1 30.8998C56.1 31.4998 56.1 32.0998 56.2 32.6998C56.4 33.5998 56.9 34.3998 57.4 35.0998C59.2 37.5998 61.6 39.6998 64.5 40.3998C65.8 40.6998 67.1 40.6998 68.4 40.6998C69.8 40.6998 71.2 40.5998 72.5 40.0998C73.8 39.6998 75.1 38.7998 75.8 37.5998C76.1 36.9998 76.4 36.2998 76.1 35.5998C75.9 35.0998 75.3 34.6998 74.8 34.3998C72.2 32.7998 69.7 30.8998 67.4 28.7998Z" fill="white"/>
<path d="M36.5 81.7004C36.5 82.8004 37.4 83.8004 38.6 83.8004C39.7 83.8004 40.7 82.9004 40.7 81.7004V55.6004C41.4 56.3004 42.1 57.0004 43 57.9004L43.2 58.1004C46.5 61.4004 51.2 61.0004 55 57.2004L59.4 52.8004C60.5 51.7004 61.2 50.1004 61.2 48.5004C61.2 46.9004 60.6 45.4004 59.4 44.2004C58.3 43.1004 56.7 42.4004 55.1 42.4004C53.5 42.4004 52 43.0004 50.8 44.2004L48.6 46.4004L42.6 40.4004C40.7 38.5004 38.2 37.4004 35.5 37.3004C38.6 35.5004 40.7 32.1004 40.7 28.3004C40.7 22.6004 36 17.9004 30.3 17.9004C24.6 17.9004 19.9 22.6004 19.9 28.3004C19.9 32.1004 22 35.5004 25.1 37.3004H21.9C16.4 37.3004 11.9 41.8004 11.9 47.3004V62.3004C11.9 65.2004 13.9 67.8004 16.7 68.4004C17.8 68.6004 18.9 68.6004 20 68.2004C20.1 69.2004 21 70.0004 22 70.0004C23.1 70.0004 24.1 69.1004 24.1 67.9004V62.4004V51.3004C24.1 50.2004 23.2 49.2004 22 49.2004C20.9 49.2004 19.9 50.1004 19.9 51.3004V62.4004C19.9 62.9004 19.7 63.4004 19.3 63.7004C18.8 64.2004 18.1 64.4004 17.5 64.2004C16.6 64.0004 16 63.1004 16 62.2004V47.2004C16 43.9004 18.6 41.3004 21.9 41.3004H35C36.7 41.3004 38.3 42.0004 39.6 43.2004L47.1 50.7004C47.9 51.5004 49.2 51.5004 50 50.7004L53.7 47.0004C54.4 46.3004 55.6 46.2004 56.5 47.1004C56.9 47.5004 57.1 47.9004 57.1 48.5004C57.1 49.0004 56.9 49.5004 56.5 49.9004L52 54.2004C51 55.2004 48.3 57.4004 46 55.0004L45.8 54.8004C43.7 52.7004 42.2 51.3004 40 49.1004C39.4 48.5004 38.5 48.3004 37.8 48.7004C37 49.0004 36.5 49.8004 36.5 50.6004V65.9004C36.3 65.9004 36.2 65.8004 36 65.8004H27.7C26.6 65.8004 25.6 66.7004 25.6 67.9004C25.6 69.0004 26.5 70.0004 27.7 70.0004H36C36.2 70.0004 36.4 70.0004 36.5 69.9004V81.7004ZM30.2 21.9004C33.7 21.9004 36.5 24.7004 36.5 28.2004C36.5 31.7004 33.7 34.5004 30.2 34.5004C26.7 34.5004 23.9 31.7004 23.9 28.2004C23.9 24.7004 26.7 21.9004 30.2 21.9004Z" fill="#333333"/>
<path d="M67.5 42.5002C71.6 42.5002 75.2 40.7002 77.6 37.8002L77.7 37.7002C77.7 37.7002 77.7 37.7002 77.7 37.6002C79.6 35.3002 80.8 32.3002 80.8 29.1002C80.8 21.7002 74.8 15.7002 67.4 15.7002C60 15.7002 54 21.7002 54 29.1002C54.1 36.5002 60.1 42.5002 67.5 42.5002ZM76.7 29.1002C76.7 30.6002 76.3 32.0002 75.7 33.3002L69.5 28.1002V20.1002C73.6 21.1002 76.7 24.7002 76.7 29.1002ZM65.4 20.1002V29.1002C65.4 29.7002 65.7 30.3002 66.1 30.7002L73 36.5002C71.4 37.7002 69.5 38.4002 67.4 38.4002C62.3 38.4002 58.2 34.3002 58.2 29.2002C58.2 24.7002 61.3 21.1002 65.4 20.1002Z" fill="#333333"/>
<path d="M26.1 91.5C24.8 90.7 23.5 90.1 22.2 89.7C23.6 88.8 24.8 87.5 25.6 86C26.3 84.7 26.6 83.3 26.6 81.8C26.6 76.7 22.4 72.5 17.3 72.5C12.2 72.5 7.99999 76.7 7.99999 81.8C7.99999 83.3 8.29999 84.7 8.99999 86C9.79999 87.6 11 88.9 12.4 89.7C11.1 90.1 9.79999 90.7 8.49999 91.5C3.39999 94.6 0.699986 99.2 -1.41859e-05 106.2C-0.100014 107.3 0.699986 108.3 1.79999 108.5C1.89999 108.5 1.89999 108.5 1.99999 108.5C2.99999 108.5 3.89999 107.7 3.99999 106.7C4.79999 99.5 7.69999 96.8 10.5 95.1C15 92.3 19.3 92.3 23.8 95.1C26.3 96.6 29.2 99.2 30.2 105.5C30.4 106.6 31.4 107.4 32.5 107.2C33.6 107 34.4 106 34.2 104.9C33.5 98.6 30.8 94.4 26.1 91.5ZM17.3 76.6C20.1 76.6 22.5 78.9 22.5 81.7C22.5 82.5 22.3 83.3 22 84C21.1 85.8 19.4 86.8 17.4 86.8C15.4 86.8 13.7 85.7 12.8 84C12.4 83.3 12.3 82.5 12.3 81.7C12.1 78.9 14.4 76.6 17.3 76.6Z" fill="#333333"/>
<path d="M62.2 91.5C60.9 90.7 59.6 90.1 58.3 89.7C59.7 88.8 60.9 87.5 61.7 86C62.4 84.7 62.7 83.3 62.7 81.8C62.7 76.7 58.5 72.5 53.4 72.5C48.3 72.5 44.1 76.7 44.1 81.8C44.1 83.3 44.4 84.7 45.1 86C45.9 87.6 47.1 88.9 48.5 89.7C47.2 90.1 45.9 90.7 44.6 91.5C39.9 94.3 37.3 98.5 36.3 104.5C36.1 105.6 36.9 106.7 38 106.9C39.1 107.1 40.2 106.3 40.4 105.2C41.4 99 44.3 96.5 46.8 95.1C51.3 92.3 55.6 92.3 60.1 95.1C62.6 96.6 65.6 99.2 66.5 105.9C66.6 106.9 67.5 107.7 68.5 107.7C68.6 107.7 68.7 107.7 68.8 107.7C69.9 107.5 70.7 106.5 70.6 105.4C69.7 98.8 67 94.4 62.2 91.5ZM53.4 76.6C56.2 76.6 58.6 78.9 58.6 81.7C58.6 82.5 58.4 83.3 58.1 84C57.2 85.8 55.5 86.8 53.5 86.8C51.5 86.8 49.8 85.7 48.9 84C48.5 83.3 48.4 82.5 48.4 81.7C48.2 78.9 50.5 76.6 53.4 76.6Z" fill="#333333"/>
<path d="M98.2 91.5C96.9 90.7 95.6 90.1 94.3 89.7C95.7 88.8 96.9 87.5 97.7 86C97.9 85.7 98 85.3 98.1 84.9L99.2 87.4C99.5 88.2 100.3 88.6 101.1 88.6C101.4 88.6 101.6 88.5 101.9 88.4C102.9 88 103.4 86.7 103 85.7L93 62.2H121.4C123.6 62.2 125.5 60.4 125.5 58.1V16L125.4 11.1C126.4 10.4 127.1 9.3 127.1 8V3.9C127.1 1.7 125.4 0 123.3 0H46.5C44.4 0 42.7 1.8 42.7 3.9V8C42.7 9.3 43.4 10.5 44.4 11.1L44.3 38.2C44.3 39.3 45.2 40.3 46.3 40.3C47.4 40.3 48.4 39.4 48.4 38.3L48.5 11.8H121.2L121.3 16.1L121.4 58.1L56.9 58.2C55.8 58.2 54.8 59.1 54.8 60.3C54.8 61.4 55.7 62.4 56.9 62.4H76.6L66.7 85.9C66.3 86.9 66.8 88.2 67.8 88.6C68.1 88.7 68.3 88.8 68.6 88.8C69.4 88.8 70.2 88.3 70.5 87.5L81.1 62.4H88.5L93.2 73.4C92 72.9 90.8 72.6 89.4 72.6C84.3 72.6 80.1 76.8 80.1 81.9C80.1 83.4 80.4 84.8 81.1 86.1C81.9 87.7 83.1 89 84.5 89.8C83.2 90.2 81.9 90.8 80.6 91.6C75.8 94.5 73.2 98.8 72.3 105C72.1 106.1 72.9 107.2 74 107.3C75.1 107.5 76.2 106.7 76.3 105.6C77.3 99.2 80.2 96.6 82.7 95.1C87.2 92.3 91.5 92.3 96 95.1C98.7 96.8 101.7 99.4 102.5 106.2C102.6 107.2 103.5 108 104.5 108C104.6 108 104.7 108 104.8 108C105.9 107.9 106.7 106.8 106.6 105.7C105.9 99 103.2 94.5 98.2 91.5ZM46.9 7.6V4.1H122.9V7.6H46.9ZM89.4 76.6C92.2 76.6 94.6 78.9 94.6 81.7C94.6 82.5 94.4 83.3 94.1 84C93.2 85.8 91.5 86.8 89.5 86.8C87.5 86.8 85.8 85.7 84.9 84C84.5 83.3 84.4 82.5 84.4 81.7C84.3 78.9 86.6 76.6 89.4 76.6Z" fill="#333333"/>
<path d="M142.8 106.2C142.1 99.3 139.4 94.6 134.3 91.5C133 90.7 131.7 90.1 130.4 89.7C131.8 88.8 133 87.5 133.8 86C134.5 84.7 134.8 83.3 134.8 81.8C134.8 76.7 130.6 72.5 125.5 72.5C120.4 72.5 116.2 76.7 116.2 81.8C116.2 83.3 116.5 84.7 117.2 86C118 87.6 119.2 88.9 120.6 89.7C119.3 90.1 118 90.7 116.7 91.5C111.8 94.5 109.2 98.9 108.3 105.3C108.2 106.4 108.9 107.5 110.1 107.6C111.2 107.7 112.3 107 112.4 105.8C113.3 99.1 116.3 96.5 118.9 94.9C123.4 92.1 127.7 92.1 132.2 94.9C135 96.6 138 99.3 138.7 106.5C138.8 107.6 139.7 108.3 140.7 108.3C140.8 108.3 140.8 108.3 140.9 108.3C142.1 108.3 142.9 107.3 142.8 106.2ZM125.5 76.6C128.3 76.6 130.7 78.9 130.7 81.7C130.7 82.5 130.5 83.3 130.2 84C129.3 85.8 127.6 86.8 125.6 86.8C123.6 86.8 121.9 85.7 121 84C120.6 83.3 120.5 82.5 120.5 81.7C120.4 78.9 122.7 76.6 125.5 76.6Z" fill="#333333"/>
<path d="M87.8 24.6004H110.2C111.3 24.6004 112.3 23.7004 112.3 22.5004C112.3 21.4004 111.4 20.4004 110.2 20.4004H87.8C86.7 20.4004 85.7 21.3004 85.7 22.5004C85.8 23.7004 86.7 24.6004 87.8 24.6004Z" fill="#333333"/>
<path d="M87.8 32.9998H110.2C111.3 32.9998 112.3 32.0998 112.3 30.8998C112.3 29.6998 111.4 28.7998 110.2 28.7998H87.8C86.7 28.7998 85.7 29.6998 85.7 30.8998C85.7 32.0998 86.7 32.9998 87.8 32.9998Z" fill="#333333"/>
<path d="M87.8 41.2996H110.2C111.3 41.2996 112.3 40.3996 112.3 39.1996C112.3 38.0996 111.4 37.0996 110.2 37.0996H87.8C86.7 37.0996 85.7 37.9996 85.7 39.1996C85.8 40.3996 86.7 41.2996 87.8 41.2996Z" fill="#333333"/>
<path d="M87.8 49.7H110.2C111.3 49.7 112.3 48.8 112.3 47.6C112.3 46.5 111.4 45.5 110.2 45.5H87.8C86.7 45.5 85.7 46.4 85.7 47.6C85.8 48.8 86.7 49.7 87.8 49.7Z" fill="#333333"/>
</g>
<defs>
<clipPath id="clip0_35_14994">
<rect width="142.8" height="108.4" fill="white"/>
</clipPath>
</defs>
</svg>
