<svg width="138" height="108" viewBox="0 0 138 108" fill="none" xmlns="http://www.w3.org/2000/svg">
<g clip-path="url(#clip0_35_15371)">
<path d="M63.3 30.5996H55.7V47.9996H63.3V30.5996Z" fill="#01AB8D"/>
<path d="M81.3 29.9004H73.7V47.3004H81.3V29.9004Z" fill="#01AB8D"/>
<path d="M49.3 50.7996C49.3 52.3996 48.7 53.8996 47.5 55.0996L43.1 59.4996C41.1 61.4996 38.8 62.5996 36.5 62.5996C34.6 62.5996 32.8 61.7996 31.3 60.3996L30.7 59.7996L28.9 57.9996V71.6996L28.6 101.2C29.2 104 27.5 106.9 24.7 107.7C24.1 107.9 23.5 107.9 22.9 107.9C21 107.9 19.4 107.1 18.3 105.9C17.2 107.1 15.5 107.9 13.7 107.9C13.2 107.9 12.6 107.8 12.1 107.7C12.1 107.7 12 107.7 11.9 107.7C10.6 107.3 9.4 106.4 8.7 105.1C8 103.9 7.9 102.5 8.1 101.2L8 71.8996C7 72.2996 5.8 72.2996 4.7 72.0996C2 71.4996 0 68.8996 0 65.9996V49.5996C0 44.0996 4.5 39.5996 10 39.5996H23.2C26 39.5996 28.7 40.6996 30.7 42.6996L36.7 48.6996L38.9 46.4996C40 45.3996 41.6 44.6996 43.2 44.6996C44.8 44.6996 46.3 45.2996 47.5 46.4996C48.7 47.6996 49.3 49.1996 49.3 50.7996Z" fill="white"/>
<path d="M18.5 38.5998C12.7 38.5998 8 33.8998 8 28.1998C8 22.4998 12.7 17.7998 18.4 17.7998C24.1 17.7998 28.8 22.4998 28.8 28.1998C28.9 33.8998 24.2 38.5998 18.5 38.5998ZM18.5 21.8998C15 21.8998 12.2 24.6998 12.2 28.1998C12.2 31.6998 15 34.4998 18.5 34.4998C22 34.4998 24.8 31.6998 24.8 28.1998C24.8 24.6998 21.9 21.8998 18.5 21.8998Z" fill="#333333"/>
<path d="M47.5 46.4996C46.4 45.2996 44.8 44.6996 43.2 44.6996C41.6 44.6996 40.1 45.2996 38.9 46.4996L36.7 48.6996L30.7 42.6996C28.7 40.6996 26.1 39.5996 23.2 39.5996H10C4.5 39.5996 0 44.0996 0 49.5996V65.9996C0 68.8996 2 71.4996 4.8 72.0996C5.9 72.2996 7 72.1996 8 71.8996L8.1 101.1C7.8 102.4 8 103.8 8.7 105C9.4 106.3 10.6 107.2 11.9 107.6C11.9 107.6 12 107.6 12.1 107.6C12.6 107.8 13.2 107.8 13.7 107.8C15.5 107.8 17.2 107 18.3 105.8C19.3 107 21 107.8 22.9 107.8C23.5 107.8 24.1 107.7 24.7 107.6C27.5 106.8 29.2 103.9 28.6 101.1L28.9 71.5996V57.9996L30.7 59.7996L31.3 60.3996C32.8 61.8996 34.6 62.5996 36.5 62.5996C38.8 62.5996 41.1 61.4996 43.1 59.4996L47.5 55.0996C48.6 53.9996 49.3 52.3996 49.3 50.7996C49.3 49.1996 48.7 47.6996 47.5 46.4996ZM44.6 52.1996L40.2 56.5996C38.1 58.6996 35.9 59.0996 34.2 57.4996L33.6 56.8996C31.7 54.9996 30.4 53.6996 28.3 51.5996C27.7 50.9996 26.8 50.7996 26.1 51.1996C25.3 51.4996 24.8 52.2996 24.8 53.0996V71.6996L24.5 101.4C24.5 101.6 24.5 101.8 24.6 102C24.8 102.7 24.4 103.5 23.6 103.7C22.8 103.9 21.8 103.7 21.5 103.3L20.6 73.6996C20.6 72.5996 19.7 71.6996 18.5 71.6996C17.4 71.6996 16.5 72.5996 16.4 73.6996L15.4 103C15.2 103.4 14.5 103.8 13.8 103.8C13.6 103.8 13.5 103.8 13.4 103.8H13.3C12.9 103.7 12.6 103.5 12.5 103.1C12.3 102.8 12.3 102.4 12.4 102C12.4 101.8 12.5 101.6 12.5 101.4L12.4 71.6996V51.2996C12.4 50.1996 11.5 49.1996 10.3 49.1996C9 49.1996 8 50.1996 8 51.2996V66.1996C8 66.6996 7.8 67.1996 7.4 67.4996C7 67.9996 6.3 68.1996 5.6 67.9996C4.7 67.7996 4.1 66.8996 4.1 65.9996V49.5996C4.1 46.3996 6.7 43.6996 10 43.6996H23.2C24.9 43.6996 26.5 44.3996 27.8 45.5996L35.3 53.0996C36.1 53.8996 37.4 53.8996 38.2 53.0996L41.9 49.3996C42.6 48.6996 43.8 48.5996 44.7 49.4996C45.1 49.8996 45.3 50.2996 45.3 50.8996C45.2 51.2996 45 51.7996 44.6 52.1996Z" fill="#333333"/>
<path d="M119.7 38.5998C125.4 38.5998 130.1 33.8998 130.1 28.1998C130.1 22.4998 125.4 17.7998 119.7 17.7998C114 17.7998 109.3 22.4998 109.3 28.1998C109.2 33.8998 113.9 38.5998 119.7 38.5998ZM119.7 21.8998C123.2 21.8998 126 24.6998 126 28.1998C126 31.6998 123.2 34.4998 119.7 34.4998C116.2 34.4998 113.4 31.6998 113.4 28.1998C113.4 24.6998 116.2 21.8998 119.7 21.8998Z" fill="#333333"/>
<path d="M128 39.5996H111.2C105.7 39.5996 101.2 44.0996 101.2 49.5996V65.9996C101.2 68.8996 103.2 71.4996 106 72.0996C106.4 72.1996 106.8 72.1996 107.3 72.1996C108 72.1996 108.7 72.0996 109.3 71.7996L109.4 101.1C108.8 103.9 110.5 106.8 113.2 107.6C113.2 107.6 113.3 107.6 113.4 107.6C115.7 108.2 118.1 107.5 119.6 105.8C120.6 107 122.3 107.8 124.2 107.8C124.8 107.8 125.4 107.7 126 107.5C128.8 106.7 130.5 103.8 129.9 101L130.2 71.6996C130.8 71.8996 131.5 71.9996 132.1 71.9996C132.5 71.9996 132.9 71.9996 133.4 71.8996C136.2 71.2996 138.2 68.7996 138.2 65.7996V49.5996C138 44.0996 133.5 39.5996 128 39.5996ZM133.9 65.9996C133.9 66.9996 133.3 67.8996 132.4 67.9996C131.7 68.0996 131.1 67.8996 130.6 67.4996C130.3 67.1996 130.2 66.8996 130.1 66.5996C130.1 66.4996 130.1 66.2996 130.1 66.1996V51.2996C130.1 50.1996 129.2 49.1996 128 49.1996C126.9 49.1996 125.9 50.0996 125.9 51.2996V66.1996C125.9 66.2996 125.9 66.4996 125.9 66.5996C125.9 66.6996 125.9 66.7996 125.9 66.8996V66.9996L125.6 101.3C125.6 101.5 125.6 101.7 125.7 101.9C125.9 102.6 125.5 103.4 124.7 103.6C123.9 103.8 122.8 103.6 122.6 103.2L121.7 73.5996C121.7 72.4996 120.8 71.5996 119.7 71.5996C118.6 71.5996 117.7 72.4996 117.6 73.5996L116.5 102.9C116.4 103.1 116.1 103.3 115.8 103.5C115.3 103.7 114.8 103.8 114.5 103.7C114.5 103.7 114.4 103.7 114.3 103.6C113.6 103.4 113.1 102.6 113.3 101.9C113.4 101.7 113.4 101.5 113.4 101.3L113.3 71.5996V66.0996V51.1996C113.3 50.0996 112.4 49.0996 111.2 49.0996C110.1 49.0996 109.1 49.9996 109.1 51.1996V66.0996C109.1 66.1996 109.1 66.3996 109.1 66.4996C109 66.8996 108.8 67.1996 108.6 67.3996C108.1 67.8996 107.4 68.0996 106.8 67.8996C105.9 67.6996 105.3 66.7996 105.3 65.8996V49.5996C105.3 46.2996 107.9 43.6996 111.2 43.6996H128C131.2 43.6996 133.9 46.3996 133.9 49.5996V65.9996Z" fill="#333333"/>
<path d="M91.3 33.0004H84.3V29.8004C84.3 28.7004 83.4 27.7004 82.2 27.7004H75.2V23.5004C75.2 22.4004 74.3 21.4004 73.1 21.4004H64C62.9 21.4004 61.9 22.3004 61.9 23.5004V27.7004H54.9C53.8 27.7004 52.8 28.6004 52.8 29.8004V48.2004C52.8 49.3004 53.7 50.3004 54.9 50.3004H64H73.1H82.2H91.3C92.4 50.3004 93.4 49.4004 93.4 48.2004V35.1004C93.4 33.9004 92.5 33.0004 91.3 33.0004ZM57 31.9004H62V46.2004H57V31.9004ZM66.1 29.8004V25.6004H71.1V29.8004V46.2004H66.1V29.8004ZM75.2 31.9004H80.2V35.1004V46.2004H75.2V31.9004ZM89.3 46.2004H84.3V37.2004H89.3V46.2004Z" fill="#333333"/>
<path d="M111.5 0H34.8C32.7 0 31 1.8 31 3.9V8.8C31 9.8 31.7 10.6 32.6 10.8V41.4C32.6 42.5 33.5 43.5 34.7 43.5C35.8 43.5 36.8 42.6 36.8 41.4V10.9H109.7V16C109.7 17.1 110.6 18.1 111.8 18.1C112.9 18.1 113.9 17.2 113.9 16V10.8C114.8 10.6 115.5 9.8 115.5 8.8V3.9C115.3 1.8 113.6 0 111.5 0ZM35.1 6.8V4.1H111.1V6.8H35.1Z" fill="#333333"/>
<path d="M97.5 62.2002H78.1H67.9H41.8C40.7 62.2002 39.7 63.1002 39.7 64.3002C39.7 65.5002 40.6 66.4002 41.8 66.4002H64.8L55 89.8002C54.6 90.8002 55.1 92.1002 56.1 92.5002C56.4 92.6002 56.6 92.7002 56.9 92.7002C57.7 92.7002 58.5 92.2002 58.8 91.4002L69.3 66.3002H76.7L87.5 91.4002C87.8 92.2002 88.6 92.6002 89.4 92.6002C89.7 92.6002 89.9 92.5002 90.2 92.4002C91.2 92.0002 91.7 90.7002 91.3 89.7002L81.2 66.3002H97.4C98.5 66.3002 99.5 65.4002 99.5 64.2002C99.5 63.0002 98.6 62.2002 97.5 62.2002Z" fill="#333333"/>
<path d="M72.3 24.0996H64.7V47.2996H72.3V24.0996Z" fill="white"/>
</g>
<defs>
<clipPath id="clip0_35_15371">
<rect width="138" height="107.9" fill="white"/>
</clipPath>
</defs>
</svg>
