<svg width="108" height="98" viewBox="0 0 108 98" fill="none" xmlns="http://www.w3.org/2000/svg">
<g clip-path="url(#clip0_35_15145)">
<path d="M38.5 12.2998C35.3 12.2998 26.3 14.7998 26.3 25.0998C26.3 35.3998 34.8 36.6998 38.5 36.6998C42.2 36.6998 50.5 32.9998 50.3 25.0998C43.1 25.0998 38.5 25.0998 38.5 25.0998V12.2998Z" fill="#01AB8D"/>
<path d="M90.2 46.6C89.1 46.6 88.1 45.7 88.1 44.5V4.8C88.1 4.4 87.8 4.1 87.4 4.1H20.2C19.8 4.1 19.5 4.4 19.5 4.8V44.6C19.5 45.7 18.6 46.7 17.4 46.7C16.3 46.7 15.3 45.8 15.3 44.6V4.8C15.3 2.2 17.4 0 20.1 0H87.4C90 0 92.2 2.1 92.2 4.8V44.6C92.3 45.7 91.4 46.6 90.2 46.6Z" fill="#333333"/>
<path d="M79.9 33.9002H63.6C62.5 33.9002 61.5 33.0002 61.5 31.8002C61.5 30.7002 62.4 29.7002 63.6 29.7002H79.9C81 29.7002 82 30.6002 82 31.8002C81.9 32.9002 81 33.9002 79.9 33.9002Z" fill="#333333"/>
<path d="M79.9001 20.4998H61.4001C60.3001 20.4998 59.3 19.5998 59.3 18.3998C59.3 17.2998 60.2001 16.2998 61.4001 16.2998H79.8001C80.9001 16.2998 81.9001 17.1998 81.9001 18.3998C81.9001 19.5998 81.0001 20.4998 79.9001 20.4998Z" fill="#333333"/>
<path d="M79.9 41.4002H58.2C57.1 41.4002 56.1 40.5002 56.1 39.3002C56.1 38.2002 57 37.2002 58.2 37.2002H79.9C81 37.2002 82 38.1002 82 39.3002C81.9 40.4002 81 41.4002 79.9 41.4002Z" fill="#333333"/>
<path d="M79.9 27.1H69C67.9 27.1 66.9 26.2 66.9 25C66.9 23.8 67.9 23 69 23H79.9C81 23 82 23.9 82 25.1C82 26.3 81 27.1 79.9 27.1Z" fill="#333333"/>
<path d="M79.9 13.9002H69C67.9 13.9002 66.9 13.0002 66.9 11.8002C66.9 10.6002 67.8 9.7002 69 9.7002H79.9C81 9.7002 82 10.6002 82 11.8002C82 13.0002 81 13.9002 79.9 13.9002Z" fill="#333333"/>
<path d="M38.5 10.1001C30.8 10.1001 24.5 16.4001 24.5 24.1001C24.5 31.8001 30.8 38.1001 38.5 38.1001C46.2 38.1001 52.5 31.8001 52.5 24.1001C52.5 16.4001 46.2 10.1001 38.5 10.1001ZM48.1 22.0001H40.5V14.4001C44.3 15.2001 47.3 18.2001 48.1 22.0001ZM38.5 34.0001C33 34.0001 28.6 29.6001 28.6 24.1001C28.6 19.3001 32 15.4001 36.4 14.4001V24.1001C36.4 25.2001 37.3 26.2001 38.5 26.2001H48.2C47.2 30.6001 43.2 34.0001 38.5 34.0001Z" fill="#333333"/>
<path d="M74.2 97.7001H33.4C34.5 89.5001 35.9 72.9001 53.9 72.8001C71.9 72.7001 74.3 95.2001 74.2 97.7001Z" fill="white"/>
<path d="M0 97.7002H4C4.2 85.2002 8.6 79.8002 13 77.1002C19.1 73.4002 24.9 73.4002 31 77.1002C31.9 77.7002 33.2 77.4002 33.7 76.4002C34.3 75.5002 34 74.3002 33 73.7002C30.8 72.4002 28.6 71.4002 26.4 70.9002C28.8 69.9002 30.8 68.0002 32.1 65.6002C32.9 64.0002 33.3 62.3002 33.3 60.5002C33.3 54.2002 28.2 49.2002 21.9 49.2002C15.6 49.2002 10.6 54.3002 10.6 60.5002C10.6 62.3002 11 64.0002 11.8 65.6002C13 68.1002 15.1 69.9002 17.5 71.0002C15.3 71.5002 13.1 72.5002 10.9 73.8002C3.6 78.3002 0.2 86.3002 0 97.7002ZM15.4 63.8002C14.9 62.8002 14.6 61.6002 14.6 60.5002C14.6 56.4002 17.9 53.1002 22 53.1002C26.1 53.1002 29.4 56.4002 29.4 60.5002C29.4 61.7002 29.1 62.8002 28.6 63.8002C27.3 66.3002 24.8 67.9002 22 67.9002C19.2 67.9002 16.7 66.4002 15.4 63.8002Z" fill="#333333"/>
<path d="M76.7 77.1001C82.8 73.4001 88.6 73.4001 94.7 77.1001C99.1 79.8001 103.6 85.2001 103.8 97.6001H107.8C107.6 86.3001 104.2 78.2001 96.8 73.7001C94.6 72.4001 92.4 71.4001 90.2 70.9001C92.6 69.9001 94.7 68.0001 95.9 65.5001C96.7 63.9001 97.1 62.2001 97.1 60.4001C97.1 54.1001 92 49.1001 85.7 49.1001C79.4 49.1001 74.3 54.2001 74.3 60.4001C74.3 62.2001 74.7 63.9001 75.5 65.5001C76.7 68.0001 78.8 69.8001 81.2 70.8001C79 71.3001 76.8 72.3001 74.6 73.6001C73.7 74.2001 73.4 75.4001 73.9 76.3001C74.6 77.4001 75.8 77.7001 76.7 77.1001ZM79.1 63.8001C78.6 62.8001 78.3 61.6001 78.3 60.5001C78.3 56.4001 81.6 53.1001 85.7 53.1001C89.8 53.1001 93.1 56.4001 93.1 60.5001C93.1 61.7001 92.8 62.8001 92.3 63.8001C91 66.3001 88.5 67.9001 85.7 67.9001C82.9 67.9001 80.4 66.4001 79.1 63.8001Z" fill="#333333"/>
<path d="M31.9 97.7003H35.9C36.1 85.2003 40.6 79.8003 45 77.2003C51.1 73.5003 56.9 73.5003 63 77.2003C67.4 79.9003 71.9 85.3003 72.1 97.7003H76.1C75.9 86.4003 72.5 78.3003 65.1 73.8003C62.9 72.5003 60.7 71.5003 58.5 71.0003C60.9 70.0003 62.9 68.1003 64.2 65.7003C65 64.1003 65.4 62.4003 65.4 60.6003C65.4 54.3003 60.3 49.3003 54 49.3003C47.7 49.3003 42.6 54.4003 42.6 60.6003C42.6 62.4003 43 64.1003 43.8 65.7003C45 68.2003 47.1 70.0003 49.5 71.1003C47.3 71.6003 45.1 72.6003 42.9 73.9003C35.4 78.3003 32 86.3003 31.9 97.7003ZM47.3 63.8003C46.8 62.8003 46.5 61.6003 46.5 60.5003C46.5 56.4003 49.8 53.1003 53.9 53.1003C58 53.1003 61.3 56.4003 61.3 60.5003C61.3 61.7003 61 62.8003 60.5 63.8003C59.2 66.3003 56.7 67.9003 53.9 67.9003C51.1 67.9003 48.5 66.4003 47.3 63.8003Z" fill="#333333"/>
</g>
<defs>
<clipPath id="clip0_35_15145">
<rect width="107.8" height="97.7" fill="white"/>
</clipPath>
</defs>
</svg>
