<svg width="135" height="97" viewBox="0 0 135 97" fill="none" xmlns="http://www.w3.org/2000/svg">
<path d="M113.631 64.5996H21.6307V69.6996H113.631V64.5996Z" fill="#D1D3D4"/>
<path d="M81.8308 29.8001H52.8308C52.8308 29.8001 57.3308 19.3001 67.5308 20.1001C77.6308 20.8001 81.8308 29.8001 81.8308 29.8001Z" fill="#01AB8D"/>
<path d="M50.8308 29.8H55.4308C56.5308 27.8 58.1308 25.2 60.3308 23.8C65.2308 20.8 69.8308 20.8 74.7308 23.8C76.9308 25.1 78.5308 27.7 79.6308 29.8H84.2308C82.7308 26.2 80.4308 22.4 76.9308 20.3C75.4308 19.4 73.9308 18.7 72.4308 18.3C74.0308 17.4 75.4308 16 76.3308 14.2C77.0308 12.8 77.3308 11.4 77.3308 9.8C77.3308 4.4 72.9308 0 67.5308 0C62.1308 0 57.7308 4.4 57.7308 9.8C57.7308 11.3 58.0308 12.8 58.7308 14.2C59.6308 16 60.9308 17.3 62.6308 18.3C61.1308 18.8 59.6308 19.4 58.2308 20.3C54.6308 22.4 52.3308 26.1 50.8308 29.8ZM62.4308 12.3C62.0308 11.5 61.8308 10.6 61.8308 9.8C61.8308 6.7 64.3308 4.2 67.4308 4.2C70.5308 4.2 73.0308 6.7 73.0308 9.8C73.0308 10.7 72.8308 11.5 72.4308 12.3C71.4308 14.2 69.5308 15.4 67.3308 15.4C65.3308 15.4 63.3308 14.2 62.4308 12.3Z" fill="#333333"/>
<path d="M36.8307 31.1C40.5307 31.1 43.9307 29 45.5307 25.7C46.2307 24.3 46.5307 22.9 46.5307 21.3C46.5307 15.9 42.1307 11.5 36.7307 11.5C31.3307 11.5 26.9307 15.9 26.9307 21.3C26.9307 22.8 27.2307 24.3 27.9307 25.7C29.7307 29 33.1307 31.1 36.8307 31.1ZM36.8307 15.7C39.9307 15.7 42.4307 18.2 42.4307 21.3C42.4307 22.2 42.2307 23 41.8307 23.8C40.8307 25.7 38.9307 26.9 36.7307 26.9C34.5307 26.9 32.6307 25.7 31.7307 23.8C31.3307 23 31.1307 22.1 31.1307 21.3C31.2307 18.2 33.7307 15.7 36.8307 15.7Z" fill="#333333"/>
<path d="M19.5307 43.6996C23.2307 43.6996 26.6307 41.5996 28.2307 38.2996C28.9307 36.8996 29.2307 35.4996 29.2307 33.8996C29.2307 28.4996 24.8307 24.0996 19.4307 24.0996C14.0307 24.0996 9.63074 28.4996 9.63074 33.8996C9.63074 35.3996 9.93074 36.8996 10.6307 38.2996C12.4307 41.5996 15.7307 43.6996 19.5307 43.6996ZM19.5307 28.1996C22.6307 28.1996 25.1307 30.6996 25.1307 33.7996C25.1307 34.6996 24.9307 35.4996 24.5307 36.2996C23.5307 38.1996 21.6307 39.3996 19.4307 39.3996C17.2307 39.3996 15.3307 38.1996 14.4307 36.2996C14.0307 35.4996 13.8307 34.5996 13.8307 33.7996C13.8307 30.7996 16.3307 28.1996 19.5307 28.1996Z" fill="#333333"/>
<path d="M133.131 55.4001C132.031 55.2001 130.931 55.9001 130.731 57.1001L128.531 69.4001C127.231 72.1001 124.531 73.8001 121.531 73.8001H109.731C108.631 73.8001 107.631 74.7001 107.631 75.9001C107.631 77.0001 108.531 78.0001 109.731 78.0001H117.331V89.0001C117.331 90.1001 118.231 91.1001 119.431 91.1001C120.531 91.1001 121.531 90.2001 121.531 89.0001V77.9001C126.231 77.9001 130.431 75.1001 132.331 70.8001C132.431 70.7001 132.431 70.5001 132.431 70.3001L134.631 57.8001C135.031 56.7001 134.231 55.6001 133.131 55.4001Z" fill="#333333"/>
<path d="M25.0307 73.7999H13.2307C10.2307 73.7999 7.53074 72.0999 6.23074 69.3999L4.13074 57.0999C3.93074 55.9999 2.83074 55.1999 1.73074 55.3999C0.63074 55.5999 -0.16926 56.6999 0.0307396 57.7999L2.23074 70.2999C2.23074 70.4999 2.33074 70.5999 2.33074 70.7999C4.23074 75.0999 8.43074 77.8999 13.1307 77.8999V88.9999C13.1307 90.0999 14.0307 91.0999 15.2307 91.0999C16.4307 91.0999 17.3307 90.1999 17.3307 88.9999V77.8999H25.0307C26.1307 77.8999 27.1307 76.9999 27.1307 75.7999C27.1307 74.6999 26.2307 73.7999 25.0307 73.7999Z" fill="#333333"/>
<path d="M98.0307 31.1C101.731 31.1 105.131 29 106.731 25.7C107.431 24.3 107.731 22.9 107.731 21.3C107.731 15.9 103.331 11.5 97.9307 11.5C92.5307 11.5 88.1307 15.9 88.1307 21.3C88.1307 22.8 88.4307 24.3 89.1307 25.7C90.9307 29 94.3307 31.1 98.0307 31.1ZM98.0307 15.7C101.131 15.7 103.631 18.2 103.631 21.3C103.631 22.2 103.431 23 103.031 23.8C102.031 25.7 100.131 26.9 98.0307 26.9C95.9307 26.9 93.9307 25.7 93.0307 23.8C92.6307 23 92.4307 22.1 92.4307 21.3C92.4307 18.2 94.9307 15.7 98.0307 15.7Z" fill="#333333"/>
<path d="M106.631 38.2996C108.331 41.5996 111.631 43.6996 115.331 43.6996C119.031 43.6996 122.431 41.5996 124.031 38.2996C124.731 36.8996 125.031 35.4996 125.031 33.8996C125.031 28.4996 120.631 24.0996 115.231 24.0996C109.831 24.0996 105.431 28.4996 105.431 33.8996C105.631 35.3996 105.931 36.8996 106.631 38.2996ZM115.431 28.1996C118.531 28.1996 121.031 30.6996 121.031 33.7996C121.031 34.6996 120.831 35.4996 120.431 36.2996C119.431 38.1996 117.531 39.3996 115.431 39.3996C113.331 39.3996 111.331 38.1996 110.431 36.2996C110.031 35.4996 109.831 34.5996 109.831 33.7996C109.731 30.7996 112.231 28.1996 115.431 28.1996Z" fill="#333333"/>
<path d="M123.131 69.4995C123.331 69.5995 123.531 69.5995 123.731 69.5995C124.631 69.5995 125.431 68.9995 125.731 68.0995C132.131 46.9995 122.531 43.2995 122.131 43.1995C121.131 42.7995 119.931 43.3995 119.531 44.3995C119.131 45.3995 119.631 46.5995 120.631 47.0995C120.731 47.0995 126.931 49.9995 121.731 66.8995C121.431 68.0995 122.031 69.1995 123.131 69.4995Z" fill="#333333"/>
<path d="M11.1307 69.6C11.3307 69.6 11.5307 69.6 11.7307 69.5C12.8307 69.2 13.4307 68 13.1307 66.9C8.03066 50.3 14.0307 47.2 14.2307 47.1C15.2307 46.7 15.8307 45.5 15.4307 44.5C15.0307 43.4 13.8307 42.9 12.8307 43.2C12.4307 43.3 2.83066 47 9.23066 68.1C9.43066 69.1 10.2307 69.6 11.1307 69.6Z" fill="#333333"/>
<path d="M96.8308 72.3H113.031C114.631 72.3 116.031 71 116.031 69.3V64C116.031 63.9 116.031 63.8 116.031 63.7V63.6C116.031 63.4 115.931 63.3 115.831 63.1C115.831 63.1 115.831 63 115.731 63C115.631 62.9 115.531 62.7 115.431 62.6L109.931 56.8L112.531 54.8C113.431 54.1 113.631 52.8 112.931 51.9C112.231 51 110.931 50.8 110.031 51.5L104.231 55.9H96.0308C95.7308 55.6 95.3308 55.2 95.3308 55C95.3308 54.7 95.7308 54.3 96.0308 54.1H102.331H103.031C103.531 54.1 103.931 53.9 104.331 53.6L108.331 50.3C109.231 49.6 109.331 48.3 108.631 47.4C107.931 46.5 106.631 46.4 105.731 47.1L102.831 49.5L97.1308 43.5L101.431 40.2C102.331 39.5 102.531 38.2 101.831 37.3C101.131 36.4 99.8308 36.2 98.9308 36.9L93.1308 41.3H84.7308C84.4308 41.2 84.1308 40.9 84.1308 40.9C84.2308 40.8 84.4308 40.7 84.6308 40.6H92.0308C92.5308 40.6 92.9308 40.4 93.3308 40.1L97.3308 36.8C98.2308 36.1 98.3308 34.8 97.6308 33.9C96.9308 33 95.6308 32.9 94.7308 33.6L91.3308 36.4H90.1308C90.0308 36.2 89.9308 36.1 89.8308 36C88.7308 34.9 87.3308 34.2 85.8308 34.1C85.7308 34.1 85.5308 34.1 85.4308 34.1H49.2308C49.1308 34.1 48.9308 34.1 48.8308 34.1C47.3308 34.2 45.8308 34.9 44.8308 36C44.7308 36.1 44.6308 36.3 44.5308 36.4H43.3308L39.9308 33.6C39.0308 32.9 37.7308 33 37.0308 33.9C36.3308 34.8 36.4308 36.1 37.3308 36.8L41.3308 40.1C41.7308 40.4 42.1308 40.6 42.6308 40.6H50.0308C50.2308 40.7 50.4308 40.8 50.5308 40.9C50.5308 41 50.2308 41.2 49.9308 41.4H41.5308L35.7308 37C34.8308 36.3 33.5308 36.5 32.8308 37.4C32.1308 38.3 32.3308 39.6 33.2308 40.3L37.6308 43.6L31.9308 49.6L28.9308 47.1C28.0308 46.4 26.7308 46.5 26.0308 47.4C25.3308 48.3 25.4308 49.6 26.3308 50.3L30.3308 53.6C30.7308 53.9 31.1308 54.1 31.6308 54.1H38.7308C39.1308 54.4 39.4308 54.8 39.4308 55C39.4308 55.3 39.1308 55.6 38.7308 55.9H30.5308L24.7308 51.5C23.8308 50.8 22.5308 51 21.8308 51.9C21.1308 52.8 21.3308 54.1 22.2308 54.8L24.9308 56.8L19.4308 62.6C19.4308 62.6 19.4308 62.6 19.4308 62.7C19.3308 62.8 19.2308 62.9 19.1308 63.1C19.1308 63.1 19.1308 63.2 19.0308 63.2C18.9308 63.4 18.9308 63.5 18.8308 63.7V63.8C18.8308 63.9 18.8308 64 18.8308 64.1V69.4C18.8308 71 20.1308 72.4 21.8308 72.4H37.8308L30.5308 93.4C30.1308 94.5 30.7308 95.6 31.8308 96C32.0308 96.1 32.3308 96.1 32.5308 96.1C33.4308 96.1 34.1308 95.6 34.4308 94.7L42.2308 72.3H92.5308L98.9308 94.6C99.2308 95.5 100.031 96.1 100.931 96.1C101.131 96.1 101.331 96.1 101.531 96C102.631 95.7 103.231 94.5 102.931 93.5L96.8308 72.3ZM28.6308 59.6C29.0308 59.9 29.4308 60 29.8308 60H39.3308C39.6308 60 40.0308 59.9 40.3308 59.8C40.6308 59.6 43.5308 58 43.5308 55C43.5308 52 40.6308 50.4 40.3308 50.2C40.0308 50 39.7308 49.9 39.3308 49.9H37.2308L41.5308 45.4H50.3308C50.5308 45.4 50.7308 45.4 50.9308 45.3C52.3308 44.9 54.6308 43.4 54.6308 40.8C54.6308 39.7 54.2308 38.9 53.6308 38.2H81.3308C80.7308 38.9 80.3308 39.8 80.3308 40.8C80.3308 43.4 82.6308 44.9 84.0308 45.3C84.2308 45.4 84.4308 45.4 84.6308 45.4H93.4308L97.7308 49.9H95.5308C95.2308 49.9 94.8308 50 94.5308 50.2C94.2308 50.4 91.3308 52 91.3308 55C91.3308 58 94.2308 59.6 94.5308 59.8C94.8308 60 95.1308 60 95.5308 60H105.031C105.431 60 105.931 59.9 106.231 59.6L106.631 59.3L109.131 62H25.8308L28.3308 59.4L28.6308 59.6ZM23.0308 66.1H111.931V68.2H23.0308V66.1Z" fill="#333333"/>
</svg>
