<svg width="89" height="112" viewBox="0 0 89 112" fill="none" xmlns="http://www.w3.org/2000/svg">
<g clip-path="url(#clip0_35_15550)">
<path d="M37.2 18.6H22.1V30.7H37.2V18.6Z" fill="#01AB8D"/>
<path d="M88.5 53.2V69.5999C88.5 72.4999 86.5 75.0999 83.7 75.6999C82.6 75.8999 81.5 75.9 80.4 75.5L80.3 104.7C80.6 106 80.4 107.4 79.7 108.6C79 109.9 77.8 110.8 76.4 111.2C74 111.9 71.6 111 70.2 109.5C69.2 110.7 67.5 111.5 65.6 111.5C65 111.5 64.4 111.4 63.8 111.3C61 110.5 59.3 107.6 59.9 104.8L59.6 75.3V61.5999C59 62.1999 58.3 62.8999 57.6 63.5999L57.2 64C55.7 65.5 53.9 66.1999 52 66.1999C49.7 66.1999 47.4 65.0999 45.4 63.0999L41 58.7C39.9 57.6 39.2 56 39.2 54.4C39.2 52.8 39.8 51.2999 41 50.0999C42.2 48.8999 43.7 48.2999 45.3 48.2999C46.9 48.2999 48.4 48.8999 49.6 50.0999L51.8 52.2999L57.8 46.2999C59.8 44.2999 62.5 43.2 65.3 43.2H78.5C84 43.2 88.5 47.7 88.5 53.2Z" fill="white"/>
<path d="M70 42.2C75.7 42.2 80.4 37.5 80.4 31.8C80.4 26.1 75.7 21.4 70 21.4C64.3 21.4 59.6 26.1 59.6 31.8C59.6 37.6 64.3 42.2 70 42.2ZM70 25.5C73.5 25.5 76.3 28.3 76.3 31.8C76.3 35.3 73.5 38.1 70 38.1C66.5 38.1 63.7 35.3 63.7 31.8C63.7 28.4 66.6 25.5 70 25.5Z" fill="#333333"/>
<path d="M78.5 43.2H65.3C62.5 43.2 59.8 44.2999 57.8 46.2999L51.8 52.2999L49.6 50.0999C48.5 48.8999 46.9 48.2999 45.3 48.2999C43.7 48.2999 42.1 49 41 50.2C39.9 51.3 39.2 52.9 39.2 54.5C39.2 56.1 39.8 57.5999 41 58.7999L45.4 63.2C47.4 65.2 49.7 66.3 52 66.3C53.9 66.3 55.7 65.4999 57.2 64.0999L57.6 63.7C58.3 63 59 62.3 59.6 61.7V75.4L59.9 104.9C59.3 107.7 61 110.6 63.8 111.4C64.4 111.6 65 111.6 65.6 111.6C67.5 111.6 69.1 110.8 70.2 109.6C71.6 111.2 74 112.1 76.4 111.3C77.8 110.9 79 110 79.7 108.7C80.4 107.5 80.6 106.1 80.3 104.8L80.4 75.5999C81.4 76 82.6 76 83.7 75.8C86.5 75.2 88.5 72.6999 88.5 69.6999V53.2C88.5 47.7 84 43.2 78.5 43.2ZM84.4 69.5999C84.4 70.5999 83.8 71.4999 82.9 71.5999C82.3 71.6999 81.6 71.4999 81.1 71.0999C80.7 70.6999 80.5 70.3 80.5 69.8V54.9C80.5 53.8 79.6 52.7999 78.4 52.7999C77.8 52.7999 77.3 53 76.9 53.4C76.5 53.8 76.3 54.3 76.3 54.9V69.8L76.2 105C76.2 105.2 76.2 105.4 76.3 105.6C76.4 106 76.4 106.3 76.2 106.7C76 107 75.7 107.3 75.3 107.4C74.6 107.6 73.5 107.2 73.2 106.7L72 77.3C72 76.2 71 75.3 69.9 75.3C68.8 75.3 67.9 76.2 67.8 77.3L66.9 106.9C66.6 107.3 65.5 107.5 64.8 107.3C64 107.1 63.6 106.3 63.8 105.6C63.8 105.4 63.9 105.2 63.9 105L63.6 75.3V56.7C63.6 55.9 63.1 55.0999 62.3 54.7999C62 54.6999 61.8 54.5999 61.5 54.5999C61 54.5999 60.5 54.8 60.1 55.2C58 57.3 56.6 58.7 54.6 60.7L54.2 61.0999C53.5 61.7999 52.8 62.0999 51.9 62.0999C50.7 62.0999 49.4 61.4 48.2 60.2L43.8 55.7999C43.4 55.4 43.2 55 43.2 54.5C43.2 54 43.4 53.4999 43.8 53.0999C44.5 52.3999 45.8 52.3999 46.5 53.0999L50.2 56.7999C51 57.5999 52.3 57.5999 53.1 56.7999L60.6 49.2999C61.8 48.0999 63.4 47.4 65.2 47.4H78.4C81.6 47.4 84.3 49.9999 84.3 53.2999V69.5999H84.4Z" fill="#333333"/>
<path d="M56.8 68.7C55.7 68.7 54.7 69.6 54.7 70.8V74C54.7 75.1 53.8 76.1 52.6 76.1H6.2C5.1 76.1 4.1 75.2 4.1 74V6.2C4.1 5 5 4.1 6.2 4.1H52.7C53.8 4.1 54.8 5 54.8 6.2V41C54.8 42.1 55.7 43.1 56.9 43.1C58.1 43.1 59 42.2 59 41V6.2C59 2.8 56.2 0 52.8 0H6.2C2.8 0 0 2.8 0 6.2V74C0 77.4 2.8 80.2 6.2 80.2H27.4V91L12.5 104.8C11.7 105.6 11.6 106.9 12.4 107.7C12.8 108.1 13.4 108.4 13.9 108.4C14.4 108.4 14.9 108.2 15.3 107.9L29.5 94.8L43.7 107.9C44.1 108.3 44.6 108.4 45.1 108.4C45.7 108.4 46.2 108.2 46.6 107.7C47.4 106.9 47.3 105.6 46.5 104.8L31.5 91V80.2H52.7C56.1 80.2 58.9 77.4 58.9 74V70.7C58.9 69.6 58 68.7 56.8 68.7Z" fill="#333333"/>
<path d="M37.6 33.8C38.7 33.8 39.7 32.9 39.7 31.7V17.5C39.7 16.4 38.8 15.4 37.6 15.4H21.3C20.2 15.4 19.2 16.3 19.2 17.5V31.8C19.2 32.9 20.1 33.9 21.3 33.9H27.4V37C24.6 37.9 22.6 40.5 22.6 43.5C22.6 46.6 24.6 49.1 27.4 50V53.5C24.6 54.4 22.6 57 22.6 60C22.6 63.8 25.7 66.9 29.5 66.9C33.3 66.9 36.4 63.8 36.4 60C36.4 56.9 34.4 54.4 31.6 53.5V50C34.4 49.1 36.4 46.5 36.4 43.5C36.4 40.4 34.4 37.8 31.6 37V33.9H37.6V33.8ZM29.4 62.7C27.9 62.7 26.6 61.5 26.6 59.9C26.6 58.4 27.8 57.1 29.4 57.1C30.9 57.1 32.2 58.3 32.2 59.9C32.2 61.5 31 62.7 29.4 62.7ZM29.4 46.2C27.9 46.2 26.6 45 26.6 43.4C26.6 41.9 27.8 40.6 29.4 40.6C30.9 40.6 32.2 41.8 32.2 43.4C32.2 45 31 46.2 29.4 46.2ZM23.3 19.5H35.5V29.6H23.3V19.5Z" fill="#333333"/>
</g>
<defs>
<clipPath id="clip0_35_15550">
<rect width="88.5" height="111.5" fill="white"/>
</clipPath>
</defs>
</svg>
