<svg width="114" height="105" viewBox="0 0 114 105" fill="none" xmlns="http://www.w3.org/2000/svg">
<g clip-path="url(#clip0_35_15116)">
<path d="M45.3 15.4V5.5L52.1 8.7L56.6 2L61.3 8.3L67.7 5.7V15.3C67.7 15.4 58.2 7.1 45.3 15.4Z" fill="#01AB8D"/>
<path d="M77.3 49.8999C75.5 45.1999 72.5 41.6999 68.1 38.9999C65.8 37.5999 63.5 36.5999 61.2 36.0999C63.7 34.9999 65.8 33.0999 67.1 30.4999C67.9 28.7999 68.4 26.9999 68.4 25.1999C68.4 18.6999 63.1 13.3999 56.6 13.3999C50.1 13.3999 44.8 18.6999 44.8 25.1999C44.8 27.0999 45.2 28.7999 46.1 30.4999C47.4 33.0999 49.5 34.9999 52 36.0999C49.7 36.6999 47.4 37.5999 45.1 38.9999C40.6 41.6999 37.7 45.1999 35.9 49.8999C35.5 50.9999 36 52.1999 37.1 52.5999C37.3 52.6999 37.6 52.6999 37.8 52.6999C38.6 52.6999 39.4 52.1999 39.7 51.3999C41.2 47.4999 43.6 44.6999 47.2 42.4999C53.6 38.5999 59.6 38.5999 66 42.4999C69.7 44.6999 72.1 47.5999 73.5 51.3999C73.9 52.4999 75.1 52.9999 76.2 52.5999C77.2 52.1999 77.7 50.9999 77.3 49.8999ZM49.6 28.6999C49.1 27.5999 48.8 26.3999 48.8 25.1999C48.8 20.9999 52.3 17.4999 56.5 17.4999C60.8 17.4999 64.2 20.9999 64.2 25.1999C64.2 26.3999 63.9 27.5999 63.4 28.6999C62.1 31.2999 59.4 32.8999 56.5 32.8999C53.6 32.8999 51 31.2999 49.6 28.6999Z" fill="#333333"/>
<path d="M68.6 3.9C68 3.5 67.2 3.5 66.6 3.8L62.1 6L58.2 0.8C58.2 0.8 58.2 0.8 58.2 0.7C58.2 0.6 58.1 0.6 58.1 0.5C58 0.4 58 0.4 57.9 0.4C57.9 0.4 57.9 0.4 57.8 0.4C57.8 0.4 57.7 0.4 57.7 0.3C57.6 0.3 57.6 0.2 57.5 0.2C57.4 0.2 57.4 0.1 57.3 0.1C57.2 0.1 57.2 0 57.1 0C57 0 57 0 56.9 0C56.8 0 56.8 0 56.7 0C56.6 0 56.6 0 56.5 0C56.4 0 56.4 0 56.3 0C56.2 0 56.2 0 56.1 0C56 0 56 0 55.9 0C55.8 0 55.8 0 55.7 0.1C55.6 0.1 55.6 0.1 55.5 0.2C55.4 0.2 55.4 0.3 55.3 0.3C55.3 0.3 55.2 0.3 55.2 0.4C55.2 0.4 55.2 0.4 55.1 0.4C55 0.4 55 0.5 54.9 0.5C55.1 0.7 55 0.7 55 0.8C55 0.8 55 0.8 55 0.9L51 6L46.5 3.8C45.9 3.5 45.1 3.5 44.5 3.9C43.9 4.3 43.5 4.9 43.5 5.6V14.5C43.5 15.6 44.4 16.6 45.6 16.6C46.8 16.6 47.7 15.7 47.7 14.5V8.9L50.7 10.4C51.6 10.8 52.7 10.6 53.2 9.8L56.5 5.5L59.8 9.8C60.4 10.6 61.5 10.8 62.3 10.4L65.3 8.9V14.5C65.3 15.6 66.2 16.6 67.4 16.6C68.5 16.6 69.5 15.7 69.5 14.5V5.7C69.5 4.9 69.2 4.3 68.6 3.9Z" fill="#333333"/>
<path d="M77.8 104.9H35.1C36.3 96.3001 37.7 78.9001 56.6 78.8001C75.5 78.6001 78 102.2 77.8 104.9Z" fill="white"/>
<path d="M0 104.9H4.2C4.4 91.7999 9.1 86.0999 13.7 83.2999C20.2 79.3999 26.2 79.3999 32.6 83.2999C33.6 83.8999 34.9 83.5999 35.5 82.5999C36.1 81.5999 35.8 80.2999 34.8 79.6999C32.5 78.2999 30.2 77.2999 27.8 76.7999C30.3 75.6999 32.5 73.7999 33.8 71.1999C34.6 69.4999 35.1 67.6999 35.1 65.7999C35.1 59.1999 29.8 53.8999 23.2 53.8999C16.6 53.8999 11.3 59.1999 11.3 65.7999C11.3 67.6999 11.7 69.4999 12.6 71.1999C13.9 73.7999 16 75.6999 18.6 76.7999C16.3 77.3999 14 78.2999 11.7 79.6999C3.7 84.4999 0.2 92.9999 0 104.9ZM16.2 69.2999C15.7 68.1999 15.4 66.9999 15.4 65.7999C15.4 61.4999 18.9 57.9999 23.2 57.9999C27.5 57.9999 31 61.4999 31 65.7999C31 66.9999 30.7 68.1999 30.2 69.2999C28.9 71.8999 26.2 73.5999 23.3 73.5999C20.1 73.5999 17.5 71.9999 16.2 69.2999Z" fill="#333333"/>
<path d="M80.5 83.3C87 79.4 93 79.4 99.4 83.3C104 86.1 108.7 91.8 108.9 104.9H113.1C112.9 93 109.4 84.5 101.6 79.8C99.3 78.4 97 77.4 94.7 76.9C97.3 75.8 99.4 73.9 100.7 71.3C101.5 69.6 102 67.8 102 65.9C102 59.3 96.7 54 90.1 54C83.5 54 78.2 59.3 78.2 65.9C78.2 67.8 78.6 69.6 79.5 71.3C80.8 73.9 82.9 75.8 85.5 76.9C83.2 77.5 80.9 78.4 78.5 79.8C77.5 80.4 77.2 81.7 77.8 82.7C78.3 83.6 79.5 83.9 80.5 83.3ZM83.1 69.3C82.6 68.2 82.3 67 82.3 65.8C82.3 61.5 85.8 58 90.1 58C94.4 58 97.9 61.5 97.9 65.8C97.9 67 97.6 68.2 97.1 69.3C95.8 71.9 93.1 73.6 90.2 73.6C87.1 73.6 84.4 72 83.1 69.3Z" fill="#333333"/>
<path d="M33.5 104.9H37.7C37.9 91.8 42.6 86.1 47.2 83.3C53.7 79.4 59.7 79.4 66.1 83.3C70.7 86.1 75.4 91.8 75.6 104.9H79.8C79.5 93 76 84.5 68.2 79.8C65.9 78.4 63.6 77.4 61.2 76.9C63.7 75.8 65.9 73.9 67.2 71.3C68 69.6 68.5 67.8 68.5 65.9C68.5 59.3 63.2 54 56.6 54C50 54 44.7 59.3 44.7 65.9C44.7 67.8 45.1 69.6 46 71.3C47.3 73.9 49.4 75.8 52 76.9C49.7 77.5 47.4 78.4 45.1 79.8C37.2 84.5 33.6 93 33.5 104.9ZM49.6 69.3C49.1 68.2 48.8 67 48.8 65.8C48.8 61.5 52.3 58 56.6 58C60.9 58 64.4 61.5 64.4 65.8C64.4 67 64.1 68.2 63.6 69.3C62.3 71.9 59.6 73.6 56.7 73.6C53.6 73.6 50.9 72 49.6 69.3Z" fill="#333333"/>
</g>
<defs>
<clipPath id="clip0_35_15116">
<rect width="113.1" height="104.9" fill="white"/>
</clipPath>
</defs>
</svg>
