<svg width="126" height="101" viewBox="0 0 126 101" fill="none" xmlns="http://www.w3.org/2000/svg">
<g clip-path="url(#clip0_35_15167)">
<path d="M63.8999 18.2998C60.4999 18.2998 50.7999 19.4998 51.3999 30.7998C51.8999 34.8998 53.8999 38.8998 55.7999 40.5998C57.6999 42.2998 58.3999 46.6998 58.3999 46.6998H68.2999C68.2999 46.6998 68.8999 41.8998 71.6999 39.6998C74.4999 37.4998 76.3999 32.1998 75.3999 28.7998C74.2999 25.3998 73.8999 18.6998 63.8999 18.2998Z" fill="#01AB8D"/>
<path d="M76 24.3001C74.1 19.3001 69.6 16.6001 63.4 16.6001H63.2C57 16.6001 52.6 19.3001 50.7 24.1001C48.2 30.4001 50.6 38.3001 53.3 40.8001C56.3 43.6001 56.5 45.1001 56.5 45.3001C56.5 45.3001 56.5 45.3001 56.5 45.4001C56.5 45.5001 56.4 45.6001 56.4 45.7001V45.8001C56.4 45.9001 56.4 46.0001 56.4 46.1001V46.2001V52.4001C56.4 52.7001 56.5 53.0001 56.6 53.2001C57.3 54.7001 59.5 57.4001 63.5 57.4001C67.5 57.4001 69.7 54.8001 70.4 53.2001C70.5 52.9001 70.6 52.7001 70.6 52.4001V46.2001C70.6 46.1001 70.6 46.1001 70.6 46.0001C70.6 45.9001 70.6 45.9001 70.6 45.8001C70.6 45.7001 70.6 45.6001 70.5 45.5001V45.4001C70.4 45.3001 70.4 45.1001 70.3 45.0001C70.3 44.7001 70.6 43.3001 73.6 40.7001C76.3 38.2001 78.2 30.2001 76 24.3001ZM63.3 53.4001C61.6 53.4001 60.7 52.5001 60.4 52.0001V48.4001H66.3V52.0001C65.9 52.5001 65 53.4001 63.3 53.4001ZM70.5 37.8001C67.8 40.2001 66.3 42.3001 65.9 44.3001H60.4C60.1 42.7001 58.9 40.5001 56 37.8001C54.6 36.5001 52.5 30.4001 54.4 25.7001C55.7 22.4001 58.6 20.8001 63.1 20.8001H63.3C67.8 20.8001 70.8 22.5001 72 25.9001C73.8 30.3001 72 36.4001 70.5 37.8001Z" fill="#333333"/>
<path d="M63.2999 13.3C62.1999 13.3 61.2 12.4 61.2 11.2V2.1C61.2 1 62.0999 0 63.2999 0C64.3999 0 65.4 0.9 65.4 2.1V11.3C65.4 12.4 64.4999 13.3 63.2999 13.3Z" fill="#333333"/>
<path d="M90.4 31.7H81.2C80.1 31.7 79.1 30.8 79.1 29.6C79.1 28.4 80 27.5 81.2 27.5H90.4C91.5 27.5 92.5 28.4 92.5 29.6C92.5 30.8 91.6 31.7 90.4 31.7Z" fill="#333333"/>
<path d="M45.4 31.7H36.2C35.1 31.7 34.1 30.8 34.1 29.6C34.1 28.4 35 27.5 36.2 27.5H45.4C46.5 27.5 47.5 28.4 47.5 29.6C47.5 30.8 46.6 31.7 45.4 31.7Z" fill="#333333"/>
<path d="M49.3 19.8C48.8 19.8 48.2 19.6 47.8 19.2L41.1 12.5C40.3 11.7 40.3 10.4 41.1 9.6C41.9 8.8 43.2 8.8 44 9.6L50.7 16.3C51.5 17.1 51.5 18.4 50.7 19.2C50.4 19.6 49.8 19.8 49.3 19.8Z" fill="#333333"/>
<path d="M77.3999 19.8C76.8999 19.8 76.2999 19.6 75.8999 19.2C75.0999 18.4 75.0999 17.1 75.8999 16.3L82.5999 9.6C83.3999 8.8 84.6999 8.8 85.4999 9.6C86.2999 10.4 86.2999 11.7 85.4999 12.5L78.7999 19.2C78.3999 19.6 77.8999 19.8 77.3999 19.8Z" fill="#333333"/>
<path d="M16.7 37.7C11 37.7 6.39996 33.1 6.39996 27.4C6.39996 21.7 11 17 16.7 17C22.4 17 27 21.7 27 27.4C27 33.1 22.4 37.7 16.7 37.7ZM16.7 21.1C13.3 21.1 10.5 23.9 10.5 27.3C10.5 30.7 13.3 33.5 16.7 33.5C20.1 33.5 22.9 30.7 22.9 27.3C22.9 23.9 20.1 21.1 16.7 21.1Z" fill="#333333"/>
<path d="M35.8 101C32.6 101 29.9 98.5999 29.4 95.3999L27.6 82.1999H14.5C10.9 82.1999 7.99996 79.2999 7.99996 75.6999L7.89996 74.0999V47.0999C7.89996 42.5999 11.6 38.8999 16.1 38.8999H16.3C16.9 38.8999 22.3 39.1999 23.9 42.9999L31.2 50.2999H41.1C44.1 50.2999 46.6 52.7999 46.6 55.7999C46.6 58.8999 44.1 61.3999 41.1 61.3999H27.4C26.9 61.3999 26.3 61.1999 25.9 60.7999L24.3 59.1999V69.2999H35.3C37.4 69.2999 39.2 70.8999 39.5 72.9999L42.3 93.6999C42.8 97.1999 40.3 100.4 36.8 100.9C36.4 101 36.1 101 35.8 101ZM16.1 43.0999C13.8 43.0999 12 44.8999 12 47.1999V74.0999L12.1 75.5999C12.1 75.5999 12.1 75.6999 12.1 75.7999C12.1 77.0999 13.2 78.1999 14.5 78.1999H29.5C30.5 78.1999 31.4 78.9999 31.5 79.9999L33.5 94.8999C33.7 96.0999 34.8 96.9999 36.1 96.8999C37.4 96.6999 38.3 95.5999 38.2 94.2999L35.4 73.5999L35.3 73.4999H22.3C21.2 73.4999 20.2 72.5999 20.2 71.3999V54.2999C20.2 53.4999 20.7 52.6999 21.5 52.3999C22.3 52.0999 23.2 52.2999 23.7 52.7999L28.2 57.2999H41C41.8 57.2999 42.4 56.6999 42.4 55.8999C42.4 55.0999 41.8 54.3999 41 54.3999H30.3C29.8 54.3999 29.2 54.1999 28.8 53.7999L20.6 45.5999C20.3 45.2999 20.2 44.9999 20.1 44.6999C19.8 43.7999 17.6 43.1999 16.1 43.0999Z" fill="#333333"/>
<path d="M108.5 37.7C102.8 37.7 98.2 33.1 98.2 27.4C98.2 21.7 102.8 17 108.5 17C114.2 17 118.8 21.6 118.8 27.3C118.8 33 114.2 37.7 108.5 37.7ZM108.5 21.1C105.1 21.1 102.3 23.9 102.3 27.3C102.3 30.7 105.1 33.5 108.5 33.5C111.9 33.5 114.7 30.7 114.7 27.3C114.8 23.9 112 21.1 108.5 21.1Z" fill="#333333"/>
<path d="M89.4 101C89.1 101 88.8 101 88.5 100.9C84.9 100.4 82.4 97.2 82.9 93.7L85.7 73C86 70.9 87.8 69.3 89.9 69.3H100.9V59.1L99.3 60.7C98.9 61.1 98.4 61.3 97.8 61.3H84.1C81.1 61.3 78.6 58.8 78.6 55.8C78.6 52.7 81.1 50.2 84.1 50.2H94.1L101.4 42.9C103 39.2 109 39 109 39C113.6 39 117.3 42.7 117.3 47.2V74.1L117.2 75.9C117.2 79.4 114.3 82.3 110.7 82.3H97.5L95.7 95.5C95.3 98.6 92.6 101 89.4 101ZM89.9 73.5C89.8 73.5 89.8 73.6 89.8 73.6L87 94.2C86.8 95.5 87.7 96.6 89 96.8C89.2 96.8 89.3 96.8 89.4 96.8C90.5 96.8 91.5 95.9 91.7 94.8L93.7 79.9C93.8 78.9 94.7 78.1 95.7 78.1H110.7C112 78.1 113.1 77 113.1 75.7C113.1 75.7 113.1 75.6 113.1 75.5L113.2 73.8V47.1C113.2 44.9 111.4 43 109.1 43C107.6 43 105.3 43.7 105.1 44.5C105 44.8 104.8 45.2 104.6 45.4L96.4 53.6C96 54 95.5 54.2 94.9 54.2H84.1C83.3 54.2 82.7 54.8 82.7 55.6C82.7 56.4 83.3 57.1 84.1 57.1H97L101.5 52.6C102.1 52 103 51.8 103.7 52.2C104.5 52.5 105 53.3 105 54.1V71.4C105 72.5 104.1 73.5 102.9 73.5H89.9Z" fill="#333333"/>
<path d="M85.1 68.2H41.5C40.4 68.2 39.4 67.3 39.4 66.1C39.4 65 40.3 64 41.5 64H85.1C86.2 64 87.2 64.9 87.2 66.1C87.2 67.3 86.3 68.2 85.1 68.2Z" fill="#333333"/>
<path d="M63.2999 101C62.1999 101 61.2 100.1 61.2 98.9V66.1C61.2 65 62.0999 64 63.2999 64C64.3999 64 65.4 64.9 65.4 66.1V98.9C65.4 100.1 64.4999 101 63.2999 101Z" fill="#333333"/>
<path d="M123.6 65.3C122.5 65.1 121.4 65.8 121.2 67L119 79.2C117.7 81.9 115 83.6 112 83.6H100.2C99.1 83.6 98.1 84.5 98.1 85.7C98.1 86.8 99 87.8 100.2 87.8H107.8V99C107.8 100.1 108.7 101.1 109.9 101.1C111 101.1 112 100.2 112 99V87.8C116.7 87.8 120.9 85 122.8 80.7C122.9 80.6 122.9 80.4 122.9 80.2L125.1 67.7C125.4 66.6 124.7 65.5 123.6 65.3Z" fill="#333333"/>
<path d="M25 83.5998H13.2C10.2 83.5998 7.49998 81.8998 6.19998 79.1998L4.09998 65.4998C3.89998 64.3998 2.89998 63.5998 1.69998 63.7998C0.599978 63.8998 -0.200022 64.9998 -2.21655e-05 66.0998L2.19998 80.1998C2.19998 80.3998 2.29998 80.4998 2.29998 80.6998C4.19998 84.9998 8.39998 87.7998 13.1 87.7998V98.9998C13.1 100.1 14 101.1 15.2 101.1C16.3 101.1 17.3 100.2 17.3 98.9998V87.7998H25C26.1 87.7998 27.1 86.8998 27.1 85.6998C27.1 84.5998 26.2 83.5998 25 83.5998Z" fill="#333333"/>
</g>
<defs>
<clipPath id="clip0_35_15167">
<rect width="125.3" height="101" fill="white"/>
</clipPath>
</defs>
</svg>
