<svg width="112" height="109" viewBox="0 0 112 109" fill="none" xmlns="http://www.w3.org/2000/svg">
<g clip-path="url(#clip0_35_15127)">
<path d="M108.5 89.5H54.2V105.4H108.5V89.5Z" fill="white"/>
<path d="M44.1 46.0998L32 35.5998V19.7998C26.7 20.0998 15.3 22.0998 15.3 36.2998C15.3 50.4998 33.7 56.6998 44.1 46.0998Z" fill="#01AB8D"/>
<path d="M89.5 0H4C1.8 0 0 1.8 0 3.9V8.8C0 9.6 0.4 10.3 1.1 10.6V60.4C1.1 62.6 2.9 64.3 5 64.3L57.7 64.1C58.8 64.1 59.8 63.2 59.8 62C59.8 60.9 58.9 59.9 57.7 59.9L5.2 60.3V10.9H88.2V42.3C88.2 43.4 89.1 44.4 90.3 44.4C91.4 44.4 92.4 43.5 92.4 42.3V10.7C93 10.4 93.5 9.7 93.5 8.9V3.9C93.4 1.8 91.7 0 89.5 0ZM4.1 6.8V4.1H89.3V6.8H4.1Z" fill="#333333"/>
<path d="M111.3 87.9V87.8V87.7C111.3 87.6 111.3 87.5 111.2 87.4L105.8 75.1C104.7 73 102.6 71.7 100.2 71.7H78.5L76.7 67.7C76.4 67 75.6 66.5 74.8 66.5H67.5C66.7 66.5 66 66.9 65.7 67.6L63.5 71.7H62C59.6 71.7 57.4 73.1 56.3 75.4L51.4 87.5V87.6C51.4 87.7 51.3 87.8 51.3 87.8C51.3 87.9 51.3 88 51.3 88.1V88.2V103C51.3 106 53.7 108.4 56.7 108.4H105.9C108.9 108.4 111.3 106 111.3 103V88.2C111.3 88.1 111.3 88 111.3 87.9ZM68.7 70.6H73.5L74 71.7H68.2L68.7 70.6ZM60.1 77C60.4 76.3 61.2 75.8 62 75.8H77.2H100.2C101 75.8 101.7 76.2 102 76.9L106.1 86.2H56.4L60.1 77ZM107.2 103.1C107.2 103.8 106.6 104.4 105.9 104.4H56.7C56 104.4 55.4 103.8 55.4 103.1V90.3H107.2V103.1Z" fill="#333333"/>
<path d="M89.5 82.4002H73.1C72 82.4002 71 81.5002 71 80.3002C71 79.2002 71.9 78.2002 73.1 78.2002H89.5C90.6 78.2002 91.6 79.1002 91.6 80.3002C91.5 81.4002 90.6 82.4002 89.5 82.4002Z" fill="#333333"/>
<path d="M65.8 64.2C65.2 64.2 64.7 64 64.3 63.5L53.1 50.9C52.3 50 52.4 48.7 53.3 48C54.2 47.2 55.5 47.3 56.2 48.2L67.3 60.8C68.1 61.7 68 63 67.1 63.7C66.7 64 66.3 64.2 65.8 64.2Z" fill="#333333"/>
<path d="M76.8 64.1999C76.3 64.1999 75.8 63.9999 75.4 63.6999C74.5 62.8999 74.5 61.5999 75.2 60.7999L86.3 48.1999C87 47.2999 88.4 47.2999 89.2 47.9999C90.1 48.7999 90.1 50.0999 89.4 50.8999L78.3 63.4999C77.9 63.9999 77.3 64.1999 76.8 64.1999Z" fill="#333333"/>
<path d="M71 64.6001C69.9 64.6001 68.9 63.7001 68.9 62.5001V47.7001C68.9 46.6001 69.8 45.6001 71 45.6001C72.1 45.6001 73.1 46.5001 73.1 47.7001V62.6001C73 63.7001 72.1 64.6001 71 64.6001Z" fill="#333333"/>
<path d="M45.8 47.2998C48.4 44.0998 50 39.9998 50 35.5998C50 25.4998 41.8 17.2998 31.7 17.2998C21.6 17.2998 13.4 25.4998 13.4 35.5998C13.4 45.6998 21.6 53.8998 31.7 53.8998C37.3 53.8998 42.2 51.3998 45.6 47.4998C45.6 47.3998 45.7 47.3998 45.8 47.2998C45.7 47.2998 45.7 47.2998 45.8 47.2998ZM45.9 35.5998C45.9 38.2998 45.1 40.8998 43.8 42.9998L33.8 34.5998V21.5998C40.6 22.5998 45.9 28.4998 45.9 35.5998ZM17.5 35.5998C17.5 28.4998 22.8 22.5998 29.6 21.5998V35.5998C29.6 36.1998 29.9 36.7998 30.3 37.1998L41 46.1998C38.5 48.3998 35.2 49.7998 31.6 49.7998C23.9 49.7998 17.5 43.3998 17.5 35.5998Z" fill="#333333"/>
<path d="M79.5 23.9002H54.8C53.7 23.9002 52.7 23.0002 52.7 21.8002C52.7 20.6002 53.6 19.7002 54.8 19.7002H79.5C80.6 19.7002 81.6 20.6002 81.6 21.8002C81.6 23.0002 80.6 23.9002 79.5 23.9002Z" fill="#333333"/>
</g>
<defs>
<clipPath id="clip0_35_15127">
<rect width="111.3" height="108.5" fill="white"/>
</clipPath>
</defs>
</svg>
