<svg width="108" height="119" viewBox="0 0 108 119" fill="none" xmlns="http://www.w3.org/2000/svg">
<g clip-path="url(#clip0_35_15032)">
<path d="M74.2 118.1H33.4C34.5 109.9 35.9 93.2996 53.9 93.1996C71.9 93.0996 74.3 115.6 74.2 118.1Z" fill="#01AB8D"/>
<path d="M0 118.099H4C4.2 105.599 8.7 100.199 13.1 97.5992C19.2 93.8992 25 93.8992 31.1 97.5992C32 98.1992 33.3 97.8992 33.8 96.8992C34.4 95.9992 34.1 94.7992 33.1 94.1992C30.9 92.8992 28.7 91.8992 26.5 91.3992C28.9 90.3992 30.9 88.4992 32.2 86.0992C33 84.4992 33.4 82.7992 33.4 80.9992C33.4 74.6992 28.3 69.6992 22 69.6992C15.7 69.6992 10.6 74.7992 10.6 80.9992C10.6 82.7992 11 84.4992 11.8 86.0992C13 88.5992 15.1 90.3992 17.5 91.4992C15.3 91.9992 13.1 92.9992 10.9 94.2992C3.6 98.6992 0.2 106.799 0 118.099ZM15.4 84.2992C14.9 83.2992 14.6 82.0992 14.6 80.9992C14.6 76.8992 17.9 73.5992 22 73.5992C26.1 73.5992 29.4 76.8992 29.4 80.9992C29.4 82.1992 29.1 83.2992 28.6 84.2992C27.3 86.7992 24.8 88.3992 22 88.3992C19.2 88.2992 16.7 86.7992 15.4 84.2992Z" fill="#333333"/>
<path d="M76.7 97.5996C82.8 93.8996 88.6 93.8996 94.7 97.5996C99.1 100.3 103.6 105.7 103.8 118.1H107.8C107.6 106.8 104.2 98.6996 96.8 94.1996C94.6 92.8996 92.4 91.8996 90.2 91.3996C92.6 90.3996 94.7 88.4996 95.9 85.9996C96.7 84.3996 97.1 82.6996 97.1 80.8996C97.1 74.5996 92 69.5996 85.7 69.5996C79.4 69.5996 74.3 74.6996 74.3 80.8996C74.3 82.6996 74.7 84.3996 75.5 85.9996C76.7 88.4996 78.8 90.2996 81.2 91.2996C79 91.7996 76.8 92.7996 74.6 94.0996C73.7 94.6996 73.4 95.8996 73.9 96.7996C74.6 97.7996 75.8 98.0996 76.7 97.5996ZM79.1 84.2996C78.6 83.2996 78.3 82.0996 78.3 80.9996C78.3 76.8996 81.6 73.5996 85.7 73.5996C89.8 73.5996 93.1 76.8996 93.1 80.9996C93.1 82.1996 92.8 83.2996 92.3 84.2996C91 86.7996 88.5 88.3996 85.7 88.3996C82.9 88.2996 80.4 86.7996 79.1 84.2996Z" fill="#333333"/>
<path d="M31.9 118.099H35.9C36.1 105.599 40.6 100.199 45 97.5992C51.1 93.8992 56.9 93.8992 63 97.5992C67.4 100.299 71.9 105.699 72.1 118.099H76.1C75.9 106.799 72.5 98.6992 65.1 94.1992C62.9 92.8992 60.7 91.8992 58.5 91.3992C60.9 90.3992 62.9 88.4992 64.2 86.0992C65 84.4992 65.4 82.7992 65.4 80.9992C65.4 74.6992 60.3 69.6992 54 69.6992C47.7 69.6992 42.6 74.7992 42.6 80.9992C42.6 82.7992 43 84.4992 43.8 86.0992C45 88.5992 47.1 90.3992 49.5 91.4992C47.3 91.9992 45.1 92.9992 42.9 94.2992C35.4 98.6992 32 106.799 31.9 118.099ZM47.3 84.2992C46.8 83.2992 46.5 82.0992 46.5 80.9992C46.5 76.8992 49.8 73.5992 53.9 73.5992C58 73.5992 61.3 76.8992 61.3 80.9992C61.3 82.1992 61 83.2992 60.5 84.2992C59.2 86.7992 56.7 88.3992 53.9 88.3992C51.1 88.2992 48.5 86.7992 47.3 84.2992Z" fill="#333333"/>
<path d="M53.5 17.9C52.4 17.9 51.4 17 51.4 15.8V2.1C51.4 1 52.3 0 53.5 0C54.6 0 55.6 0.9 55.6 2.1V15.9C55.6 17 54.7 17.9 53.5 17.9Z" fill="#333333"/>
<path d="M85.8 36.9002H72C70.9 36.9002 69.9 36.0002 69.9 34.8002C69.9 33.7002 70.8 32.7002 72 32.7002H85.8C86.9 32.7002 87.9 33.6002 87.9 34.8002C87.8 36.0002 86.9 36.9002 85.8 36.9002Z" fill="#333333"/>
<path d="M35 36.9002H21.3C20.2 36.9002 19.2 36.0002 19.2 34.8002C19.2 33.7002 20.1 32.7002 21.3 32.7002H35C36.1 32.7002 37.1 33.6002 37.1 34.8002C37.1 36.0002 36.2 36.9002 35 36.9002Z" fill="#333333"/>
<path d="M39 24.5998C38.5 24.5998 37.9 24.3998 37.5 23.9998L27.8 14.2998C27 13.4998 27 12.1998 27.8 11.3998C28.6 10.5998 29.9 10.5998 30.7 11.3998L40.4 21.0998C41.2 21.8998 41.2 23.1998 40.4 23.9998C40.1 24.3998 39.6 24.5998 39 24.5998Z" fill="#333333"/>
<path d="M68 24.5998C67.5 24.5998 66.9 24.3998 66.5 23.9998C65.7 23.1998 65.7 21.8998 66.5 21.0998L76.2 11.3998C77 10.5998 78.3 10.5998 79.1 11.3998C79.9 12.1998 79.9 13.4998 79.1 14.2998L69.5 23.9998C69.1 24.3998 68.6 24.5998 68 24.5998Z" fill="#333333"/>
<path d="M63.2 43.8998C62.7 42.7998 62 41.9998 61.2 41.3998C60.4 40.7998 59.4 40.2998 58.4 39.9998C57.4 39.6998 56.4 39.3998 55.3 39.1998C54.2 38.8998 53.1 38.6998 52.1 38.3998C51.1 38.0998 50.3 37.6998 49.7 37.0998C49.1 36.4998 48.8 35.5998 48.8 34.3998C48.8 32.7998 49.3 31.6998 50.2 30.8998C51.1 30.0998 52.6 29.6998 54.5 29.6998C55.9 29.6998 57.4 30.0998 58.9 30.7998C59.9 31.2998 61.1 31.0998 61.7 30.1998C62.5 29.0998 62.1 27.4998 60.8 26.8998C60.1 26.5998 59.5 26.2998 58.8 26.0998C57.9 25.7998 56.9 25.5998 55.9 25.4998V23.9998C55.9 22.7998 54.9 21.7998 53.7 21.7998C52.5 21.7998 51.5 22.7998 51.5 23.9998V25.4998C49.5 25.7998 47.8 26.4998 46.6 27.5998C44.9 29.1998 44.1 31.4998 44.1 34.5998C44.1 36.3998 44.4 37.7998 44.9 38.8998C45.5 39.9998 46.2 40.7998 47.1 41.2998C48 41.8998 49 42.2998 50.2 42.4998C51.3 42.7998 52.4 42.9998 53.5 43.1998C54.5 43.3998 55.5 43.5998 56.4 43.8998C57.3 44.1998 58 44.5998 58.5 45.1998C59 45.7998 59.3 46.6998 59.3 47.7998C59.3 49.3998 58.8 50.5998 57.8 51.3998C56.5 52.3998 54.3 52.7998 51.3 52.4998C49.8 52.2998 48.5 51.4998 47.4 50.4998C46.5 49.6998 45 49.7998 44.2 50.7998C43.4 51.7998 43.6 53.1998 44.6 53.9998C45 54.2998 45.5 54.5998 45.9 54.8998C47 55.5998 48.1 56.0998 49.4 56.3998C50.1 56.5998 50.8 56.6998 51.6 56.7998V58.1998C51.6 59.3998 52.6 60.3998 53.8 60.3998C55 60.3998 56 59.3998 56 58.1998V56.6998C58.3 56.3998 60 55.6998 61.3 54.5998C63.1 53.0998 63.9 50.7998 63.9 47.7998C64 46.2998 63.7 44.8998 63.2 43.8998Z" fill="#333333"/>
</g>
<defs>
<clipPath id="clip0_35_15032">
<rect width="107.8" height="118.1" fill="white"/>
</clipPath>
</defs>
</svg>
