<svg width="53" height="124" viewBox="0 0 53 124" fill="none" xmlns="http://www.w3.org/2000/svg">
<g clip-path="url(#clip0_35_15364)">
<path d="M47 95.4004H2.79999V121.7H47V95.4004Z" fill="#01AB8D"/>
<path d="M24 22.4002C30.1 22.4002 35.1 17.4002 35.1 11.3002C35.1 5.2002 30.1 0.200195 24 0.200195C17.9 0.200195 12.9 5.2002 12.9 11.3002C12.8 17.4002 17.8 22.4002 24 22.4002ZM24 4.3002C27.9 4.3002 31 7.4002 31 11.3002C31 15.2002 27.9 18.3002 24 18.3002C20.1 18.3002 17 15.2002 17 11.3002C17 7.4002 20.1 4.3002 24 4.3002Z" fill="#333333"/>
<path d="M36.8 38.3999C38.7 35.0999 49.8 16.2999 50.8 14.6999C52.3 12.2999 52.6 9.19994 52.6 4.09994C52.6 1.69994 51.4 0.699942 50.6 0.399942C48.1 -0.800058 44.8 1.49994 43.5 2.49994C43.3 2.59994 43.1 2.79994 43 2.99994L30.7 23.2999H19.8C13.9 23.2999 5.7 29.5999 5.7 35.6999V56.5999C5.7 59.6999 7.8 62.4999 10.8 63.0999C11.3 63.1999 11.7 63.1999 12.2 63.1999C13 63.1999 13.8 62.9999 14.6 62.6999L14.9 89.6999C14.7 90.6999 14.7 91.7999 15 92.6999H6.2C2.8 92.6999 0 95.4999 0 98.8999V121.6C0 122.7 0.9 123.7 2.1 123.7H47.3C48.4 123.7 49.4 122.8 49.4 121.6V99.0999C49.4 95.6999 46.6 92.8999 43.2 92.8999H36.7C37 91.8999 37.1 90.8999 36.8 89.8999L37 51.9999V38.3999H36.8ZM45.2 99.0999V119.8H4.2V99.0999C4.2 97.8999 5.2 96.9999 6.3 96.9999H43C44.2 96.9999 45.2 97.8999 45.2 99.0999ZM11.7 59.0999C10.6 58.8999 9.9 57.7999 9.9 56.5999V35.6999C9.9 32.0999 16.1 27.3999 19.9 27.3999H32C32.1 27.3999 32.2 27.3999 32.3 27.3999H32.4C32.5 27.3999 32.6 27.3999 32.6 27.2999C32.7 27.2999 32.7 27.2999 32.8 27.1999C32.9 27.1999 32.9 27.0999 33 27.0999C33.1 27.0999 33.1 26.9999 33.2 26.9999C33.3 26.9999 33.3 26.8999 33.4 26.8999C33.5 26.8999 33.5 26.7999 33.6 26.7999L33.7 26.6999C33.8 26.5999 33.8 26.5999 33.9 26.4999L46.3 5.49994C47 4.99994 47.9 4.49994 48.5 4.29994C48.5 8.99994 48.2 11.0999 47.3 12.4999C46.2 14.2999 33.4 35.8999 32.9 36.7999C32.9 36.8999 32.8 36.8999 32.8 36.9999C32.8 36.9999 32.8 36.9999 32.8 37.0999C32.8 37.1999 32.7 37.2999 32.7 37.3999C32.7 37.3999 32.7 37.3999 32.7 37.4999C32.7 37.5999 32.7 37.6999 32.7 37.8999V37.9999V38.0999V52.0999L32.5 90.2999C32.5 90.4999 32.5 90.6999 32.6 90.8999C32.7 91.2999 32.7 91.7999 32.5 92.1999C32.3 92.5999 31.9 92.8999 31.4 92.9999C30.9 93.0999 30.3 93.0999 29.7 92.7999C29.3 92.5999 29 92.3999 28.9 92.0999L27.8 61.7999C27.8 60.6999 26.8 59.7999 25.7 59.7999C24.6 59.7999 23.7 60.6999 23.6 61.7999L22.6 92.2999C22.2 92.8999 20.9 93.0999 20.1 92.8999C19.2 92.5999 18.7 91.6999 18.9 90.7999C19 90.5999 19 90.3999 19 90.1999L18.7 57.9999V52.0999V37.7999C18.7 36.6999 17.8 35.6999 16.6 35.6999C15.4 35.6999 14.5 36.5999 14.5 37.7999V51.8999V57.3999C14.4 57.7999 14.2 58.1999 13.9 58.3999C13.3 58.9999 12.5 59.2999 11.7 59.0999Z" fill="#333333"/>
</g>
<defs>
<clipPath id="clip0_35_15364">
<rect width="52.6" height="123.9" fill="white"/>
</clipPath>
</defs>
</svg>
