<svg width="68" height="130" viewBox="0 0 68 130" fill="none" xmlns="http://www.w3.org/2000/svg">
<g clip-path="url(#clip0_35_15387)">
<path d="M58.4 58.5996H9.5V65.1996H58.4V58.5996Z" fill="#01AB8D"/>
<path d="M47.5 80H21V121.9H47.5V80Z" fill="#01AB8D"/>
<path d="M59.5 45C57.4 38.6 53.8 34 48 30.5C44.8 28.6 41.7 27.3 38.5 26.8C42 25.7 45 23.3 46.7 19.9C47.7 18 48.2 15.9 48.2 13.7C48.2 6.1 42 0 34.5 0C26.9 0 20.8 6.1 20.8 13.7C20.8 15.9 21.3 17.9 22.3 19.9C24 23.3 27 25.8 30.5 26.8C27.3 27.4 24.2 28.6 21.1 30.5C15.5 33.9 11.9 38.4 9.79999 44.6C9.39999 45.7 9.99999 46.8 11.1 47.2C12.2 47.6 13.3 47 13.7 45.9C15.5 40.6 18.4 36.9 23.3 34C31.1 29.3 38.3 29.3 46.1 34C51 37 54 40.8 55.8 46.3C56.1 47.2 56.9 47.7 57.8 47.7C58 47.7 58.2 47.7 58.4 47.6C59.3 47.3 59.9 46.1 59.5 45ZM25.9 18C25.2 16.6 24.9 15.2 24.9 13.7C24.9 8.4 29.2 4.1 34.5 4.1C39.8 4.1 44.1 8.4 44.1 13.7C44.1 15.2 43.8 16.7 43.1 18C41.5 21.3 38.2 23.3 34.5 23.3C30.8 23.3 27.5 21.3 25.9 18Z" fill="#333333"/>
<path d="M64 50H3.9C1.8 50 0 51.7 0 53.9V70C0 72.2 1.8 73.9 3.9 73.9H7.7V77.6C7.7 79.1 8.3 80.5 9.4 81.5C10.3 82.4 11.8 84.2 11.8 86V111.4C11.8 112.5 11.3 115.6 9.6 116.9C8.4 117.9 7.7 119.2 7.7 120.7V127C7.7 128.1 8.6 129.1 9.8 129.1C11 129.1 11.9 128.2 11.9 127V120.7C11.9 120.5 12.2 120.2 12.2 120.2C15.6 117.5 15.9 112.2 16 111.5V86.1C16 82.9 14 80.3 12.3 78.6C12 78.3 11.9 78 11.9 77.6V73.9H57.4V77.6C57.4 78 57.2 78.3 57 78.6C55.3 80.2 53.3 82.9 53.3 86.1V111.7C53.3 112.3 53.6 117.6 57.1 120.3C57.2 120.4 57.4 120.6 57.4 120.8V127.2C57.4 128.3 58.3 129.3 59.5 129.3C60.6 129.3 61.6 128.4 61.6 127.2V120.8C61.6 119.4 60.9 118 59.7 117C58.1 115.7 57.6 112.6 57.5 111.6V86.1C57.5 84.2 59 82.5 59.9 81.6C61 80.5 61.6 79.1 61.6 77.7V74H64C66.2 74 67.9 72.2 67.9 70.1V53.9C67.9 51.7 66.2 50 64 50ZM63.8 69.8H4.1V54.1H63.8V69.8Z" fill="#333333"/>
<path d="M47.4 124.1H21.1C20 124.1 19 123.2 19 122V80.0004C19 78.9004 19.9 77.9004 21.1 77.9004H47.3C48.4 77.9004 49.4 78.8004 49.4 80.0004V122C49.4 123.2 48.5 124.1 47.4 124.1ZM23.2 120H45.3V82.1004H23.2V120Z" fill="#333333"/>
<path d="M58.5 67.2H9.00002C7.90002 67.2 6.90002 66.3 6.90002 65.1V58.6C6.90002 57.5 7.80002 56.5 9.00002 56.5H58.5C59.6 56.5 60.6 57.4 60.6 58.6V65.1C60.5 66.3 59.6 67.2 58.5 67.2ZM11 63.1H56.4V60.7H11V63.1Z" fill="#333333"/>
<path d="M38.1 35H31.2C30.1 35 29.1 35.9 29.1 37.1C29.1 38.2 30 39.2 31.2 39.2H32.4V47.9C32.4 49 33.3 50 34.5 50C35.6 50 36.6 49.1 36.6 47.9V39.2H38.2C39.3 39.2 40.3 38.3 40.3 37.1C40.2 35.9 39.2 35 38.1 35Z" fill="#333333"/>
</g>
<defs>
<clipPath id="clip0_35_15387">
<rect width="67.9" height="129.2" fill="white"/>
</clipPath>
</defs>
</svg>
