<svg width="125" height="108" viewBox="0 0 125 108" fill="none" xmlns="http://www.w3.org/2000/svg">
<g clip-path="url(#clip0_35_15009)">
<path d="M77.7 107.8H46.5C47.7 99.8996 49 89.1996 62.1 89.0996C75.2 89.0996 77.9 103.5 77.7 107.8Z" fill="#01AB8D"/>
<path d="M44.6 107.8H48.7C48.8 98.3 52.1 95 55.4 93C59.9 90.2 64.2 90.2 68.7 93C72 95 75.3 98.3 75.4 107.8H79.5C79.4 98.7 76.7 93.1 70.8 89.5C69.5 88.7 68.2 88.1 66.9 87.7C68.3 86.8 69.5 85.5 70.3 84C71 82.7 71.3 81.3 71.3 79.8C71.3 74.7 67.1 70.5 62 70.5C56.9 70.5 52.7 74.7 52.7 79.8C52.7 81.3 53 82.7 53.7 84C54.5 85.6 55.7 86.9 57.1 87.7C55.8 88.1 54.5 88.7 53.2 89.5C47.4 93.1 44.7 98.8 44.6 107.8ZM56.9 79.8C56.9 77 59.2 74.7 62 74.7C64.8 74.7 67.2 77 67.2 79.8C67.2 80.6 67 81.4 66.7 82.1C65.8 83.9 64.1 84.9 62.1 84.9C60.1 84.9 58.4 83.8 57.5 82.1C57.1 81.4 56.9 80.6 56.9 79.8Z" fill="#333333"/>
<path d="M122.3 78.6009H91C92.2 70.7009 93.5 60.0009 106.6 59.9009C119.7 59.8009 122.5 74.3009 122.3 78.6009Z" fill="white"/>
<path d="M89.1 78.6008H93.2C93.3 69.1008 96.6 65.8008 99.9 63.8008C104.4 61.0008 108.7 61.0008 113.2 63.8008C116.5 65.8008 119.8 69.1008 119.9 78.6008H124C123.9 69.5008 121.2 63.9008 115.3 60.3008C114 59.5008 112.7 58.9008 111.4 58.5008C112.8 57.6008 114 56.3008 114.8 54.8008C115.5 53.5008 115.8 52.1008 115.8 50.6008C115.8 45.5008 111.6 41.3008 106.5 41.3008C101.4 41.3008 97.2 45.5008 97.2 50.6008C97.2 52.1008 97.5 53.5008 98.2 54.8008C99 56.4008 100.2 57.7008 101.6 58.5008C100.3 58.9008 99 59.5008 97.7 60.3008C91.9 63.9008 89.2 69.5008 89.1 78.6008ZM101.4 50.6008C101.4 47.8008 103.7 45.5008 106.5 45.5008C109.3 45.5008 111.7 47.8008 111.7 50.6008C111.7 51.4008 111.5 52.2008 111.2 52.9008C110.3 54.7008 108.6 55.7008 106.6 55.7008C104.6 55.7008 102.9 54.6008 102 52.9008C101.6 52.1008 101.4 51.4008 101.4 50.6008Z" fill="#333333"/>
<path d="M77.7 37.7H46.5C47.7 29.8 49 19.1 62.1 19C75.2 19 77.9 33.4 77.7 37.7Z" fill="#01AB8D"/>
<path d="M44.6 37.7004H48.7C48.8 28.2004 52.1 24.9004 55.4 22.9004C59.9 20.1004 64.2 20.1004 68.7 22.9004C72 24.9004 75.3 28.2004 75.4 37.7004H79.5C79.4 28.6004 76.7 23.0004 70.8 19.4004C69.5 18.6004 68.2 18.0004 66.9 17.6004C68.3 16.7004 69.5 15.4004 70.3 13.9004C71 12.6004 71.3 11.2004 71.3 9.70039C71.3 4.60039 67.2 0.400391 62 0.400391C56.9 0.400391 52.7 4.60039 52.7 9.70039C52.7 11.2004 53 12.6004 53.7 13.9004C54.5 15.5004 55.7 16.8004 57.1 17.6004C55.8 18.0004 54.5 18.6004 53.2 19.4004C47.4 23.0004 44.7 28.7004 44.6 37.7004ZM56.9 9.70039C56.9 6.90039 59.2 4.60039 62 4.60039C64.8 4.60039 67.2 6.90039 67.2 9.70039C67.2 10.5004 67 11.3004 66.7 12.0004C65.8 13.8004 64.1 14.8004 62.1 14.8004C60.1 14.8004 58.4 13.7004 57.5 12.0004C57.1 11.3004 56.9 10.5004 56.9 9.70039Z" fill="#333333"/>
<path d="M33.2 78.6009H1.89999C3.09999 70.7009 4.39999 60.0009 17.5 59.9009C30.6 59.8009 33.3 74.3009 33.2 78.6009Z" fill="white"/>
<path d="M0 78.6008H4.1C4.2 69.1008 7.5 65.8008 10.8 63.8008C15.3 61.0008 19.6 61.0008 24.1 63.8008C27.4 65.8008 30.7 69.1008 30.8 78.6008H35C34.9 69.5008 32.2 63.9008 26.3 60.3008C25 59.5008 23.7 58.9008 22.4 58.5008C23.8 57.6008 25 56.3008 25.8 54.8008C26.5 53.5008 26.8 52.1008 26.8 50.6008C26.8 45.5008 22.6 41.3008 17.5 41.3008C12.4 41.3008 8.2 45.5008 8.2 50.6008C8.2 52.1008 8.5 53.5008 9.2 54.8008C10 56.4008 11.2 57.7008 12.6 58.5008C11.3 58.9008 10 59.5008 8.7 60.3008C2.8 63.9008 0.1 69.5008 0 78.6008ZM12.3 50.6008C12.3 47.8008 14.6 45.5008 17.4 45.5008C20.2 45.5008 22.6 47.8008 22.6 50.6008C22.6 51.4008 22.4 52.2008 22.1 52.9008C21.2 54.7008 19.5 55.7008 17.5 55.7008C15.5 55.7008 13.8 54.6008 12.9 52.9008C12.5 52.1008 12.3 51.4008 12.3 50.6008Z" fill="#333333"/>
<path d="M94.6 40.9008C94.1 40.9008 93.5 40.7008 93.1 40.3008L82.7 29.8008C81.9 29.0008 81.9 27.7008 82.7 26.9008C83.5 26.1008 84.8 26.1008 85.6 26.9008L96.1 37.4008C96.9 38.2008 96.9 39.5008 96.1 40.3008C95.7 40.7008 95.2 40.9008 94.6 40.9008Z" fill="#333333"/>
<path d="M29.5 40.9004C29 40.9004 28.4 40.7004 28 40.3004C27.2 39.5004 27.2 38.2004 28 37.4004L38.4 27.0004C39.2 26.2004 40.5 26.2004 41.3 27.0004C42.1 27.8004 42.1 29.1004 41.3 29.9004L30.9 40.3004C30.5 40.7004 30 40.9004 29.5 40.9004Z" fill="#333333"/>
<path d="M84.2 98C83.7 98 83.1 97.8 82.7 97.4C81.9 96.6 81.9 95.3 82.7 94.5L93.1 84.1C93.9 83.3 95.2 83.3 96 84.1C96.8 84.9 96.8 86.2 96 87L85.7 97.4C85.2 97.8 84.7 98 84.2 98Z" fill="#333333"/>
<path d="M39.9 98C39.4 98 38.8 97.8 38.4 97.4L28 87C27.2 86.2 27.2 84.9 28 84.1C28.8 83.3 30.1 83.3 30.9 84.1L41.3 94.5C42.1 95.3 42.1 96.6 41.3 97.4C41 97.8 40.4 98 39.9 98Z" fill="#333333"/>
</g>
<defs>
<clipPath id="clip0_35_15009">
<rect width="124.1" height="107.4" fill="white" transform="translate(0 0.400391)"/>
</clipPath>
</defs>
</svg>
