<svg width="118" height="125" viewBox="0 0 118 125" fill="none" xmlns="http://www.w3.org/2000/svg">
<path d="M77.3001 66.3994V82.7994C77.3001 85.6994 75.3 88.2994 72.5 88.8994C72.1 88.9994 71.7 88.9994 71.2 88.9994C70.5 88.9994 69.9001 88.8994 69.3001 88.6994L69 117.899C69.6 120.699 67.9 123.599 65.1 124.399C64.5 124.599 63.9 124.599 63.3 124.599C61.4 124.599 59.7001 123.799 58.7001 122.599C58.2001 123.199 57.6 123.699 56.8 123.999C55.4 124.599 53.9 124.799 52.5 124.399C52.5 124.399 52.4 124.399 52.3 124.299C51 123.899 49.8 122.999 49.1 121.699C48.4 120.499 48.2 119.099 48.5 117.799L48.4001 88.4994C47.7001 88.6994 47.1001 88.8994 46.4001 88.8994C46.0001 88.8994 45.6 88.8994 45.1 88.7994C42.3 88.1994 40.3 85.6994 40.3 82.6994V66.3994C40.3 60.8994 44.8 56.3994 50.3 56.3994H67.1C72.8 56.3994 77.3001 60.8994 77.3001 66.3994Z" fill="#01AB8D"/>
<path d="M58.9 55.3996C64.6 55.3996 69.3 50.6996 69.3 44.9996C69.3 39.2996 64.6 34.5996 58.9 34.5996C53.2 34.5996 48.5 39.2996 48.5 44.9996C48.5 50.6996 53.2 55.3996 58.9 55.3996ZM58.9 38.6996C62.4 38.6996 65.2 41.4996 65.2 44.9996C65.2 48.4996 62.4 51.2996 58.9 51.2996C55.4 51.2996 52.6 48.4996 52.6 44.9996C52.6 41.4996 55.5 38.6996 58.9 38.6996Z" fill="#333333"/>
<path d="M67.3 56.3994H50.5C45 56.3994 40.5 60.8994 40.5 66.3994V82.7994C40.5 85.6994 42.5 88.2994 45.3 88.8994C45.7 88.9994 46.2 88.9994 46.6 88.9994C47.3 88.9994 48 88.8994 48.6 88.5994L48.7 117.899C48.4 119.199 48.6 120.599 49.3 121.799C50 123.099 51.2 123.999 52.5 124.399C52.5 124.399 52.6 124.399 52.7 124.499C54.1 124.899 55.6 124.799 57 124.099C57.7 123.799 58.4 123.299 58.9 122.699C59.9 123.899 61.6 124.699 63.5 124.699C64.1 124.699 64.7 124.599 65.3 124.499C68.1 123.699 69.8 120.799 69.2 117.999L69.5 88.7994C70.1 88.9994 70.8 89.0994 71.4 89.0994C71.8 89.0994 72.2 89.0994 72.7 88.9994C75.5 88.3994 77.5 85.8994 77.5 82.8994V66.3994C77.3 60.8994 72.8 56.3994 67.3 56.3994ZM73.2 82.7994C73.2 83.7994 72.5 84.6994 71.7 84.7994C71 84.8994 70.4 84.6994 69.9 84.2994C69.6 84.0994 69.5 83.6994 69.4 83.3994C69.4 83.2994 69.4 83.0994 69.4 82.9994V68.0994C69.4 66.9994 68.5 65.9994 67.3 65.9994C66.7 65.9994 66.2 66.1994 65.8 66.5994C65.4 66.9994 65.2 67.4994 65.2 68.0994V82.9994C65.2 83.0994 65.2 83.2994 65.2 83.3994C65.2 83.4994 65.2 83.5994 65.2 83.5994V83.6994L64.9 117.999C64.9 118.199 64.9 118.399 65 118.599C65.2 119.299 64.8 120.099 64.1 120.299C63.3 120.499 62.2 120.299 61.9 119.899L61 90.2994C61 89.1994 60.1 88.2994 59 88.2994C57.9 88.2994 57 89.1994 56.9 90.2994L55.8 119.599C55.7 119.799 55.4 119.999 55.1 120.199C54.7 120.399 54.1 120.499 53.8 120.399C53.8 120.399 53.7 120.399 53.6 120.299C53.2 120.199 52.9 119.999 52.8 119.599C52.6 119.299 52.6 118.899 52.7 118.499C52.7 118.299 52.8 118.099 52.8 117.899L52.7 88.1994V82.6994V67.7994C52.7 66.6994 51.8 65.6994 50.6 65.6994C49.5 65.6994 48.6 66.5994 48.6 67.7994V82.6994C48.6 82.7994 48.6 82.9994 48.6 83.0994C48.5 83.4994 48.3 83.7994 48.1 83.9994C47.6 84.4994 46.9 84.6994 46.3 84.4994C45.4 84.2994 44.8 83.3994 44.8 82.4994V66.3994C44.8 63.1994 47.4 60.4994 50.7 60.4994H67.5C70.7 60.4994 73.4 63.1994 73.4 66.3994V82.7994H73.2Z" fill="#333333"/>
<path d="M50.7 10.6C51.2 10.6 51.6 10.4 52 10.1L56.8 6.2V27.1C56.8 28.2 57.7 29.2 58.9 29.2C60.1 29.2 61 28.3 61 27.1V6.2L65.8 10.1C66.2 10.4 66.6 10.6 67.1 10.6C67.7 10.6 68.3 10.3 68.7 9.8C69.4 8.9 69.3 7.6 68.4 6.9L60.2 0.3C60.1 0.3 60.1 0.2 60 0.2C60 0.2 59.9 0.2 59.9 0.1H59.8C59.7 0.1 59.7 0.1 59.6 0H59.5H59.4C59.3 0 59.3 0 59.2 0H59.1H59H58.9H58.8H58.7H58.6C58.5 0 58.5 0 58.4 0H58.3H58.2C58.1 0 58.1 7.45058e-09 58 0.1H57.9C57.9 0.1 57.8 0.1 57.8 0.2C57.7 0.2 57.7 0.3 57.6 0.3L49.4 6.9C48.5 7.6 48.4 8.9 49.1 9.8C49.5 10.3 50.1 10.6 50.7 10.6Z" fill="#333333"/>
<path d="M117.5 62.6C117.5 62.6 117.5 62.5 117.6 62.5V62.4C117.6 62.3 117.7 62.3 117.7 62.2V62.1V62C117.7 61.9 117.7 61.9 117.7 61.8V61.7V61.6V61.5V61.4V61.3V61.2C117.7 61.1 117.7 61.1 117.7 61V60.9V60.8C117.7 60.7 117.7 60.7 117.6 60.6V60.5C117.6 60.5 117.6 60.4 117.5 60.4C117.5 60.3 117.4 60.3 117.4 60.2C117.4 60.2 117.4 60.2 117.4 60.1L110.8 51.9C110.1 51 108.8 50.9 107.9 51.6C107 52.3 106.9 53.6 107.6 54.5L111.5 59.3H90.6C89.5 59.3 88.5 60.2 88.5 61.4C88.5 62.5 89.4 63.5 90.6 63.5H111.5L107.6 68.3C106.9 69.2 107 70.5 107.9 71.2C108.3 71.5 108.7 71.7 109.2 71.7C109.8 71.7 110.4 71.4 110.8 70.9L117.4 62.7C117.4 62.7 117.4 62.7 117.4 62.6C117.4 62.7 117.5 62.6 117.5 62.6Z" fill="#333333"/>
<path d="M27.2 59.5002H6.4L10.3 54.7002C11 53.8002 10.9 52.5002 10 51.8002C9.1 51.1002 7.8 51.2002 7.1 52.1002L0.5 60.3002C0.5 60.3002 0.5 60.3002 0.5 60.4002C0.5 60.5002 0.4 60.5002 0.4 60.6002C0.4 60.6002 0.4 60.7002 0.3 60.7002V60.8002C0.3 60.9002 0.2 60.9002 0.2 61.0002V61.1002V61.2002C0.2 61.3002 0.2 61.3002 0.2 61.4002V61.5002V61.6002V61.7002V61.8002V61.9002C0 61.8002 0 61.8002 0 61.8002C0 61.9002 0 61.9002 0 62.0002V62.1002V62.2002C0 62.3002 0 62.3002 0.1 62.4002V62.5002C0.1 62.5002 0.1 62.6002 0.2 62.6002C0.2 62.7002 0.3 62.7002 0.3 62.8002C0.3 62.8002 0.3 62.8002 0.3 62.9002L6.9 71.1002C7.3 71.6002 7.9 71.9002 8.5 71.9002C9 71.9002 9.4 71.7002 9.8 71.4002C10.7 70.7002 10.8 69.4002 10.1 68.5002L6.2 63.7002H27.1C28.2 63.7002 29.2 62.8002 29.2 61.6002C29.3 60.4002 28.4 59.5002 27.2 59.5002Z" fill="#333333"/>
<path d="M19.9999 20.9003L26.1999 20.2003C27.2999 20.1003 28.1999 19.1003 27.9999 17.9003C27.8999 16.8003 26.8999 15.9003 25.6999 16.1003L15.1999 17.2003C15.0999 17.2003 14.8999 17.2003 14.7999 17.3003H14.6999H14.5999C14.4999 17.3003 14.4999 17.3003 14.3999 17.4003C14.2999 17.4003 14.2999 17.5003 14.1999 17.5003C14.0999 17.5003 14.0999 17.6003 13.9999 17.6003L13.8999 17.7003L13.7999 17.8003C13.7999 17.9003 13.6999 17.9003 13.6999 18.0003L13.5999 18.1003C13.5999 18.2003 13.5999 18.2003 13.4999 18.3003V18.4003V18.5003C13.4999 18.6003 13.4999 18.7003 13.3999 18.8003V18.9003L12.2999 29.4003C12.1999 30.5003 12.9999 31.5003 14.0999 31.7003C14.1999 31.7003 14.1999 31.7003 14.2999 31.7003C15.2999 31.7003 16.1999 30.9003 16.2999 29.9003L16.9999 23.7003L31.6999 38.4003C32.0999 38.8003 32.5999 39.0003 33.1999 39.0003C33.6999 39.0003 34.2999 38.8003 34.6999 38.4003C35.4999 37.6003 35.4999 36.3003 34.6999 35.5003L19.9999 20.9003Z" fill="#333333"/>
<path d="M101.4 29.9998C101.5 31.0998 102.4 31.7998 103.4 31.7998C103.5 31.7998 103.5 31.7998 103.6 31.7998C104.7 31.6998 105.6 30.6998 105.4 29.4998L104.3 18.9998V18.8998C104.3 18.7998 104.3 18.6998 104.2 18.5998V18.4998V18.3998C104.2 18.2998 104.2 18.2998 104.1 18.1998C104.1 18.0998 104 18.0998 104 17.9998L103.9 17.8998L103.8 17.7998L103.7 17.6998C103.6 17.5998 103.6 17.5998 103.5 17.5998L103.4 17.4998C103.3 17.4998 103.3 17.3998 103.2 17.3998H103.1C103.1 17.3998 103.1 17.3998 103 17.3998C102.9 17.3998 102.7 17.2998 102.6 17.2998L92.1 16.1998C91 16.0998 90 16.8998 89.8 17.9998C89.7 19.0998 90.5 20.0998 91.6 20.2998L97.8 20.9998L83.1 35.6998C82.3 36.4998 82.3 37.7998 83.1 38.5998C83.5 38.9998 84 39.1998 84.6 39.1998C85.1 39.1998 85.7 38.9998 86.1 38.5998L100.7 23.7998L101.4 29.9998Z" fill="#333333"/>
</svg>
