<svg width="108" height="98" viewBox="0 0 108 98" fill="none" xmlns="http://www.w3.org/2000/svg">
<g clip-path="url(#clip0_35_15528)">
<path d="M38.5 12.3C35.3 12.3 26.3 14.8 26.3 25.1C26.3 35.4 34.8 36.7001 38.5 36.7001C42.2 36.7001 50.5 33 50.3 25.1C43.1 25.1 38.5 25.1 38.5 25.1V12.3Z" fill="#01AB8D"/>
<path d="M90.2 46.6C89.1 46.6 88.1 45.7 88.1 44.5V4.8C88.1 4.4 87.8 4.1 87.4 4.1H20.2C19.8 4.1 19.5 4.4 19.5 4.8V44.6C19.5 45.7 18.6 46.7 17.4 46.7C16.3 46.7 15.3 45.8 15.3 44.6V4.8C15.3 2.2 17.4 0 20.1 0H87.4C90 0 92.2 2.1 92.2 4.8V44.6C92.3 45.7 91.4 46.6 90.2 46.6Z" fill="#333333"/>
<path d="M79.9 33.9H63.6C62.5 33.9 61.5 32.9999 61.5 31.7999C61.5 30.6999 62.4 29.7 63.6 29.7H79.9C81 29.7 82 30.5999 82 31.7999C81.9 32.8999 81 33.9 79.9 33.9Z" fill="#333333"/>
<path d="M79.9 20.5H61.4C60.3 20.5 59.3 19.6 59.3 18.4C59.3 17.3 60.2 16.3 61.4 16.3H79.8C80.9 16.3 81.9 17.2 81.9 18.4C81.9 19.6 81 20.5 79.9 20.5Z" fill="#333333"/>
<path d="M79.9 41.4H58.2C57.1 41.4 56.1 40.4999 56.1 39.2999C56.1 38.1999 57 37.2 58.2 37.2H79.9C81 37.2 82 38.0999 82 39.2999C81.9 40.3999 81 41.4 79.9 41.4Z" fill="#333333"/>
<path d="M79.9 27.1H69C67.9 27.1 66.9 26.2 66.9 25C66.9 23.8 67.9 23 69 23H79.9C81 23 82 23.9 82 25.1C82 26.3 81 27.1 79.9 27.1Z" fill="#333333"/>
<path d="M79.9 13.9H69C67.9 13.9 66.9 13 66.9 11.8C66.9 10.6 67.8 9.69995 69 9.69995H79.9C81 9.69995 82 10.6 82 11.8C82 13 81 13.9 79.9 13.9Z" fill="#333333"/>
<path d="M38.5 10.1C30.8 10.1 24.5 16.4 24.5 24.1C24.5 31.8 30.8 38.1 38.5 38.1C46.2 38.1 52.5 31.8 52.5 24.1C52.5 16.4 46.2 10.1 38.5 10.1ZM48.1 22H40.5V14.4C44.3 15.2 47.3 18.2 48.1 22ZM38.5 34C33 34 28.6 29.6 28.6 24.1C28.6 19.3 32 15.4 36.4 14.4V24.1C36.4 25.2 37.3 26.2 38.5 26.2H48.2C47.2 30.6 43.2 34 38.5 34Z" fill="#333333"/>
<path d="M74.2 97.7H33.4C34.5 89.5 35.9 72.9 53.9 72.8C71.9 72.7 74.3 95.2 74.2 97.7Z" fill="white"/>
<path d="M0 97.6999H4C4.2 85.1999 8.6 79.7999 13 77.0999C19.1 73.3999 24.9 73.3999 31 77.0999C31.9 77.6999 33.2 77.4 33.7 76.4C34.3 75.5 34 74.2999 33 73.6999C30.8 72.3999 28.6 71.4 26.4 70.9C28.8 69.9 30.8 67.9999 32.1 65.5999C32.9 63.9999 33.3 62.3 33.3 60.5C33.3 54.2 28.2 49.2 21.9 49.2C15.6 49.2 10.6 54.3 10.6 60.5C10.6 62.3 11 63.9999 11.8 65.5999C13 68.0999 15.1 69.9 17.5 71C15.3 71.5 13.1 72.5 10.9 73.8C3.6 78.3 0.2 86.2999 0 97.6999ZM15.4 63.7999C14.9 62.7999 14.6 61.6 14.6 60.5C14.6 56.4 17.9 53.0999 22 53.0999C26.1 53.0999 29.4 56.4 29.4 60.5C29.4 61.7 29.1 62.7999 28.6 63.7999C27.3 66.2999 24.8 67.9 22 67.9C19.2 67.9 16.7 66.4 15.4 63.7999Z" fill="#333333"/>
<path d="M76.7 77.1C82.8 73.4 88.6 73.4 94.7 77.1C99.1 79.8 103.6 85.2 103.8 97.6H107.8C107.6 86.3 104.2 78.2 96.8 73.7C94.6 72.4 92.4 71.4 90.2 70.9C92.6 69.9 94.7 68 95.9 65.5C96.7 63.9 97.1 62.2 97.1 60.4C97.1 54.1 92 49.1 85.7 49.1C79.4 49.1 74.3 54.2 74.3 60.4C74.3 62.2 74.7 63.9 75.5 65.5C76.7 68 78.8 69.8 81.2 70.8C79 71.3 76.8 72.3 74.6 73.6C73.7 74.2 73.4 75.4 73.9 76.3C74.6 77.4 75.8 77.7 76.7 77.1ZM79.1 63.8C78.6 62.8 78.3 61.6 78.3 60.5C78.3 56.4 81.6 53.1 85.7 53.1C89.8 53.1 93.1 56.4 93.1 60.5C93.1 61.7 92.8 62.8 92.3 63.8C91 66.3 88.5 67.9 85.7 67.9C82.9 67.9 80.4 66.4 79.1 63.8Z" fill="#333333"/>
<path d="M31.9 97.6999H35.9C36.1 85.1999 40.6 79.7999 45 77.1999C51.1 73.4999 56.9 73.4999 63 77.1999C67.4 79.8999 71.9 85.2999 72.1 97.6999H76.1C75.9 86.3999 72.5 78.2999 65.1 73.7999C62.9 72.4999 60.7 71.4999 58.5 70.9999C60.9 69.9999 62.9 68.0999 64.2 65.6999C65 64.0999 65.4 62.3999 65.4 60.5999C65.4 54.2999 60.3 49.2999 54 49.2999C47.7 49.2999 42.6 54.3999 42.6 60.5999C42.6 62.3999 43 64.0999 43.8 65.6999C45 68.1999 47.1 69.9999 49.5 71.0999C47.3 71.5999 45.1 72.5999 42.9 73.8999C35.4 78.2999 32 86.2999 31.9 97.6999ZM47.3 63.7999C46.8 62.7999 46.5 61.5999 46.5 60.4999C46.5 56.3999 49.8 53.0999 53.9 53.0999C58 53.0999 61.3 56.3999 61.3 60.4999C61.3 61.6999 61 62.7999 60.5 63.7999C59.2 66.2999 56.7 67.8999 53.9 67.8999C51.1 67.8999 48.5 66.3999 47.3 63.7999Z" fill="#333333"/>
</g>
<defs>
<clipPath id="clip0_35_15528">
<rect width="107.8" height="97.7" fill="white"/>
</clipPath>
</defs>
</svg>
