<svg width="107" height="112" viewBox="0 0 107 112" fill="none" xmlns="http://www.w3.org/2000/svg">
<g clip-path="url(#clip0_35_15200)">
<path d="M101 0H100.8L46.6 4.8C43.7 4.9 41.3 7 41.3 9.6V43.5C41.3 46.2 43.7 48.3 46.7 48.3H50.5V55.5C50.5 56.2 50.9 56.9 51.6 57.3C51.9 57.5 52.3 57.6 52.6 57.6C53 57.6 53.4 57.5 53.7 57.3L68.3 48.3L101.2 43.6C104.1 43.5 106.4 41.4 106.4 38.8V4.8C106.4 2.2 104 0 101 0ZM72.5 25.3C72.5 24.5 73.1 23.9 73.9 23.9C74.7 23.9 75.3 24.5 75.3 25.3C75.3 26.1 74.7 26.7 73.9 26.7C73.1 26.7 72.5 26.1 72.5 25.3ZM84.7 25.3C84.7 24.5 85.3 23.9 86.1 23.9C86.9 23.9 87.5 24.5 87.5 25.3C87.5 26.1 86.9 26.7 86.1 26.7C85.3 26.7 84.7 26.1 84.7 25.3ZM61.7 26.7C60.9 26.7 60.3 26.1 60.3 25.3C60.3 24.5 60.9 23.9 61.7 23.9C62.5 23.9 63.1 24.5 63.1 25.3C63.1 26.1 62.4 26.7 61.7 26.7Z" fill="#01AB8D"/>
<path d="M62.5 109C61.2 96.2999 56.3 87.7999 47.1 82.1999C42.8 79.5999 38.5 77.9999 34.2 77.4999C39 76.5999 43.1 73.4999 45.4 68.9999C46.5 66.7999 47.1 64.3999 47.1 61.7999C47.1 52.9999 39.9 45.8999 31.2 45.8999C22.4 45.8999 15.3 52.9999 15.3 61.7999C15.3 64.2999 15.9 66.6999 17 68.9999C19.2 73.4999 23.4 76.5999 28.2 77.4999C23.9 77.9999 19.7 79.5999 15.3 82.1999C6.39999 87.5999 1.59999 95.5999 -1.08872e-05 107.4C-0.100011 108.5 0.599989 109.6 1.79999 109.7C2.89999 109.9 3.99999 109.1 4.09999 107.9C5.89999 94.2999 12.2 88.8999 17.4 85.6999C26.7 80.0999 35.7 80.0999 44.9 85.6999C50.4 88.9999 56.8 94.6999 58.4 109.4C58.5 110.5 59.4 111.2 60.4 111.2C60.5 111.2 60.5 111.2 60.6 111.2C61.8 111.1 62.6 110.1 62.5 109ZM31.1 73.6999C26.6 73.6999 22.6 71.1999 20.6 67.1999C19.8 65.4999 19.3 63.6999 19.3 61.8999C19.3 55.3999 24.6 50.0999 31.1 50.0999C37.6 50.0999 42.9 55.3999 42.9 61.8999C42.9 63.7999 42.5 65.5999 41.7 67.1999C39.7 71.1999 35.6 73.6999 31.1 73.6999Z" fill="#333333"/>
<path d="M101 0H100.8L46.6 4.8C43.7 4.9 41.3 7 41.3 9.6V43.5C41.3 46.2 43.7 48.3 46.7 48.3H50.5V55.5C50.5 56.2 50.9 56.9 51.6 57.3C51.9 57.5 52.3 57.6 52.6 57.6C53 57.6 53.4 57.5 53.7 57.3L68.3 48.3L101.2 43.6C104.1 43.5 106.4 41.4 106.4 38.8V4.8C106.4 2.2 104 0 101 0ZM102.3 38.7C102.3 39 101.8 39.4 101 39.4C100.9 39.4 100.8 39.4 100.7 39.4L67.2 44.2C66.9 44.2 66.7 44.3 66.4 44.5L54.6 51.8V46.3C54.6 45.2 53.7 44.2 52.5 44.2H46.7C45.9 44.2 45.4 43.8 45.4 43.5V9.6C45.4 9.3 45.9 8.9 46.7 8.9C46.8 8.9 46.8 8.9 46.9 8.9L101.1 4.1C101.8 4.1 102.3 4.5 102.3 4.8V38.7Z" fill="#333333"/>
<path d="M73.9 19.7998C70.9 19.7998 68.4 22.2998 68.4 25.2998C68.4 28.2998 70.9 30.7998 73.9 30.7998C77 30.7998 79.4 28.2998 79.4 25.2998C79.4 22.1998 76.9 19.7998 73.9 19.7998ZM73.9 26.6998C73.1 26.6998 72.5 26.0998 72.5 25.2998C72.5 24.4998 73.1 23.8998 73.9 23.8998C74.7 23.8998 75.3 24.4998 75.3 25.2998C75.3 26.0998 74.6 26.6998 73.9 26.6998Z" fill="#333333"/>
<path d="M86.1 19.7998C83.1 19.7998 80.6 22.2998 80.6 25.2998C80.6 28.2998 83.1 30.7998 86.1 30.7998C89.1 30.7998 91.6 28.2998 91.6 25.2998C91.6 22.1998 89.1 19.7998 86.1 19.7998ZM86.1 26.6998C85.3 26.6998 84.7 26.0998 84.7 25.2998C84.7 24.4998 85.3 23.8998 86.1 23.8998C86.9 23.8998 87.5 24.4998 87.5 25.2998C87.5 26.0998 86.8 26.6998 86.1 26.6998Z" fill="#333333"/>
<path d="M61.7 19.7998C58.7 19.7998 56.2 22.2998 56.2 25.2998C56.2 28.2998 58.7 30.7998 61.7 30.7998C64.8 30.7998 67.2 28.2998 67.2 25.2998C67.2 22.1998 64.7 19.7998 61.7 19.7998ZM61.7 26.6998C60.9 26.6998 60.3 26.0998 60.3 25.2998C60.3 24.4998 60.9 23.8998 61.7 23.8998C62.5 23.8998 63.1 24.4998 63.1 25.2998C63.1 26.0998 62.4 26.6998 61.7 26.6998Z" fill="#333333"/>
</g>
<defs>
<clipPath id="clip0_35_15200">
<rect width="106.4" height="111.2" fill="white"/>
</clipPath>
</defs>
</svg>
