<svg width="119" height="122" viewBox="0 0 119 122" fill="none" xmlns="http://www.w3.org/2000/svg">
<path d="M58.0083 55.1004C56.6083 55.3004 55.3083 55.7004 54.1083 56.4004C52.9083 57.1004 52.0083 58.4004 51.8083 59.7004C51.6083 61.2004 52.1083 62.7004 52.7083 64.1004C53.4083 65.9004 54.1083 67.7004 54.8083 69.4004C55.4083 71.0004 56.1083 72.6004 57.5083 73.5004C58.6083 74.2004 60.0083 74.4004 61.3083 74.3004C61.5083 74.3004 61.8083 74.2004 62.0083 74.1004C62.1083 74.0004 62.3083 73.8004 62.4083 73.7004C63.2083 72.5004 63.9083 71.4004 64.7083 70.2004C65.2083 69.4004 65.8083 68.6004 66.2083 67.8004C66.8083 66.5004 67.1083 65.2004 67.4083 63.8004C67.6083 62.5004 67.7083 61.2004 67.4083 59.9004C66.9083 58.1004 65.4083 56.6004 63.7083 55.8004C61.9083 55.0004 59.9083 54.9004 58.0083 55.1004Z" fill="#01AB8D"/>
<path d="M59.7084 53.0996C53.8084 53.0996 51.6084 56.4996 50.8084 58.4996C49.2084 62.5996 50.5084 68.1996 52.7084 70.2996C54.1084 71.5996 54.5084 72.3996 54.6084 72.6996V72.7996C54.6084 72.8996 54.5084 72.9996 54.5084 72.9996C54.5084 73.0996 54.5084 73.0996 54.5084 73.1996C54.5084 73.2996 54.5084 73.2996 54.5084 73.3996V77.4996C54.5084 77.7996 54.6084 78.0996 54.7084 78.2996C55.2084 79.4996 56.9084 81.4996 59.9084 81.4996C62.9084 81.4996 64.6084 79.4996 65.1084 78.2996C65.2084 77.9996 65.3084 77.7996 65.3084 77.4996V73.3996C65.3084 73.2996 65.3084 73.2996 65.3084 73.1996C65.3084 73.0996 65.3084 73.0996 65.3084 72.9996C65.3084 72.8996 65.3084 72.8996 65.2084 72.7996C65.2084 72.6996 65.2084 72.5996 65.1084 72.5996C65.2084 72.2996 65.6084 71.5996 67.0084 70.3996C69.2084 68.3996 70.6084 62.8996 69.0084 58.6996C68.0084 56.5996 65.8084 53.0996 59.7084 53.0996ZM61.0084 76.9996C60.8084 77.1996 60.4084 77.4996 59.7084 77.4996C59.0084 77.4996 58.6084 77.1996 58.4084 76.9996V75.5996H61.0084V76.9996ZM64.1084 67.2996C62.4084 68.7996 61.4084 70.0996 61.0084 71.3996H58.5084C58.1084 70.2996 57.3084 68.8996 55.5084 67.2996C54.8084 66.5996 53.5084 62.8996 54.6084 59.9996C55.3084 58.0996 57.0084 57.1996 59.8084 57.1996C62.5084 57.1996 64.2084 58.0996 64.9084 60.0996C66.1084 62.9996 64.8084 66.6996 64.1084 67.2996Z" fill="#333333"/>
<path d="M59.8084 52.2998C60.9084 52.2998 61.9084 51.3998 61.9084 50.1998V41.3998C61.9084 40.2998 61.0084 39.2998 59.8084 39.2998C58.7084 39.2998 57.7084 40.1998 57.7084 41.3998V50.1998C57.7084 51.3998 58.7084 52.2998 59.8084 52.2998Z" fill="#333333"/>
<path d="M80.5084 60.3994H71.7084C70.6084 60.3994 69.6084 61.2994 69.6084 62.4994C69.6084 63.5994 70.5084 64.5994 71.7084 64.5994H80.5084C81.6084 64.5994 82.6084 63.6994 82.6084 62.4994C82.5084 61.2994 81.6084 60.3994 80.5084 60.3994Z" fill="#333333"/>
<path d="M47.9084 60.3994H39.1084C38.0084 60.3994 37.0084 61.2994 37.0084 62.4994C37.0084 63.5994 37.9084 64.5994 39.1084 64.5994H47.9084C49.0084 64.5994 50.0084 63.6994 50.0084 62.4994C50.0084 61.2994 49.1084 60.3994 47.9084 60.3994Z" fill="#333333"/>
<path d="M49.0084 55.9998C49.4084 56.3998 49.9084 56.5998 50.5084 56.5998C51.0084 56.5998 51.6084 56.3998 52.0084 55.9998C52.8084 55.1998 52.8084 53.8998 52.0084 53.0998L45.8084 46.8998C45.0084 46.0998 43.7084 46.0998 42.9084 46.8998C42.1084 47.6998 42.1084 48.9998 42.9084 49.7998L49.0084 55.9998Z" fill="#333333"/>
<path d="M69.1084 56.5998C69.6084 56.5998 70.2084 56.3998 70.6084 55.9998L76.8084 49.7998C77.6084 48.9998 77.6084 47.6998 76.8084 46.8998C76.0084 46.0998 74.7084 46.0998 73.9084 46.8998L67.7084 53.0998C66.9084 53.8998 66.9084 55.1998 67.7084 55.9998C68.0084 56.3998 68.6084 56.5998 69.1084 56.5998Z" fill="#333333"/>
<path d="M76.4084 33.7C75.7084 26.7 73.0084 22.1 67.9084 19C66.6084 18.2 65.3084 17.6 64.0084 17.2C65.4084 16.3 66.6084 15 67.4084 13.5C68.1084 12.2 68.4084 10.8 68.4084 9.3C68.4084 4.2 64.2084 0 59.1084 0C54.0084 0 49.8084 4.2 49.8084 9.3C49.8084 10.8 50.1084 12.2 50.8084 13.5C51.6084 15.1 52.8084 16.4 54.2084 17.2C52.9084 17.6 51.6084 18.2 50.3084 19C45.2084 22.1 42.5084 26.7 41.8084 33.7C41.7084 34.8 42.5084 35.8 43.6084 36C44.7084 36.1 45.7084 35.3 45.9084 34.2C46.7084 27 49.6084 24.3 52.4084 22.6C56.9084 19.8 61.2084 19.8 65.7084 22.6C68.5084 24.3 71.5084 27 72.2084 34.2C72.3084 35.3 73.2084 36 74.2084 36C74.3084 36 74.3084 36 74.4084 36C75.7084 35.8 76.6084 34.8 76.4084 33.7ZM59.1084 4.1C61.9084 4.1 64.3084 6.4 64.3084 9.2C64.3084 10 64.1084 10.8 63.8084 11.5C62.9084 13.3 61.2084 14.3 59.2084 14.3C57.2084 14.3 55.5084 13.2 54.6084 11.5C54.2084 10.8 54.1084 10 54.1084 9.2C54.0084 6.4 56.3084 4.1 59.1084 4.1Z" fill="#333333"/>
<path d="M118.208 78.9998C117.508 72.0998 114.808 67.3998 109.708 64.2998C108.408 63.4998 107.108 62.8998 105.808 62.4998C107.208 61.5998 108.408 60.2998 109.208 58.7998C109.908 57.4998 110.208 56.0998 110.208 54.5998C110.208 49.4998 106.008 45.2998 100.908 45.2998C95.8084 45.2998 91.6084 49.4998 91.6084 54.5998C91.6084 56.0998 91.9084 57.4998 92.6084 58.7998C93.4084 60.3998 94.6084 61.6998 96.0084 62.4998C94.7084 62.8998 93.4084 63.4998 92.1084 64.2998C87.0084 67.3998 84.3084 71.9998 83.6084 78.9998C83.5084 80.0998 84.3084 81.0998 85.4084 81.2998C85.5084 81.2998 85.5084 81.2998 85.6084 81.2998C86.6084 81.2998 87.5084 80.4998 87.6084 79.4998C88.4084 72.2998 91.3084 69.5998 94.1084 67.8998C98.6084 65.0998 102.908 65.0998 107.408 67.8998C110.208 69.5998 113.208 72.2998 113.908 79.4998C114.008 80.5998 115.008 81.4998 116.208 81.2998C117.508 81.1998 118.308 80.1998 118.208 78.9998ZM100.908 49.4998C103.708 49.4998 106.108 51.7998 106.108 54.5998C106.108 55.3998 105.908 56.1998 105.608 56.8998C104.708 58.6998 103.008 59.6998 101.008 59.6998C99.0084 59.6998 97.3084 58.5998 96.4084 56.8998C96.0084 56.1998 95.9084 55.3998 95.9084 54.5998C95.8084 51.7998 98.1084 49.4998 100.908 49.4998Z" fill="#333333"/>
<path d="M34.6084 78.9998C33.9084 72.0998 31.2084 67.3998 26.1084 64.2998C24.8084 63.4998 23.5084 62.8998 22.2084 62.4998C23.6084 61.5998 24.8084 60.2998 25.6084 58.7998C26.3084 57.4998 26.6084 56.0998 26.6084 54.5998C26.6084 49.4998 22.4084 45.2998 17.3084 45.2998C12.2084 45.2998 8.00844 49.4998 8.00844 54.5998C8.00844 56.0998 8.30844 57.4998 9.00844 58.7998C9.80844 60.3998 11.0084 61.6998 12.4084 62.4998C11.1084 62.8998 9.80844 63.4998 8.50844 64.2998C3.40844 67.3998 0.708439 72.0998 0.00843918 78.9998C-0.0915608 80.0998 0.708439 81.0998 1.80844 81.2998C1.90844 81.2998 1.90844 81.2998 2.00844 81.2998C3.00844 81.2998 3.90844 80.4998 4.00844 79.4998C4.80844 72.2998 7.70844 69.5998 10.5084 67.8998C15.0084 65.0998 19.3084 65.0998 23.8084 67.8998C26.6084 69.5998 29.6084 72.2998 30.3084 79.4998C30.4084 80.5998 31.4084 81.4998 32.6084 81.2998C33.9084 81.1998 34.7084 80.1998 34.6084 78.9998ZM17.3084 49.4998C20.1084 49.4998 22.5084 51.7998 22.5084 54.5998C22.5084 55.3998 22.3084 56.1998 22.0084 56.8998C21.1084 58.6998 19.4084 59.6998 17.4084 59.6998C15.4084 59.6998 13.7084 58.5998 12.8084 56.8998C12.4084 56.1998 12.3084 55.3998 12.3084 54.5998C12.1084 51.7998 14.4084 49.4998 17.3084 49.4998Z" fill="#333333"/>
<path d="M76.4084 119.1C75.7084 112.2 73.0084 107.5 67.9084 104.4C66.6084 103.6 65.3084 103 64.0084 102.6C65.4084 101.7 66.6084 100.4 67.4084 98.9004C68.1084 97.6004 68.4084 96.2004 68.4084 94.7004C68.4084 89.6004 64.2084 85.4004 59.1084 85.4004C54.0084 85.4004 49.8084 89.6004 49.8084 94.7004C49.8084 96.2004 50.1084 97.6004 50.8084 98.9004C51.6084 100.5 52.8084 101.8 54.2084 102.6C52.9084 103 51.6084 103.6 50.3084 104.4C45.2084 107.5 42.5084 112.1 41.8084 119.1C41.7084 120.2 42.5084 121.2 43.6084 121.4C44.7084 121.5 45.7084 120.7 45.9084 119.6C46.7084 112.4 49.6084 109.7 52.4084 108C56.9084 105.2 61.2084 105.2 65.7084 108C68.5084 109.7 71.5084 112.4 72.2084 119.6C72.3084 120.7 73.2084 121.4 74.2084 121.4C74.3084 121.4 74.3084 121.4 74.4084 121.4C75.7084 121.2 76.6084 120.2 76.4084 119.1ZM59.1084 89.5004C61.9084 89.5004 64.3084 91.8004 64.3084 94.6004C64.3084 95.4004 64.1084 96.2004 63.8084 96.9004C62.9084 98.6004 61.2084 99.7004 59.2084 99.7004C57.2084 99.7004 55.5084 98.6004 54.6084 96.9004C54.2084 96.2004 54.1084 95.4004 54.1084 94.6004C54.0084 91.8004 56.3084 89.5004 59.1084 89.5004Z" fill="#333333"/>
</svg>
