<svg width="24" height="24" viewBox="0 0 24 24" fill="none" xmlns="http://www.w3.org/2000/svg">
<path d="M18.5158 6.97283C18.3591 6.5811 18.1763 6.31994 17.889 6.00655C17.6017 5.71929 17.3145 5.53649 16.9227 5.3798C16.6355 5.27533 16.1915 5.11863 15.3819 5.09252C14.494 5.04029 14.2329 5.04028 12.0131 5.04028C9.79325 5.04028 9.5321 5.04029 8.64418 5.09252C7.8346 5.11863 7.39064 5.27533 7.10337 5.3798C6.71164 5.53649 6.42437 5.71929 6.13711 6.00655C5.84984 6.29382 5.66703 6.5811 5.51034 6.97283C5.40588 7.26009 5.24918 7.70406 5.22307 8.51364C5.17084 9.40156 5.17084 9.66271 5.17084 11.8564C5.17084 14.0762 5.17084 14.3374 5.22307 15.1992C5.24918 16.0087 5.40588 16.4527 5.51034 16.74C5.66703 17.1317 5.84984 17.3928 6.13711 17.7062C6.42437 17.9935 6.71164 18.1763 7.10337 18.333C7.39064 18.4375 7.8346 18.5942 8.64418 18.6203C9.5321 18.6725 9.79325 18.6725 12.0131 18.6725C14.2329 18.6725 14.494 18.6725 15.3819 18.6203C16.1915 18.5942 16.6355 18.4375 16.9227 18.333C17.3145 18.1763 17.6017 17.9935 17.889 17.7062C18.1763 17.419 18.3591 17.1317 18.5158 16.74C18.6202 16.4527 18.7769 16.0087 18.803 15.1992C18.8553 14.3112 18.8553 14.0501 18.8553 11.8564C18.8553 9.6366 18.8553 9.37544 18.803 8.51364C18.7508 7.70406 18.6202 7.26009 18.5158 6.97283ZM11.9869 16.1393C9.61045 16.1393 7.70403 14.2329 7.70403 11.8825C7.70403 9.53213 9.63656 7.62571 11.9869 7.62571C14.3634 7.62571 16.2699 9.53213 16.2699 11.8825C16.296 14.2329 14.3634 16.1393 11.9869 16.1393ZM16.4527 8.43528C15.9042 8.43528 15.4603 7.99132 15.4603 7.4429C15.4603 6.89448 15.9042 6.45052 16.4527 6.45052C17.0011 6.45052 17.445 6.89448 17.445 7.4429C17.445 7.99132 17.0011 8.43528 16.4527 8.43528Z" fill="#2B2B2B"/>
<path d="M0 0V24H24V0H0V0ZM20.2916 15.3036C20.2394 16.1915 20.1088 16.7922 19.8999 17.3145C19.691 17.8629 19.4037 18.333 18.9336 18.7769C18.4635 19.247 17.9935 19.5343 17.445 19.7432C16.9227 19.9521 16.296 20.0827 15.4081 20.1349C14.5201 20.1872 14.2329 20.1872 11.9608 20.1872C9.68879 20.1872 9.40152 20.1872 8.5136 20.1349C7.62568 20.0827 7.02503 19.9521 6.4766 19.7432C5.92818 19.5343 5.45811 19.247 4.98803 18.7769C4.51795 18.3069 4.23069 17.8629 4.02176 17.3145C3.81284 16.7922 3.68226 16.1915 3.63003 15.3036C3.5778 14.4157 3.5778 14.1284 3.5778 11.8825C3.5778 9.63656 3.5778 9.3493 3.63003 8.46138C3.68226 7.57346 3.81284 6.9728 4.02176 6.4505C4.23069 5.90207 4.51795 5.432 4.98803 4.98804C5.45811 4.51797 5.92818 4.23069 6.4766 4.02177C6.99891 3.81285 7.62568 3.68227 8.5136 3.63004C9.40152 3.57781 9.68879 3.57781 11.9608 3.57781C14.2329 3.57781 14.5201 3.57781 15.4081 3.63004C16.296 3.68227 16.8966 3.81285 17.445 4.02177C17.9935 4.23069 18.4635 4.51797 18.9336 4.98804C19.4037 5.45812 19.691 5.90207 19.8999 6.4505C20.1088 6.9728 20.2394 7.57346 20.2916 8.46138C20.3439 9.3493 20.3439 9.63656 20.3439 11.8825C20.3439 14.1284 20.3439 14.4157 20.2916 15.3036Z" fill="#2B2B2B"/>
<path d="M11.9869 9.11432C10.4461 9.11432 9.1926 10.3417 9.1926 11.8825C9.1926 13.4233 10.4461 14.6508 11.9869 14.6508C13.5277 14.6508 14.7813 13.4233 14.7813 11.8825C14.7813 10.3417 13.5277 9.11432 11.9869 9.11432Z" fill="#2B2B2B"/>
</svg>
