<svg width="125" height="108" viewBox="0 0 125 108" fill="none" xmlns="http://www.w3.org/2000/svg">
<g clip-path="url(#clip0_140_11474)">
<path d="M77.7 107.403H46.5C47.7 99.5031 49 88.8031 62.1 88.7031C75.2 88.7031 77.9 103.103 77.7 107.403Z" fill="#01AB8D"/>
<path d="M44.5996 107.402H48.6996C48.7996 97.9016 52.0996 94.6016 55.3996 92.6016C59.8996 89.8016 64.1996 89.8016 68.6996 92.6016C71.9996 94.6016 75.2996 97.9016 75.3996 107.402H79.4996C79.3996 98.3016 76.6996 92.7016 70.7996 89.1016C69.4996 88.3016 68.1996 87.7016 66.8996 87.3016C68.2996 86.4016 69.4996 85.1016 70.2996 83.6016C70.9996 82.3016 71.2996 80.9016 71.2996 79.4016C71.2996 74.3016 67.0996 70.1016 61.9996 70.1016C56.8996 70.1016 52.6996 74.3016 52.6996 79.4016C52.6996 80.9016 52.9996 82.3016 53.6996 83.6016C54.4996 85.2016 55.6996 86.5016 57.0996 87.3016C55.7996 87.7016 54.4996 88.3016 53.1996 89.1016C47.3996 92.7016 44.6996 98.4016 44.5996 107.402ZM56.8996 79.4016C56.8996 76.6016 59.1996 74.3016 61.9996 74.3016C64.7996 74.3016 67.1996 76.6016 67.1996 79.4016C67.1996 80.2016 66.9996 81.0016 66.6996 81.7016C65.7996 83.5016 64.0996 84.5016 62.0996 84.5016C60.0996 84.5016 58.3996 83.4016 57.4996 81.7016C57.0996 81.0016 56.8996 80.2016 56.8996 79.4016Z" fill="#333333"/>
<path d="M122.3 78.2005H91C92.2 70.3005 93.5 59.6005 106.6 59.5005C119.7 59.4005 122.5 73.9005 122.3 78.2005Z" fill="white"/>
<path d="M89.0996 78.1984H93.1996C93.2996 68.6984 96.5996 65.3984 99.8996 63.3984C104.4 60.5984 108.7 60.5984 113.2 63.3984C116.5 65.3984 119.8 68.6984 119.9 78.1984H124C123.9 69.0984 121.2 63.4984 115.3 59.8984C114 59.0984 112.7 58.4984 111.4 58.0984C112.8 57.1984 114 55.8984 114.8 54.3984C115.5 53.0984 115.8 51.6984 115.8 50.1984C115.8 45.0984 111.6 40.8984 106.5 40.8984C101.4 40.8984 97.1996 45.0984 97.1996 50.1984C97.1996 51.6984 97.4996 53.0984 98.1996 54.3984C98.9996 55.9984 100.2 57.2984 101.6 58.0984C100.3 58.4984 98.9996 59.0984 97.6996 59.8984C91.8996 63.4984 89.1996 69.0984 89.0996 78.1984ZM101.4 50.1984C101.4 47.3984 103.7 45.0984 106.5 45.0984C109.3 45.0984 111.7 47.3984 111.7 50.1984C111.7 50.9984 111.5 51.7984 111.2 52.4984C110.3 54.2984 108.6 55.2984 106.6 55.2984C104.6 55.2984 102.9 54.1984 102 52.4984C101.6 51.6984 101.4 50.9984 101.4 50.1984Z" fill="#333333"/>
<path d="M77.7 37.3016H46.5C47.7 29.4016 49 18.7016 62.1 18.6016C75.2 18.6016 77.9 33.0016 77.7 37.3016Z" fill="#01AB8D"/>
<path d="M44.5996 37.3H48.6996C48.7996 27.8 52.0996 24.5 55.3996 22.5C59.8996 19.7 64.1996 19.7 68.6996 22.5C71.9996 24.5 75.2996 27.8 75.3996 37.3H79.4996C79.3996 28.2 76.6996 22.6 70.7996 19C69.4996 18.2 68.1996 17.6 66.8996 17.2C68.2996 16.3 69.4996 15 70.2996 13.5C70.9996 12.2 71.2996 10.8 71.2996 9.3C71.2996 4.2 67.1996 0 61.9996 0C56.8996 0 52.6996 4.2 52.6996 9.3C52.6996 10.8 52.9996 12.2 53.6996 13.5C54.4996 15.1 55.6996 16.4 57.0996 17.2C55.7996 17.6 54.4996 18.2 53.1996 19C47.3996 22.6 44.6996 28.3 44.5996 37.3ZM56.8996 9.3C56.8996 6.5 59.1996 4.2 61.9996 4.2C64.7996 4.2 67.1996 6.5 67.1996 9.3C67.1996 10.1 66.9996 10.9 66.6996 11.6C65.7996 13.4 64.0996 14.4 62.0996 14.4C60.0996 14.4 58.3996 13.3 57.4996 11.6C57.0996 10.9 56.8996 10.1 56.8996 9.3Z" fill="#333333"/>
<path d="M33.2004 78.2005H1.90039C3.10039 70.3005 4.40039 59.6005 17.5004 59.5005C30.6004 59.4005 33.3004 73.9005 33.2004 78.2005Z" fill="white"/>
<path d="M0 78.1984H4.1C4.2 68.6984 7.5 65.3984 10.8 63.3984C15.3 60.5984 19.6 60.5984 24.1 63.3984C27.4 65.3984 30.7 68.6984 30.8 78.1984H35C34.9 69.0984 32.2 63.4984 26.3 59.8984C25 59.0984 23.7 58.4984 22.4 58.0984C23.8 57.1984 25 55.8984 25.8 54.3984C26.5 53.0984 26.8 51.6984 26.8 50.1984C26.8 45.0984 22.6 40.8984 17.5 40.8984C12.4 40.8984 8.2 45.0984 8.2 50.1984C8.2 51.6984 8.5 53.0984 9.2 54.3984C10 55.9984 11.2 57.2984 12.6 58.0984C11.3 58.4984 10 59.0984 8.7 59.8984C2.8 63.4984 0.1 69.0984 0 78.1984ZM12.3 50.1984C12.3 47.3984 14.6 45.0984 17.4 45.0984C20.2 45.0984 22.6 47.3984 22.6 50.1984C22.6 50.9984 22.4 51.7984 22.1 52.4984C21.2 54.2984 19.5 55.2984 17.5 55.2984C15.5 55.2984 13.8 54.1984 12.9 52.4984C12.5 51.6984 12.3 50.9984 12.3 50.1984Z" fill="#333333"/>
<path d="M94.5996 40.4984C94.0996 40.4984 93.4996 40.2984 93.0996 39.8984L82.6996 29.3984C81.8996 28.5984 81.8996 27.2984 82.6996 26.4984C83.4996 25.6984 84.7996 25.6984 85.5996 26.4984L96.0996 36.9984C96.8996 37.7984 96.8996 39.0984 96.0996 39.8984C95.6996 40.2984 95.1996 40.4984 94.5996 40.4984Z" fill="#333333"/>
<path d="M29.5004 40.5C29.0004 40.5 28.4004 40.3 28.0004 39.9C27.2004 39.1 27.2004 37.8 28.0004 37L38.4004 26.6C39.2004 25.8 40.5004 25.8 41.3004 26.6C42.1004 27.4 42.1004 28.7 41.3004 29.5L30.9004 39.9C30.5004 40.3 30.0004 40.5 29.5004 40.5Z" fill="#333333"/>
<path d="M84.1996 97.6016C83.6996 97.6016 83.0996 97.4016 82.6996 97.0016C81.8996 96.2016 81.8996 94.9016 82.6996 94.1016L93.0996 83.7016C93.8996 82.9016 95.1996 82.9016 95.9996 83.7016C96.7996 84.5016 96.7996 85.8016 95.9996 86.6016L85.6996 97.0016C85.1996 97.4016 84.6996 97.6016 84.1996 97.6016Z" fill="#333333"/>
<path d="M39.9004 97.6016C39.4004 97.6016 38.8004 97.4016 38.4004 97.0016L28.0004 86.6016C27.2004 85.8016 27.2004 84.5016 28.0004 83.7016C28.8004 82.9016 30.1004 82.9016 30.9004 83.7016L41.3004 94.1016C42.1004 94.9016 42.1004 96.2016 41.3004 97.0016C41.0004 97.4016 40.4004 97.6016 39.9004 97.6016Z" fill="#333333"/>
</g>
<defs>
<clipPath id="clip0_140_11474">
<rect width="124.1" height="107.4" fill="white"/>
</clipPath>
</defs>
</svg>
