<svg width="96" height="119" viewBox="0 0 96 119" fill="none" xmlns="http://www.w3.org/2000/svg">
<path d="M40.3523 19.8516H23.9727V32.7655H40.3523V19.8516Z" fill="#01AB8D"/>
<path d="M95.9995 56.782V74.2852C95.9995 77.3802 93.83 80.1551 90.7927 80.7955C89.5994 81.0089 88.4062 81.0089 87.213 80.582L87.1045 111.746C87.43 113.134 87.213 114.628 86.4537 115.908C85.6944 117.296 84.3927 118.256 82.874 118.683C80.2706 119.43 77.6672 118.47 76.1486 116.869C75.0639 118.15 73.2198 119.004 71.1588 119.004C70.5079 119.004 69.8571 118.897 69.2062 118.79C66.1689 117.936 64.3249 114.841 64.9757 111.853L64.6503 80.3686V65.747C63.9994 66.3874 63.2401 67.1345 62.4808 67.8816L62.0469 68.3085C60.4198 69.9094 58.4672 70.6565 56.4062 70.6565C53.9113 70.6565 51.4164 69.4825 49.2469 67.3479L44.474 62.652C43.2808 61.478 42.5215 59.7704 42.5215 58.0627C42.5215 56.3551 43.1723 54.7542 44.474 53.4735C45.7757 52.1928 47.4028 51.5524 49.1384 51.5524C50.874 51.5524 52.5011 52.1928 53.8028 53.4735L56.1893 55.8215L62.6978 49.4179C64.8672 47.2834 67.7961 46.1094 70.8334 46.1094H85.152C91.1181 46.1094 95.9995 50.9121 95.9995 56.782Z" fill="white"/>
<path d="M75.9318 45.035C82.1148 45.035 87.2131 40.0189 87.2131 33.9355C87.2131 27.8521 82.1148 22.8359 75.9318 22.8359C69.7487 22.8359 64.6504 27.8521 64.6504 33.9355C64.6504 40.1256 69.7487 45.035 75.9318 45.035ZM75.9318 27.2117C79.7284 27.2117 82.7657 30.2001 82.7657 33.9355C82.7657 37.6709 79.7284 40.6593 75.9318 40.6593C72.1351 40.6593 69.0979 37.6709 69.0979 33.9355C69.0979 30.3068 72.2436 27.2117 75.9318 27.2117Z" fill="#333333"/>
<path d="M85.152 46.1094H70.8334C67.7961 46.1094 64.8672 47.2834 62.6978 49.4179L56.1893 55.8215L53.8028 53.4735C52.6096 52.1928 50.874 51.5524 49.1384 51.5524C47.4028 51.5524 45.6672 52.2995 44.474 53.5802C43.2808 54.7542 42.5215 56.4618 42.5215 58.1695C42.5215 59.8771 43.1723 61.478 44.474 62.7587L49.2469 67.4547C51.4164 69.5892 53.9113 70.7632 56.4062 70.7632C58.4672 70.7632 60.4198 69.9094 62.0469 68.4152L62.4808 67.9883C63.2401 67.2412 63.9994 66.4941 64.6503 65.8538V80.4753L64.9757 111.96C64.3249 114.948 66.1689 118.043 69.2062 118.897C69.8571 119.11 70.5079 119.11 71.1588 119.11C73.2198 119.11 74.9554 118.256 76.1486 116.976C77.6672 118.683 80.2706 119.644 82.874 118.79C84.3927 118.363 85.6944 117.403 86.4537 116.015C87.213 114.734 87.43 113.24 87.1045 111.853L87.213 80.6887C88.2978 81.1156 89.5994 81.1157 90.7927 80.9022C93.83 80.2618 95.9995 77.5937 95.9995 74.3919V56.782C95.9995 50.9121 91.1181 46.1094 85.152 46.1094ZM91.552 74.2852C91.552 75.3524 90.9011 76.313 89.9249 76.4197C89.274 76.5264 88.5147 76.313 87.9723 75.8861C87.5384 75.4591 87.3215 75.0322 87.3215 74.4986V58.5964C87.3215 57.4224 86.3452 56.3551 85.0435 56.3551C84.3927 56.3551 83.8503 56.5686 83.4164 56.9955C82.9825 57.4224 82.7656 57.956 82.7656 58.5964V74.4986L82.6571 112.066C82.6571 112.28 82.6571 112.493 82.7656 112.707C82.874 113.134 82.874 113.454 82.6571 113.881C82.4401 114.201 82.1147 114.521 81.6808 114.628C80.9215 114.841 79.7283 114.414 79.4028 113.881L78.1011 82.5031C78.1011 81.3291 77.0164 80.3686 75.8232 80.3686C74.63 80.3686 73.6537 81.3291 73.5452 82.5031L72.5689 114.094C72.2435 114.521 71.0503 114.734 70.291 114.521C69.4232 114.308 68.9893 113.454 69.2062 112.707C69.2062 112.493 69.3147 112.28 69.3147 112.066L68.9893 80.3686V60.5174C68.9893 59.6636 68.4469 58.8098 67.5791 58.4896C67.2537 58.3829 67.0367 58.2762 66.7113 58.2762C66.1689 58.2762 65.6266 58.4896 65.1927 58.9165C62.9147 61.1578 61.3961 62.652 59.2266 64.7865L58.7927 65.2134C58.0333 65.9605 57.274 66.2807 56.2978 66.2807C54.9961 66.2807 53.5859 65.5336 52.2842 64.2529L47.5113 59.5569C47.0774 59.13 46.8605 58.7031 46.8605 58.1695C46.8605 57.6358 47.0774 57.1022 47.5113 56.6753C48.2706 55.9282 49.6808 55.9282 50.4401 56.6753L54.4537 60.6242C55.3215 61.478 56.7317 61.478 57.5994 60.6242L65.735 52.6197C67.0367 51.339 68.7723 50.5919 70.7249 50.5919H85.0435C88.5147 50.5919 91.4435 53.3668 91.4435 56.8887V74.2852H91.552Z" fill="#333333"/>
<path d="M61.6136 73.3211C60.4203 73.3211 59.3356 74.2816 59.3356 75.5623V78.9776C59.3356 80.1516 58.3593 81.2188 57.0576 81.2188H6.72542C5.5322 81.2188 4.44746 80.2583 4.44746 78.9776V6.61704C4.44746 5.33632 5.42373 4.37578 6.72542 4.37578H57.1661C58.3593 4.37578 59.4441 5.33632 59.4441 6.61704V43.7578C59.4441 44.9318 60.4203 45.9991 61.722 45.9991C63.0237 45.9991 64 45.0386 64 43.7578V6.61704C64 2.98834 60.9627 0 57.2746 0H6.72542C3.03729 0 0 2.98834 0 6.61704V78.9776C0 82.6063 3.03729 85.5946 6.72542 85.5946H29.722V97.1211L13.5593 111.849C12.6915 112.703 12.5831 114.091 13.4508 114.944C13.8847 115.371 14.5356 115.691 15.078 115.691C15.6203 115.691 16.1627 115.478 16.5966 115.158L32 101.177L47.4034 115.158C47.8373 115.585 48.3797 115.691 48.922 115.691C49.5729 115.691 50.1153 115.478 50.5492 114.944C51.4169 114.091 51.3085 112.703 50.4407 111.849L34.1695 97.1211V85.5946H57.1661C60.8542 85.5946 63.8915 82.6063 63.8915 78.9776V75.4556C63.8915 74.2816 62.9153 73.3211 61.6136 73.3211Z" fill="#333333"/>
<path d="M40.7855 36.0752C41.9787 36.0752 43.0635 35.1146 43.0635 33.8339V18.6788C43.0635 17.5048 42.0872 16.4375 40.7855 16.4375H23.1041C21.9109 16.4375 20.8262 17.398 20.8262 18.6788V33.9406C20.8262 35.1146 21.8024 36.1819 23.1041 36.1819H29.7211V39.4904C26.6838 40.451 24.5143 43.2258 24.5143 46.4276C24.5143 49.7362 26.6838 52.4043 29.7211 53.3649V57.1003C26.6838 58.0608 24.5143 60.8357 24.5143 64.0375C24.5143 68.0931 27.877 71.4016 31.9991 71.4016C36.1211 71.4016 39.4838 68.0931 39.4838 64.0375C39.4838 60.729 37.3143 58.0608 34.277 57.1003V53.3649C37.3143 52.4043 39.4838 49.6294 39.4838 46.4276C39.4838 43.1191 37.3143 40.3442 34.277 39.4904V36.1819H40.7855V36.0752ZM31.8906 66.9191C30.2635 66.9191 28.8533 65.6384 28.8533 63.9308C28.8533 62.3299 30.155 60.9424 31.8906 60.9424C33.5177 60.9424 34.9279 62.2231 34.9279 63.9308C34.9279 65.6384 33.6262 66.9191 31.8906 66.9191ZM31.8906 49.3092C30.2635 49.3092 28.8533 48.0285 28.8533 46.3209C28.8533 44.72 30.155 43.3326 31.8906 43.3326C33.5177 43.3326 34.9279 44.6133 34.9279 46.3209C34.9279 48.0285 33.6262 49.3092 31.8906 49.3092ZM25.2736 20.8133H38.5075V31.5927H25.2736V20.8133Z" fill="#333333"/>
</svg>
