<svg width="108" height="119" viewBox="0 0 108 119" fill="none" xmlns="http://www.w3.org/2000/svg">
<g clip-path="url(#clip0_140_11538)">
<path d="M74.1702 118.129H33.4102C34.5602 109.899 35.9402 93.3392 53.9202 93.2192C71.9002 93.0992 74.2902 115.589 74.1702 118.129Z" fill="#01AB8D"/>
<path d="M0 118.132H4C4.19 105.662 8.67007 100.252 13.0701 97.5816C19.2101 93.8416 24.9401 93.8416 31.0701 97.5816C31.2907 97.7771 31.5518 97.9215 31.8347 98.0043C32.1176 98.0871 32.4154 98.1063 32.7067 98.0606C32.9979 98.0149 33.2753 97.9054 33.5193 97.7399C33.7632 97.5744 33.9677 97.357 34.1178 97.1033C34.2679 96.8496 34.3601 96.5658 34.3877 96.2723C34.4153 95.9788 34.3777 95.6828 34.2776 95.4055C34.1775 95.1282 34.0174 94.8765 33.8086 94.6684C33.5998 94.4603 33.3476 94.3009 33.0701 94.2016C31.0232 92.9283 28.7894 91.9835 26.4501 91.4016C28.8576 90.3739 30.8362 88.5462 32.0515 86.2277C33.2668 83.9092 33.6441 81.2422 33.1196 78.6776C32.5951 76.1129 31.2011 73.8082 29.1731 72.153C27.1451 70.4978 24.6077 69.5938 21.99 69.5938C19.3723 69.5938 16.835 70.4978 14.807 72.153C12.779 73.8082 11.3848 76.1129 10.8604 78.6776C10.3359 81.2422 10.7132 83.9092 11.9285 86.2277C13.1438 88.5462 15.1225 90.3739 17.53 91.4016C15.2036 91.989 12.9811 92.9299 10.9401 94.1916C3.56006 98.6916 0.16 106.762 0 118.132ZM15.4 84.2916C14.8942 83.2941 14.6211 82.195 14.6012 81.0768C14.5813 79.9586 14.8151 78.8504 15.285 77.8355C15.755 76.8207 16.4488 75.9255 17.3145 75.2173C18.1801 74.5092 19.195 74.0065 20.2828 73.7469C21.3707 73.4874 22.5033 73.4778 23.5953 73.7189C24.6874 73.96 25.7107 74.4455 26.5881 75.1389C27.4656 75.8323 28.1745 76.7156 28.6615 77.7224C29.1485 78.7291 29.401 79.8332 29.4 80.9516C29.3985 82.6144 28.837 84.2284 27.806 85.533C26.7751 86.8377 25.3347 87.7571 23.7173 88.1429C22.0998 88.5288 20.3996 88.3587 18.8906 87.66C17.3817 86.9613 16.152 85.7746 15.4 84.2916Z" fill="#333333"/>
<path d="M76.7205 97.5638C82.8705 93.8238 88.6005 93.8238 94.7205 97.5638C99.1205 100.234 103.59 105.644 103.79 118.114H107.79C107.63 106.764 104.23 98.6938 96.7904 94.1838C94.7494 92.9221 92.5269 91.9812 90.2005 91.3938C92.608 90.3661 94.5866 88.5384 95.8019 86.2199C97.0172 83.9014 97.3945 81.2344 96.87 78.6697C96.3455 76.1051 94.9515 73.8003 92.9235 72.1451C90.8955 70.4899 88.3581 69.5859 85.7404 69.5859C83.1227 69.5859 80.5854 70.4899 78.5574 72.1451C76.5294 73.8003 75.1352 76.1051 74.6107 78.6697C74.0863 81.2344 74.4636 83.9014 75.6789 86.2199C76.8942 88.5384 78.8729 90.3661 81.2804 91.3938C78.9411 91.9757 76.7073 92.9205 74.6604 94.1938C74.3829 94.2931 74.1307 94.4525 73.9219 94.6606C73.7131 94.8688 73.5529 95.1205 73.4528 95.3978C73.3527 95.675 73.3152 95.971 73.3428 96.2645C73.3704 96.558 73.4626 96.8418 73.6127 97.0955C73.7628 97.3492 73.9673 97.5666 74.2112 97.7321C74.4552 97.8976 74.7326 98.0071 75.0238 98.0528C75.3151 98.0985 75.6129 98.0793 75.8958 97.9965C76.1787 97.9137 76.4398 97.7693 76.6604 97.5738L76.7205 97.5638ZM79.1404 84.2738C78.5702 83.1441 78.2987 81.8872 78.352 80.6228C78.4052 79.3584 78.7815 78.1288 79.4447 77.051C80.108 75.9733 81.0362 75.0834 82.1409 74.4661C83.2456 73.8488 84.4899 73.5247 85.7554 73.5247C87.0209 73.5247 88.2653 73.8488 89.37 74.4661C90.4747 75.0834 91.4029 75.9733 92.0662 77.051C92.7294 78.1288 93.1056 79.3584 93.1588 80.6228C93.2121 81.8872 92.9407 83.1441 92.3704 84.2738C91.7524 85.498 90.807 86.5267 89.6391 87.2454C88.4712 87.9641 87.1267 88.3447 85.7554 88.3447C84.3841 88.3447 83.0397 87.9641 81.8719 87.2454C80.704 86.5267 79.7584 85.498 79.1404 84.2738Z" fill="#333333"/>
<path d="M31.8691 118.132H35.8691C36.0691 105.662 40.5492 100.252 44.9392 97.5816C51.0892 93.8416 56.8192 93.8416 62.9392 97.5816C67.3292 100.252 71.8092 105.662 72.0092 118.132H76.0092C75.8392 106.782 72.4492 98.7116 65.0092 94.2016C62.9623 92.9283 60.7285 91.9835 58.3892 91.4016C60.7967 90.3739 62.7754 88.5462 63.9907 86.2277C65.206 83.9092 65.5833 81.2422 65.0588 78.6776C64.5343 76.1129 63.1402 73.8082 61.1122 72.153C59.0842 70.4978 56.5469 69.5938 53.9292 69.5938C51.3115 69.5938 48.7741 70.4978 46.7461 72.153C44.7181 73.8082 43.3241 76.1129 42.7996 78.6776C42.2751 81.2422 42.6524 83.9092 43.8677 86.2277C45.083 88.5462 47.0617 90.3739 49.4692 91.4016C47.1422 91.9872 44.9193 92.9282 42.8792 94.1916C35.4292 98.6916 32.0391 106.762 31.8691 118.132ZM47.2792 84.2916C46.7734 83.2941 46.5003 82.195 46.4803 81.0768C46.4604 79.9586 46.6942 78.8504 47.1642 77.8355C47.6341 76.8207 48.328 75.9255 49.1936 75.2173C50.0592 74.5092 51.0741 74.0065 52.162 73.7469C53.2498 73.4874 54.3823 73.4778 55.4744 73.7189C56.5665 73.96 57.5898 74.4455 58.4673 75.1389C59.3448 75.8323 60.0536 76.7156 60.5406 77.7224C61.0277 78.7291 61.2802 79.8332 61.2792 80.9516C61.2777 82.6144 60.7162 84.2284 59.6852 85.533C58.6542 86.8377 57.2139 87.7571 55.5964 88.1429C53.979 88.5288 52.2787 88.3587 50.7698 87.66C49.2608 86.9613 48.0312 85.7746 47.2792 84.2916Z" fill="#333333"/>
<path d="M53.5304 17.8828C52.9937 17.8697 52.4835 17.6466 52.1095 17.2614C51.7355 16.8762 51.5276 16.3597 51.5304 15.8228V2.06281C51.5107 1.78088 51.5493 1.49796 51.6437 1.23157C51.738 0.965179 51.8861 0.721017 52.0788 0.514343C52.2716 0.307669 52.5049 0.142894 52.764 0.0302124C53.0232 -0.0824689 53.3028 -0.140625 53.5854 -0.140625C53.868 -0.140625 54.1476 -0.0824689 54.4067 0.0302124C54.6659 0.142894 54.8992 0.307669 55.0919 0.514343C55.2847 0.721017 55.4329 0.965179 55.5272 1.23157C55.6216 1.49796 55.66 1.78088 55.6404 2.06281V15.8228C55.6405 16.0976 55.5856 16.3696 55.479 16.6229C55.3724 16.8761 55.2161 17.1055 55.0195 17.2974C54.8229 17.4894 54.5898 17.6401 54.3341 17.7406C54.0784 17.8411 53.8051 17.8895 53.5304 17.8828Z" fill="#333333"/>
<path d="M85.7906 36.9091H72.0306C71.4843 36.9091 70.9603 36.692 70.574 36.3057C70.1876 35.9194 69.9707 35.3954 69.9707 34.8491C69.9707 34.3027 70.1876 33.7788 70.574 33.3925C70.9603 33.0061 71.4843 32.7891 72.0306 32.7891H85.7906C86.337 32.7891 86.861 33.0061 87.2473 33.3925C87.6336 33.7788 87.8507 34.3027 87.8507 34.8491C87.8507 35.3954 87.6336 35.9194 87.2473 36.3057C86.861 36.692 86.337 36.9091 85.7906 36.9091Z" fill="#333333"/>
<path d="M35.0406 36.9091H21.2806C20.7343 36.9091 20.2103 36.692 19.824 36.3057C19.4376 35.9194 19.2207 35.3954 19.2207 34.8491C19.2207 34.3027 19.4376 33.7788 19.824 33.3925C20.2103 33.0061 20.7343 32.7891 21.2806 32.7891H35.0406C35.587 32.7891 36.111 33.0061 36.4973 33.3925C36.8836 33.7788 37.1007 34.3027 37.1007 34.8491C37.1007 35.3954 36.8836 35.9194 36.4973 36.3057C36.111 36.692 35.587 36.9091 35.0406 36.9091Z" fill="#333333"/>
<path d="M39.0501 24.5572C38.7793 24.558 38.5109 24.5055 38.2603 24.4026C38.0098 24.2996 37.7821 24.1483 37.5902 23.9572L27.8601 14.2271C27.5039 13.8354 27.3122 13.3217 27.3248 12.7924C27.3374 12.2631 27.5532 11.759 27.9276 11.3846C28.3019 11.0103 28.806 10.7944 29.3353 10.7818C29.8646 10.7693 30.3784 10.961 30.7701 11.3172L40.5001 21.0472C40.7855 21.3352 40.9797 21.701 41.0581 22.0989C41.1365 22.4968 41.0957 22.9089 40.9409 23.2837C40.7861 23.6585 40.5241 23.9793 40.1877 24.2058C39.8514 24.4324 39.4556 24.5546 39.0501 24.5572Z" fill="#333333"/>
<path d="M68.0195 24.5625C67.614 24.5599 67.2182 24.4377 66.8819 24.2112C66.5455 23.9847 66.2835 23.6639 66.1287 23.2891C65.9739 22.9143 65.9331 22.5021 66.0115 22.1043C66.0899 21.7064 66.2841 21.3406 66.5695 21.0525L76.2995 11.3225C76.487 11.1163 76.7145 10.9503 76.9681 10.8345C77.2216 10.7187 77.496 10.6556 77.7747 10.649C78.0534 10.6424 78.3305 10.6924 78.5893 10.7961C78.8481 10.8997 79.0831 11.0547 79.2802 11.2518C79.4773 11.4489 79.6324 11.6839 79.736 11.9427C79.8396 12.2015 79.8896 12.4786 79.883 12.7573C79.8764 13.036 79.8133 13.3104 79.6976 13.564C79.5818 13.8176 79.4158 14.045 79.2095 14.2325L69.4794 23.9626C69.2875 24.1536 69.0598 24.305 68.8093 24.4079C68.5587 24.5109 68.2903 24.5634 68.0195 24.5625Z" fill="#333333"/>
<path d="M63.2208 43.8694C62.7752 42.881 62.0873 42.0211 61.2208 41.3694C60.3761 40.747 59.433 40.2704 58.4308 39.9594C57.4308 39.6394 56.4307 39.3694 55.3707 39.1394C54.3107 38.9094 53.1508 38.6094 52.1508 38.3094C51.239 38.0716 50.4007 37.6112 49.7108 36.9694C49.3827 36.6108 49.131 36.1891 48.9711 35.7301C48.8112 35.2711 48.7464 34.7842 48.7808 34.2994C48.73 33.6477 48.8298 32.993 49.0725 32.3861C49.3153 31.7792 49.6946 31.2363 50.1808 30.7994C51.4183 29.927 52.9212 29.5133 54.4308 29.6294C55.981 29.6554 57.5028 30.0496 58.8707 30.7794C59.3382 31.0266 59.8788 31.0979 60.3944 30.9805C60.91 30.863 61.3664 30.5646 61.6808 30.1394C61.8698 29.8741 61.998 29.5705 62.0565 29.2501C62.115 28.9297 62.1023 28.6004 62.0193 28.2855C61.9363 27.9705 61.7849 27.6778 61.5761 27.4279C61.3672 27.1779 61.106 26.9771 60.8108 26.8394C60.163 26.5278 59.4948 26.2605 58.8108 26.0394C57.8811 25.7379 56.9226 25.5335 55.9508 25.4294V24.0194C55.9508 23.4465 55.7232 22.8971 55.3181 22.4921C54.913 22.087 54.3637 21.8594 53.7908 21.8594C53.217 21.8594 52.6666 22.0867 52.2599 22.4915C51.8532 22.8962 51.6234 23.4456 51.6207 24.0194V25.5494C49.8281 25.7539 48.1384 26.4925 46.7708 27.6694C45.0808 29.2194 44.2307 31.5594 44.2307 34.6694C44.1663 36.1468 44.4579 37.6182 45.0808 38.9594C45.5945 39.9541 46.3687 40.7905 47.3208 41.3794C48.2551 41.9343 49.2659 42.3487 50.3208 42.6094C51.4308 42.8694 52.5208 43.1094 53.5908 43.3194C54.5603 43.5094 55.5184 43.7531 56.4608 44.0494C57.2759 44.2967 58.0108 44.7557 58.5908 45.3794C59.1646 46.1084 59.4494 47.0235 59.3908 47.9494C59.4413 48.6266 59.332 49.3062 59.0714 49.9333C58.8109 50.5604 58.4064 51.1174 57.8908 51.5594C56.5574 52.5927 54.3874 52.9527 51.3807 52.6394C49.8931 52.4115 48.5185 51.7101 47.4608 50.6394C47.2388 50.4429 46.9791 50.2934 46.6975 50.2003C46.416 50.1071 46.1184 50.072 45.8229 50.0973C45.5274 50.1225 45.2402 50.2076 44.9785 50.3472C44.7169 50.4868 44.4863 50.6781 44.3008 50.9094C44.1098 51.1403 43.9673 51.4073 43.8818 51.6945C43.7963 51.9816 43.7695 52.2831 43.8031 52.5809C43.8367 52.8786 43.93 53.1665 44.0774 53.4274C44.2248 53.6883 44.4231 53.9169 44.6608 54.0994C45.083 54.4339 45.5236 54.7444 45.9807 55.0294C47.0574 55.6972 48.2267 56.2027 49.4508 56.5294C50.1559 56.7168 50.8749 56.8472 51.6008 56.9194V58.3394C51.6008 58.6239 51.657 58.9056 51.7661 59.1683C51.8753 59.4311 52.0353 59.6696 52.2369 59.8703C52.4386 60.071 52.678 60.2299 52.9412 60.3378C53.2044 60.4458 53.4863 60.5007 53.7708 60.4994C54.3436 60.4994 54.893 60.2718 55.2981 59.8668C55.7032 59.4617 55.9308 58.9123 55.9308 58.3394V56.8794C57.8787 56.7146 59.737 55.9886 61.2808 54.7894C63.0408 53.2894 63.9208 51.0327 63.9208 48.0194C63.992 46.6016 63.7532 45.1854 63.2208 43.8694Z" fill="#333333"/>
</g>
<defs>
<clipPath id="clip0_140_11538">
<rect width="107.78" height="118.1" fill="white"/>
</clipPath>
</defs>
</svg>
