<svg width="61" height="18" viewBox="0 0 61 18" fill="none" xmlns="http://www.w3.org/2000/svg">
<g clip-path="url(#clip0_288_975)">
<path d="M4.32535 0.549604C3.68207 0.564212 3.04376 0.666224 2.42797 0.852848C1.95904 0.999274 1.53644 1.26557 1.20195 1.62541C0.874972 1.99686 0.647689 2.4453 0.54142 2.92866C0.404728 3.56082 0.349336 4.20785 0.376588 4.85405H0V0.0947266H10.8537V4.85285H10.4735C10.4839 4.20297 10.4246 3.55385 10.2966 2.91663C10.2018 2.43377 9.98891 1.9819 9.67698 1.60135C9.35618 1.23908 8.93885 0.975697 8.47383 0.842022C7.8397 0.661771 7.18502 0.56389 6.52592 0.550801V16.3643C6.52592 16.7181 6.63902 16.9419 6.86762 17.0346C7.11237 17.1322 7.37598 17.1733 7.63884 17.1549V17.5845H3.1619V17.1549C3.56776 17.1717 3.86293 17.1296 4.04742 17.0285C4.2327 16.9275 4.32535 16.6483 4.32535 16.1934V0.549604Z" fill="#F2F2F2"/>
<path d="M41.0528 0.0947266V0.601348L40.8471 0.576074C40.5094 0.576074 40.2816 0.660307 40.1637 0.828779C40.0272 1.03935 39.9245 1.26998 39.8593 1.5123L35.6891 17.5785H34.5257C33.9345 15.3522 33.3358 13.1425 32.7294 10.9491C32.123 8.75578 31.5158 6.54599 30.9078 4.31975L27.492 17.5785H26.3033L24.5828 11.1766L22.2042 2.39196C22.1536 2.20664 22.0991 2.00608 22.0405 1.79028C21.9837 1.58114 21.903 1.37924 21.7999 1.18859C21.7044 1.00992 21.5758 0.851058 21.4209 0.72048C21.2489 0.588383 21.036 0.521067 20.8193 0.530346V0.0947266H25.2217V0.525535C24.9992 0.523774 24.7776 0.553758 24.5636 0.614583C24.3614 0.673548 24.2604 0.855259 24.2604 1.15851C24.2833 1.393 24.3235 1.62548 24.3807 1.85405C24.4649 2.23351 24.5788 2.71486 24.7224 3.29809C24.866 3.88133 25.0304 4.53957 25.2157 5.27283C25.401 6.00528 25.5907 6.75136 25.7848 7.51109C25.9789 8.27082 26.177 9.03014 26.3791 9.78907C26.5813 10.5488 26.7669 11.2488 26.9362 11.8889C27.1054 12.5291 27.2526 13.0815 27.3777 13.546C27.5053 14.0105 27.5931 14.3438 27.6436 14.546L30.1991 4.37391C30.2826 4.09111 30.35 3.80386 30.4013 3.5135C30.4523 3.22105 30.4777 2.92469 30.4771 2.62782C30.4732 2.41589 30.4522 2.20462 30.4145 1.99605C30.3748 1.75276 30.3069 1.5149 30.2124 1.28726C30.1253 1.07738 29.9958 0.887725 29.8322 0.730109C29.7537 0.65537 29.6598 0.598582 29.5572 0.563676C29.4546 0.52877 29.3456 0.516572 29.2378 0.527937V0.0947266H33.438V0.525535C33.2127 0.524609 32.9878 0.545968 32.7667 0.58931C32.5561 0.631427 32.4514 0.811935 32.4514 1.13323C32.4547 1.31614 32.4756 1.4983 32.514 1.67716C32.5581 1.8948 32.6131 2.11007 32.6788 2.32216C32.7462 2.54118 32.8088 2.76139 32.8677 2.9804C32.9267 3.19942 32.9881 3.38473 33.0326 3.53636C33.5732 5.37511 34.0625 7.21386 34.5004 9.05261C34.9384 10.8914 35.3936 12.7301 35.866 14.5689L39.0038 2.12C39.0375 1.93468 39.0748 1.75297 39.1169 1.57607C39.1593 1.39787 39.1807 1.21532 39.1807 1.03215C39.1825 0.97767 39.1707 0.923606 39.1463 0.874853C39.122 0.826099 39.0858 0.784198 39.0411 0.752966C38.942 0.682536 38.8306 0.63113 38.7127 0.601348C38.5882 0.56833 38.4609 0.546974 38.3325 0.537566C38.2061 0.530345 38.1003 0.525535 38.0172 0.525535V0.0947266H41.0528Z" fill="#F2F2F2"/>
<path d="M46.2218 0.00976562H45.8428V17.5898H46.2218V0.00976562Z" fill="#F2F2F2"/>
<path d="M16.0211 0H15.6421V17.58H16.0211V0Z" fill="#F2F2F2"/>
<path d="M57.3026 0.238014C57.7446 0.274883 58.1775 0.384247 58.5839 0.56172C58.7945 0.655583 58.9894 0.739817 59.1663 0.81563C59.297 0.87943 59.4387 0.917816 59.5838 0.928747C59.6457 0.931302 59.707 0.914484 59.7589 0.880624C59.8109 0.846763 59.851 0.797543 59.8737 0.739817C59.9307 0.626433 59.9529 0.498745 59.9375 0.372791H60.3165V5.30661H59.9375C59.9261 4.84801 59.8668 4.39187 59.7606 3.9456C59.6464 3.41695 59.4724 2.90302 59.2421 2.41371C59.0273 1.95165 58.7315 1.53185 58.3686 1.17423C58.2074 1.00907 58.0146 0.878041 57.8017 0.788939C57.5888 0.699836 57.3601 0.654481 57.1293 0.655579C56.6301 0.639544 56.1373 0.771876 55.7132 1.03585C55.3196 1.29389 54.987 1.63475 54.7387 2.03464C54.465 2.4749 54.2563 2.95234 54.119 3.45222C53.9673 3.98304 53.8531 4.52388 53.7773 5.07074C53.7031 5.59944 53.6565 6.13165 53.6378 6.66521C53.6209 7.18025 53.6125 7.63151 53.6125 8.019C53.6125 8.55971 53.6253 9.24724 53.651 10.0816C53.6781 10.9407 53.7496 11.7978 53.8652 12.6496C53.9732 13.4803 54.147 14.3012 54.3849 15.1044C54.6127 15.8626 54.9203 16.4362 55.3078 16.8253C55.5678 17.0962 55.8955 17.2927 56.257 17.3945C56.616 17.4886 56.9857 17.5351 57.3567 17.5328C58.0152 17.5328 58.5551 17.3515 58.9762 16.9889C59.4058 16.6153 59.7476 16.1514 59.9772 15.6303C60.2243 15.0795 60.3905 14.4959 60.4705 13.8975C60.549 13.3316 60.5892 12.7611 60.5908 12.1899L60.9951 12.1646V17.8072L60.6413 17.8325C60.6228 17.7087 60.5842 17.5888 60.527 17.4775C60.5019 17.4221 60.4607 17.3756 60.4088 17.3441C60.3568 17.3125 60.2966 17.2973 60.2359 17.3006C59.9331 17.3007 59.6315 17.3391 59.3383 17.4149C59.0423 17.4911 58.7472 17.5713 58.4528 17.6556C58.1584 17.7398 57.8588 17.82 57.554 17.8963C56.6986 18.1105 55.8588 17.9793 55.0503 17.6556C54.225 17.3446 53.5023 16.8105 52.9628 16.1129C52.4316 15.4188 52.0186 14.6418 51.7404 13.8132C51.4507 12.9553 51.2598 12.067 51.1713 11.1658C51.0815 10.3043 51.0349 9.43876 51.0317 8.57255C51.0314 7.54915 51.1289 6.52805 51.3229 5.52321C51.4958 4.57543 51.8386 3.66672 52.3348 2.8409C52.8138 2.05865 53.4741 1.40321 54.2598 0.929951C54.7824 0.620889 55.3575 0.410799 55.9563 0.310213C56.3998 0.225989 56.8526 0.201708 57.3026 0.238014V0.238014Z" fill="#F2F2F2"/>
</g>
<defs>
<clipPath id="clip0_288_975">
<rect width="61" height="18" fill="white"/>
</clipPath>
</defs>
</svg>
