<svg width="98" height="35" viewBox="0 0 98 35" fill="none" xmlns="http://www.w3.org/2000/svg">
<path d="M98 0H0V35H98V0Z" fill="#3A6351"/>
<path d="M14.1716 6.2621C13.1628 6.31065 12.3141 6.4401 11.6415 6.66663C10.969 6.89317 10.4245 7.23298 10.0082 7.70223C9.59185 8.17149 9.30361 8.75401 9.12747 9.44981C8.95133 10.1456 8.88727 11.0194 8.90329 12.0388H8.39087V5.64722H22.8347V12.0388H22.3222C22.3222 11.0194 22.2422 10.1456 22.082 9.43362C21.9219 8.72165 21.6497 8.12295 21.2494 7.66987C20.849 7.20061 20.3206 6.86081 19.6481 6.65045C18.9755 6.4401 18.1108 6.31065 17.0539 6.2621V27.5242C17.0539 27.9935 17.1981 28.3009 17.5023 28.4304C17.8066 28.5598 18.1428 28.6084 18.5271 28.576V29.1585H12.6183V28.576C13.1628 28.5922 13.5471 28.5437 13.8033 28.398C14.0435 28.2686 14.1716 27.8802 14.1716 27.2815V6.2621Z" fill="#F2F2F2"/>
<path d="M63.0435 5.64716V6.32677L62.7713 6.29441C62.3229 6.29441 62.0187 6.40768 61.8585 6.63422C61.6984 6.86076 61.5703 7.1682 61.4582 7.55655L55.9017 29.1585H54.3484C53.5638 26.165 52.7631 23.1876 51.9625 20.2426C51.1618 17.2976 50.3451 14.3203 49.5445 11.3268L44.9968 29.1585H43.4115L41.1216 20.5501L37.951 8.73778C37.887 8.49506 37.8069 8.21998 37.7268 7.92872C37.6468 7.63745 37.5347 7.36237 37.4066 7.11965C37.2785 6.87694 37.1023 6.66658 36.8942 6.48859C36.686 6.31059 36.4298 6.22969 36.0935 6.22969V5.64716H41.9543V6.22969C41.634 6.22969 41.3458 6.26205 41.0736 6.34296C40.8014 6.42386 40.6732 6.66658 40.6732 7.07111C40.6732 7.18438 40.7213 7.49182 40.8494 8.00962C40.9615 8.52742 41.1056 9.15849 41.2978 9.95137C41.4899 10.7281 41.7141 11.618 41.9543 12.6051C42.1945 13.5921 42.4507 14.5954 42.7069 15.6148C42.9631 16.6342 43.2353 17.6536 43.4915 18.6731C43.7638 19.6925 44.004 20.631 44.2281 21.5048C44.4523 22.3624 44.6445 23.1067 44.8206 23.7378C44.9968 24.3688 45.1089 24.8057 45.1729 25.0808L48.5677 11.4077C48.6798 11.0193 48.7759 10.631 48.8399 10.2588C48.904 9.87046 48.936 9.48211 48.936 9.0614C48.936 8.83487 48.904 8.5436 48.8559 8.2038C48.7919 7.86399 48.7118 7.54037 48.5837 7.2491C48.4556 6.95784 48.2955 6.69894 48.0713 6.50477C47.8631 6.29441 47.5909 6.21351 47.2866 6.22969V5.64716H52.8752V6.22969C52.5549 6.22969 52.2667 6.26205 51.9785 6.31059C51.6902 6.37532 51.5621 6.61804 51.5621 7.03875C51.5621 7.2491 51.5942 7.49182 51.6422 7.7669C51.6902 8.05817 51.7703 8.33325 51.8664 8.64069C51.9625 8.93195 52.0425 9.22322 52.1226 9.53066C52.2027 9.82192 52.2667 10.0808 52.3468 10.275C53.0674 12.7507 53.7079 15.2265 54.3004 17.686C54.8768 20.1617 55.4853 22.6375 56.1259 25.097L60.3053 8.34943C60.3533 8.10671 60.4014 7.86399 60.4494 7.62127C60.4974 7.37855 60.5295 7.13584 60.5295 6.89312C60.5295 6.7313 60.4654 6.60186 60.3373 6.52095C60.2092 6.42386 60.0651 6.35914 59.9049 6.31059C59.7288 6.26205 59.5687 6.22969 59.3925 6.22969C59.2164 6.21351 59.0883 6.21351 58.9762 6.21351V5.63098H63.0435V5.64716Z" fill="#F2F2F2"/>
<path d="M29.7363 5.53394H29.2239V29.1747H29.7363V5.53394Z" fill="#F2F2F2"/>
<path d="M84.6772 5.84139C85.2537 5.88993 85.8301 6.03556 86.3746 6.27828C86.6628 6.40773 86.919 6.521 87.1432 6.61809C87.3834 6.71518 87.5595 6.76372 87.7037 6.76372C87.8798 6.76372 88.0079 6.68281 88.088 6.50482C88.168 6.32683 88.2001 6.16501 88.168 6.01938H88.6805V12.6537H88.168C88.168 12.1521 88.088 11.5372 87.9278 10.809C87.7677 10.0809 87.5435 9.40126 87.2393 8.75401C86.935 8.10676 86.5507 7.5566 86.0703 7.08734C85.6059 6.61809 85.0455 6.39155 84.421 6.39155C83.6844 6.39155 83.0439 6.56955 82.5314 6.90935C82.019 7.24916 81.5867 7.70223 81.2344 8.25239C80.8821 8.80255 80.6099 9.4498 80.4017 10.1618C80.1935 10.8738 80.0494 11.6019 79.9533 12.3462C79.8572 13.0906 79.7932 13.8026 79.7612 14.4822C79.7452 15.178 79.7291 15.7767 79.7291 16.2945C79.7291 17.0226 79.7452 17.9449 79.7772 19.0615C79.8092 20.178 79.9053 21.343 80.0654 22.5081C80.2256 23.6893 80.4497 24.7896 80.754 25.809C81.0582 26.8284 81.4586 27.6051 81.987 28.1229C82.3713 28.5113 82.7876 28.7702 83.252 28.8835C83.7164 29.0129 84.1968 29.0776 84.7092 29.0776C85.5899 29.0776 86.3105 28.8349 86.871 28.3495C87.4314 27.864 87.8798 27.2492 88.2001 26.5372C88.5203 25.809 88.7445 25.0323 88.8566 24.2071C88.9687 23.3818 89.0327 22.6213 89.0327 21.9093L89.5772 21.877V29.466L89.1128 29.4983C89.0968 29.3365 89.0327 29.1747 88.9687 29.0291C88.8886 28.8673 88.7605 28.7864 88.5844 28.7864C88.1841 28.7864 87.7837 28.8349 87.3834 28.932C86.9831 29.0291 86.5988 29.1424 86.1984 29.2556C85.7981 29.3689 85.4138 29.4822 84.9974 29.5793C83.8605 29.8705 82.7396 29.6925 81.6667 29.2556C80.5298 28.8026 79.601 28.1068 78.8965 27.1844C78.1919 26.2621 77.6474 25.2265 77.2631 24.0938C76.8788 22.9611 76.6226 21.7799 76.5105 20.5339C76.3824 19.3042 76.3184 18.1391 76.3184 17.0388C76.3184 15.6634 76.4465 14.288 76.7027 12.9449C76.9589 11.6019 77.4072 10.3883 78.0478 9.33653C78.6883 8.28476 79.537 7.42715 80.6099 6.76372C81.2984 6.34301 82.0671 6.06793 82.8677 5.9223C83.4762 5.84139 84.0847 5.79285 84.6772 5.84139Z" fill="#F2F2F2"/>
<path d="M69.9291 5.53394H69.4167V29.1747H69.9291V5.53394Z" fill="#F2F2F2"/>
</svg>
