<svg width="126" height="84" viewBox="0 0 126 84" fill="none" xmlns="http://www.w3.org/2000/svg">
<g clip-path="url(#clip0_140_11526)">
<path d="M117.311 30.1626V57.0326L117.221 58.8126C117.202 60.5243 116.509 62.1597 115.292 63.3636C114.075 64.5675 112.433 65.2427 110.721 65.2426H97.5209L95.6808 78.4126C95.4668 79.9467 94.707 81.3523 93.5407 82.3716C92.3744 83.391 90.8798 83.9558 89.3309 83.9626C89.0432 83.9621 88.7558 83.9421 88.4708 83.9026C87.6268 83.8003 86.8115 83.5313 86.0723 83.1114C85.333 82.6914 84.6845 82.1288 84.1645 81.4561C83.6444 80.7835 83.2631 80.0143 83.0428 79.1931C82.8224 78.372 82.7674 77.5152 82.8809 76.6726L85.6808 55.9926C85.8205 54.9789 86.3211 54.0497 87.0908 53.3755C87.8605 52.7013 88.8476 52.3275 89.8708 52.3226H100.871V42.1026L99.2808 43.6926C98.8913 44.0757 98.3672 44.2911 97.8209 44.2926H84.1309C82.701 44.2319 81.3498 43.6211 80.3596 42.5879C79.3693 41.5546 78.8164 40.1788 78.8164 38.7476C78.8164 37.3164 79.3693 35.9406 80.3596 34.9073C81.3498 33.8741 82.701 33.2633 84.1309 33.2026H94.0809L101.391 25.8926C102.991 22.1726 108.961 21.9926 109.021 21.9926C110.102 21.982 111.175 22.1853 112.178 22.5906C113.181 22.996 114.093 23.5955 114.864 24.3547C115.634 25.1139 116.247 26.0178 116.667 27.0145C117.087 28.0112 117.306 29.081 117.311 30.1626Z" fill="white"/>
<path d="M108.53 20.6922C106.483 20.6922 104.482 20.0852 102.78 18.9479C101.078 17.8106 99.7509 16.1942 98.9675 14.303C98.1842 12.4118 97.9792 10.3307 98.3786 8.32302C98.7779 6.31532 99.7637 4.47112 101.211 3.02364C102.659 1.57617 104.503 0.590418 106.511 0.191061C108.518 -0.208296 110.599 -0.00331706 112.49 0.78005C114.382 1.56342 115.998 2.88998 117.135 4.59203C118.273 6.29408 118.88 8.29515 118.88 10.3422C118.877 13.0864 117.786 15.7174 115.845 17.6578C113.905 19.5983 111.274 20.6895 108.53 20.6922ZM108.53 4.12218C107.297 4.12218 106.092 4.48784 105.067 5.17284C104.043 5.85785 103.244 6.83142 102.773 7.97039C102.302 9.10935 102.179 10.3625 102.42 11.5713C102.661 12.7801 103.256 13.8901 104.128 14.761C105 15.6319 106.111 16.2244 107.32 16.4637C108.53 16.703 109.783 16.5782 110.921 16.1051C112.059 15.632 113.031 14.8319 113.715 13.8061C114.398 12.7803 114.762 11.5748 114.76 10.3422C114.757 8.69162 114.1 7.10957 112.931 5.94338C111.763 4.77719 110.18 4.12218 108.53 4.12218Z" fill="#333333"/>
<path d="M109.021 21.9923C108.961 21.9923 103.021 22.1723 101.391 25.8923L94.0809 33.2023H84.1309C82.701 33.263 81.3498 33.8738 80.3596 34.907C79.3693 35.9403 78.8164 37.3161 78.8164 38.7473C78.8164 40.1785 79.3693 41.5543 80.3596 42.5876C81.3498 43.6208 82.701 44.2316 84.1309 44.2923H97.8209C98.3672 44.2908 98.8913 44.0755 99.2808 43.6923L100.871 42.1023V52.3223H89.8708C88.8476 52.3272 87.8605 52.701 87.0908 53.3752C86.3211 54.0494 85.8205 54.9786 85.6808 55.9923L82.9208 76.6923C82.7244 78.3732 83.1954 80.064 84.2325 81.4012C85.2697 82.7385 86.7902 83.6153 88.467 83.8433C90.1439 84.0713 91.8433 83.6321 93.1998 82.6202C94.5562 81.6084 95.4614 80.1046 95.7208 78.4323L97.5209 65.2623H110.681C112.393 65.2624 114.035 64.5872 115.252 63.3833C116.469 62.1794 117.162 60.5441 117.181 58.8323L117.271 57.0523V30.1623C117.266 29.0841 117.048 28.0176 116.631 27.0235C116.213 26.0294 115.604 25.1273 114.838 24.3686C114.072 23.61 113.164 23.0096 112.166 22.6019C111.168 22.1942 110.099 21.987 109.021 21.9923ZM113.201 56.9123L113.101 58.5723V58.7423C113.098 59.3727 112.847 59.9765 112.401 60.4223C111.955 60.8681 111.351 61.1197 110.721 61.1223H95.6808C95.1901 61.132 94.7189 61.3167 94.3522 61.6431C93.9856 61.9694 93.7475 62.416 93.6808 62.9023L91.6808 77.9023C91.6083 78.4538 91.3383 78.9603 90.921 79.3281C90.5036 79.6958 89.9671 79.8998 89.4108 79.9023H89.0109C88.7093 79.864 88.4182 79.7666 88.1543 79.6157C87.8904 79.4647 87.6589 79.2631 87.4731 79.0225C87.2873 78.7819 87.1509 78.507 87.0715 78.2135C86.9922 77.92 86.9716 77.6138 87.0109 77.3123L89.8109 56.6423C89.8131 56.6139 89.8254 56.5872 89.8456 56.5671C89.8657 56.5469 89.8924 56.5346 89.9208 56.5323H102.921C103.467 56.5323 103.991 56.3153 104.378 55.9289C104.764 55.5426 104.981 55.0186 104.981 54.4723V37.1223C104.98 36.7147 104.859 36.3165 104.632 35.9781C104.405 35.6396 104.082 35.3761 103.705 35.2208C103.329 35.0656 102.914 35.0257 102.515 35.106C102.115 35.1864 101.748 35.3835 101.461 35.6723L96.9609 40.1723H84.1309C83.9426 40.1684 83.757 40.1272 83.5849 40.0509C83.4128 39.9747 83.2575 39.865 83.1282 39.7282C82.9988 39.5914 82.898 39.4303 82.8315 39.2542C82.765 39.078 82.7342 38.8904 82.7408 38.7023C82.7435 38.3354 82.8911 37.9844 83.1515 37.7259C83.4119 37.4674 83.7639 37.3223 84.1309 37.3223H94.9409C95.2112 37.3239 95.4791 37.2707 95.7283 37.1658C95.9776 37.061 96.203 36.9067 96.3909 36.7123L104.631 28.4823C104.88 28.2276 105.062 27.9149 105.161 27.5723C105.361 26.8323 107.691 26.1523 109.161 26.1123C110.225 26.128 111.241 26.5613 111.99 27.3189C112.738 28.0764 113.158 29.0976 113.161 30.1623L113.201 56.9123Z" fill="#333333"/>
<path d="M85.1207 49.7891H41.5307C40.9844 49.7891 40.4604 50.0061 40.0741 50.3924C39.6878 50.7788 39.4707 51.3027 39.4707 51.8491C39.4707 52.3954 39.6878 52.9194 40.0741 53.3057C40.4604 53.692 40.9844 53.9091 41.5307 53.9091H61.2607V81.9091C61.2607 82.4554 61.4777 82.9794 61.8641 83.3657C62.2504 83.752 62.7744 83.9691 63.3207 83.9691C63.8671 83.9691 64.391 83.752 64.7773 83.3657C65.1637 82.9794 65.3807 82.4554 65.3807 81.9091V53.9091H85.1207C85.6671 53.9091 86.1911 53.692 86.5774 53.3057C86.9637 52.9194 87.1807 52.3954 87.1807 51.8491C87.1807 51.3027 86.9637 50.7788 86.5774 50.3924C86.1911 50.0061 85.6671 49.7891 85.1207 49.7891Z" fill="#333333"/>
<path d="M123.579 48.2819C123.313 48.2344 123.039 48.24 122.775 48.2982C122.511 48.3565 122.26 48.4663 122.038 48.6214C121.816 48.7765 121.627 48.9739 121.481 49.2022C121.336 49.4305 121.237 49.6853 121.189 49.952L118.989 62.2219C118.359 63.5425 117.367 64.6565 116.127 65.4338C114.888 66.2112 113.453 66.6198 111.989 66.612H100.249C99.7031 66.612 99.1791 66.829 98.7928 67.2153C98.4065 67.6016 98.1895 68.1256 98.1895 68.672C98.1895 69.2183 98.4065 69.7423 98.7928 70.1286C99.1791 70.5149 99.7031 70.732 100.249 70.732H107.889V81.9019C107.87 82.1839 107.908 82.4668 108.003 82.7332C108.097 82.9996 108.245 83.2437 108.438 83.4504C108.631 83.6571 108.864 83.8219 109.123 83.9346C109.382 84.0472 109.662 84.1054 109.944 84.1054C110.227 84.1054 110.507 84.0472 110.766 83.9346C111.025 83.8219 111.258 83.6571 111.451 83.4504C111.644 83.2437 111.792 82.9996 111.886 82.7332C111.981 82.4668 112.019 82.1839 111.999 81.9019V70.6919C114.293 70.7037 116.541 70.0483 118.469 68.8055C120.398 67.5627 121.923 65.786 122.859 63.6919C122.926 63.5452 122.973 63.3906 122.999 63.232L125.239 50.6919C125.29 50.4246 125.287 50.1499 125.231 49.8837C125.175 49.6175 125.066 49.365 124.912 49.141C124.757 48.9169 124.56 48.7256 124.332 48.5782C124.103 48.4307 123.847 48.33 123.579 48.2819Z" fill="#333333"/>
<path d="M24.3506 42.2466V52.3166H35.3506C36.3708 52.3207 37.3555 52.6918 38.1248 53.3619C38.894 54.032 39.3966 54.9565 39.5406 55.9666L42.3406 76.6666C42.5654 78.3528 42.1128 80.0594 41.0819 81.4126C40.0511 82.7658 38.5259 83.6554 36.8406 83.8866C36.5093 83.9335 36.1751 83.9569 35.8406 83.9565C34.2905 83.9501 32.7946 83.3856 31.6266 82.3664C30.4587 81.3472 29.6969 79.9415 29.4806 78.4066L27.6806 65.2365H14.4806C12.7575 65.2339 11.1057 64.5482 9.88733 63.3298C8.66892 62.1114 7.98324 60.4596 7.98059 58.7365L7.89062 57.1465V30.1465C7.89591 27.9813 8.75834 25.9064 10.2894 24.3753C11.8204 22.8443 13.8954 21.9818 16.0606 21.9766H16.2506C16.8906 21.9766 22.2506 22.2966 23.8206 26.0366L31.1206 33.3365H41.0606C42.4905 33.3973 43.8416 34.008 44.8319 35.0413C45.8222 36.0745 46.3751 37.4504 46.3751 38.8816C46.3751 40.3127 45.8222 41.6886 44.8319 42.7218C43.8416 43.7551 42.4905 44.3658 41.0606 44.4265H27.4006C26.8542 44.4251 26.3301 44.2097 25.9406 43.8266L24.3506 42.2466Z" fill="#01AB8D"/>
<path d="M16.6801 20.6922C14.633 20.6922 12.632 20.0852 10.93 18.9479C9.2279 17.8106 7.90131 16.1942 7.11794 14.303C6.33457 12.4118 6.12959 10.3307 6.52895 8.32302C6.92831 6.31532 7.91406 4.47112 9.36153 3.02364C10.809 1.57617 12.6532 0.590418 14.6609 0.191061C16.6686 -0.208296 18.7496 -0.00331706 20.6408 0.78005C22.532 1.56342 24.1485 2.88998 25.2858 4.59203C26.4231 6.29408 27.0301 8.29515 27.0301 10.3422C27.0274 13.0864 25.9361 15.7174 23.9957 17.6578C22.0553 19.5983 19.4243 20.6895 16.6801 20.6922ZM16.6801 4.12218C15.4475 4.12218 14.2426 4.48784 13.2179 5.17284C12.1931 5.85785 11.3946 6.83142 10.9234 7.97039C10.4521 9.10935 10.3293 10.3625 10.5705 11.5713C10.8117 12.7801 11.4061 13.8901 12.2783 14.761C13.1506 15.6319 14.2616 16.2244 15.4708 16.4637C16.6799 16.703 17.9329 16.5782 19.0711 16.1051C20.2093 15.632 21.1817 14.8319 21.865 13.8061C22.5484 12.7803 22.912 11.5748 22.9101 10.3422C22.9074 8.69162 22.2499 7.10957 21.0818 5.94338C19.9137 4.77719 18.3306 4.12218 16.6801 4.12218Z" fill="#333333"/>
<path d="M25.9399 43.8422C26.3295 44.2253 26.8535 44.4407 27.3999 44.4422H41.0899C42.5198 44.3815 43.871 43.7707 44.8613 42.7375C45.8516 41.7042 46.4044 40.3284 46.4044 38.8972C46.4044 37.466 45.8516 36.0902 44.8613 35.0569C43.871 34.0237 42.5198 33.4129 41.0899 33.3522H31.1499L23.8499 26.0522C22.3199 22.3122 16.9199 22.0522 16.2799 21.9922H16.0899C13.9247 21.9975 11.8498 22.8599 10.3187 24.391C8.7877 25.922 7.9252 27.997 7.91992 30.1622V57.1622L8.00995 58.7522C8.01259 60.4753 8.69827 62.127 9.91669 63.3455C11.1351 64.5639 12.7869 65.2496 14.5099 65.2522H27.6799L29.4699 78.4222C29.6862 79.9572 30.448 81.3629 31.616 82.382C32.7839 83.4012 34.2799 83.9657 35.83 83.9722C36.1645 83.9725 36.4987 83.9491 36.83 83.9022C38.5153 83.6711 40.0404 82.7815 41.0713 81.4283C42.1021 80.075 42.5547 78.3684 42.33 76.6822L39.5299 55.9822C39.3859 54.9722 38.8833 54.0477 38.1141 53.3776C37.3448 52.7074 36.3601 52.3364 35.3399 52.3322H24.3399V42.2522L25.9399 43.8422ZM22.2899 56.4422H35.2899C35.3163 56.4456 35.341 56.457 35.3607 56.4749C35.3803 56.4928 35.394 56.5163 35.3999 56.5422L38.2 77.2222C38.2811 77.8261 38.1192 78.4375 37.7499 78.9222C37.5554 79.1722 37.3126 79.3807 37.0361 79.5352C36.7595 79.6898 36.4548 79.7874 36.14 79.8222C35.8383 79.8628 35.5316 79.8432 35.2375 79.7644C34.9435 79.6856 34.6681 79.5492 34.4272 79.3632C34.1863 79.1772 33.9846 78.9452 33.834 78.6806C33.6835 78.4161 33.5869 78.1243 33.5499 77.8222L31.5499 62.8222C31.4833 62.3359 31.2452 61.8893 30.8785 61.563C30.5119 61.2366 30.0407 61.052 29.5499 61.0422H14.5499C13.9195 61.0396 13.3157 60.788 12.8699 60.3422C12.4242 59.8964 12.1726 59.2926 12.1699 58.6622C12.1747 58.6056 12.1747 58.5488 12.1699 58.4922L12.08 56.9522V30.1622C12.0826 29.626 12.1911 29.0956 12.3993 28.6015C12.6075 28.1074 12.9113 27.6593 13.2932 27.283C13.6751 26.9066 14.1276 26.6095 14.6248 26.4086C15.1219 26.2076 15.6538 26.1069 16.1899 26.1122C17.6599 26.1622 19.8599 26.8022 20.1199 27.7222C20.2184 28.0648 20.4005 28.3775 20.6499 28.6322L28.89 36.8622C29.0779 37.0566 29.3032 37.2109 29.5524 37.3157C29.8017 37.4206 30.0695 37.4738 30.3399 37.4722H41.1299C41.3173 37.4748 41.5022 37.5144 41.6742 37.5888C41.8461 37.6632 42.0016 37.7709 42.1318 37.9057C42.2619 38.0405 42.3641 38.1997 42.4324 38.3742C42.5008 38.5486 42.5339 38.7349 42.5299 38.9222C42.5312 39.1047 42.4966 39.2857 42.428 39.4549C42.3593 39.624 42.258 39.778 42.1299 39.908C42.0017 40.038 41.8492 40.1415 41.6811 40.2126C41.513 40.2837 41.3324 40.3209 41.1499 40.3222H28.2499L23.7499 35.8222C23.4624 35.5334 23.0957 35.3363 22.6961 35.2559C22.2966 35.1756 21.8821 35.2155 21.5053 35.3708C21.1285 35.526 20.8061 35.7895 20.5791 36.128C20.3521 36.4664 20.2306 36.8646 20.2299 37.2722V54.3822C20.2299 54.9285 20.447 55.4525 20.8333 55.8388C21.2196 56.2252 21.7436 56.4422 22.2899 56.4422Z" fill="#333333"/>
<path d="M25.0199 66.6089H13.2399C11.7859 66.6106 10.3612 66.2 9.13102 65.4247C7.90089 64.6495 6.91576 63.5414 6.2899 62.2289L4.08989 48.4389C4.00369 47.8992 3.70667 47.4158 3.26408 47.0951C2.82149 46.7744 2.26962 46.6427 1.7299 46.7289C1.19019 46.8151 0.706838 47.1122 0.386151 47.5548C0.0654635 47.9973 -0.0662555 48.5492 0.0199398 49.0889L2.25993 63.1589C2.29 63.3309 2.34032 63.4988 2.40989 63.6589C3.33994 65.7539 4.85865 67.5337 6.78129 68.7817C8.70394 70.0297 10.9477 70.6923 13.2399 70.6889V81.8589C13.2399 82.4053 13.4569 82.9292 13.8432 83.3156C14.2296 83.7019 14.7536 83.9189 15.2999 83.9189C15.8463 83.9189 16.3702 83.7019 16.7566 83.3156C17.1429 82.9292 17.3599 82.4053 17.3599 81.8589V70.6889H24.9899C25.5363 70.6889 26.0602 70.4719 26.4466 70.0856C26.8329 69.6992 27.0499 69.1753 27.0499 68.6289C27.0499 68.0826 26.8329 67.5586 26.4466 67.1723C26.0602 66.786 25.5363 66.5689 24.9899 66.5689L25.0199 66.6089Z" fill="#333333"/>
<path d="M56.4107 49.189H42.9007C42.6188 49.2087 42.3358 49.1702 42.0695 49.0758C41.8031 48.9814 41.559 48.8333 41.3523 48.6405C41.1456 48.4478 40.9808 48.2146 40.8681 47.9554C40.7554 47.6962 40.6973 47.4166 40.6973 47.134C40.6973 46.8514 40.7554 46.5718 40.8681 46.3126C40.9808 46.0535 41.1456 45.8203 41.3523 45.6275C41.559 45.4348 41.8031 45.2866 42.0695 45.1923C42.3358 45.0979 42.6188 45.0594 42.9007 45.079H54.7708L58.8707 27.079C58.9103 26.7962 59.0083 26.5247 59.1584 26.2817C59.3086 26.0388 59.5077 25.8297 59.7429 25.6678C59.9782 25.5058 60.2445 25.3946 60.5251 25.3411C60.8056 25.2876 61.0942 25.2931 61.3726 25.3571C61.6509 25.4211 61.9129 25.5423 62.1419 25.713C62.3709 25.8837 62.5619 26.1001 62.7028 26.3485C62.8436 26.597 62.9314 26.872 62.9603 27.1561C62.9892 27.4403 62.9587 27.7273 62.8707 27.999L58.4107 47.559C58.3234 48.0231 58.0748 48.4413 57.7087 48.7396C57.3427 49.038 56.8829 49.1972 56.4107 49.189Z" fill="#333333"/>
<path d="M83.7499 49.1932H70.2299C69.7648 49.1914 69.3141 49.0323 68.951 48.7418C68.5879 48.4513 68.3337 48.0465 68.2299 47.5932L63.7699 28.0332C63.6984 27.5228 63.8209 27.0041 64.1131 26.5796C64.4052 26.155 64.846 25.8554 65.3482 25.7399C65.8505 25.6244 66.3778 25.7013 66.8261 25.9556C67.2744 26.2098 67.6112 26.6228 67.7699 27.1132L71.8599 45.1132H83.7399C84.2601 45.1495 84.7472 45.3818 85.1029 45.7631C85.4586 46.1445 85.6564 46.6467 85.6564 47.1682C85.6564 47.6897 85.4586 48.1918 85.1029 48.5732C84.7472 48.9546 84.2601 49.1869 83.7399 49.2232L83.7499 49.1932Z" fill="#333333"/>
</g>
<defs>
<clipPath id="clip0_140_11526">
<rect width="125.28" height="83.96" fill="white"/>
</clipPath>
</defs>
</svg>
