<svg width="138" height="108" viewBox="0 0 138 108" fill="none" xmlns="http://www.w3.org/2000/svg">
<path d="M63.2992 30.6016H55.6992V48.0016H63.2992V30.6016Z" fill="#01AB8D"/>
<path d="M81.2992 29.8984H73.6992V47.2984H81.2992V29.8984Z" fill="#01AB8D"/>
<path d="M49.3 50.8016C49.3 52.4016 48.7 53.9016 47.5 55.1016L43.1 59.5016C41.1 61.5016 38.8 62.6016 36.5 62.6016C34.6 62.6016 32.8 61.8016 31.3 60.4016L30.7 59.8016L28.9 58.0016V71.7016L28.6 101.202C29.2 104.002 27.5 106.902 24.7 107.702C24.1 107.902 23.5 107.902 22.9 107.902C21 107.902 19.4 107.102 18.3 105.902C17.2 107.102 15.5 107.902 13.7 107.902C13.2 107.902 12.6 107.802 12.1 107.702C12.1 107.702 12 107.702 11.9 107.702C10.6 107.302 9.4 106.402 8.7 105.102C8 103.902 7.9 102.502 8.1 101.202L8 71.9016C7 72.3016 5.8 72.3016 4.7 72.1016C2 71.5016 0 68.9016 0 66.0016V49.6016C0 44.1016 4.5 39.6016 10 39.6016H23.2C26 39.6016 28.7 40.7016 30.7 42.7016L36.7 48.7016L38.9 46.5016C40 45.4016 41.6 44.7016 43.2 44.7016C44.8 44.7016 46.3 45.3016 47.5 46.5016C48.7 47.7016 49.3 49.2016 49.3 50.8016Z" fill="white"/>
<path d="M18.5 38.5969C12.7 38.5969 8 33.8969 8 28.1969C8 22.4969 12.7 17.7969 18.4 17.7969C24.1 17.7969 28.8 22.4969 28.8 28.1969C28.9 33.8969 24.2 38.5969 18.5 38.5969ZM18.5 21.8969C15 21.8969 12.2 24.6969 12.2 28.1969C12.2 31.6969 15 34.4969 18.5 34.4969C22 34.4969 24.8 31.6969 24.8 28.1969C24.8 24.6969 21.9 21.8969 18.5 21.8969Z" fill="#333333"/>
<path d="M47.5 46.5016C46.4 45.3016 44.8 44.7016 43.2 44.7016C41.6 44.7016 40.1 45.3016 38.9 46.5016L36.7 48.7016L30.7 42.7016C28.7 40.7016 26.1 39.6016 23.2 39.6016H10C4.5 39.6016 0 44.1016 0 49.6016V66.0016C0 68.9016 2 71.5016 4.8 72.1016C5.9 72.3016 7 72.2016 8 71.9016L8.1 101.102C7.8 102.402 8 103.802 8.7 105.002C9.4 106.302 10.6 107.202 11.9 107.602C11.9 107.602 12 107.602 12.1 107.602C12.6 107.802 13.2 107.802 13.7 107.802C15.5 107.802 17.2 107.002 18.3 105.802C19.3 107.002 21 107.802 22.9 107.802C23.5 107.802 24.1 107.702 24.7 107.602C27.5 106.802 29.2 103.902 28.6 101.102L28.9 71.6016V58.0016L30.7 59.8016L31.3 60.4016C32.8 61.9016 34.6 62.6016 36.5 62.6016C38.8 62.6016 41.1 61.5016 43.1 59.5016L47.5 55.1016C48.6 54.0016 49.3 52.4016 49.3 50.8016C49.3 49.2016 48.7 47.7016 47.5 46.5016ZM44.6 52.2016L40.2 56.6016C38.1 58.7016 35.9 59.1016 34.2 57.5016L33.6 56.9016C31.7 55.0016 30.4 53.7016 28.3 51.6016C27.7 51.0016 26.8 50.8016 26.1 51.2016C25.3 51.5016 24.8 52.3016 24.8 53.1016V71.7016L24.5 101.402C24.5 101.602 24.5 101.802 24.6 102.002C24.8 102.702 24.4 103.502 23.6 103.702C22.8 103.902 21.8 103.702 21.5 103.302L20.6 73.7016C20.6 72.6016 19.7 71.7016 18.5 71.7016C17.4 71.7016 16.5 72.6016 16.4 73.7016L15.4 103.002C15.2 103.402 14.5 103.802 13.8 103.802C13.6 103.802 13.5 103.802 13.4 103.802H13.3C12.9 103.702 12.6 103.502 12.5 103.102C12.3 102.802 12.3 102.402 12.4 102.002C12.4 101.802 12.5 101.602 12.5 101.402L12.4 71.7016V51.3016C12.4 50.2016 11.5 49.2016 10.3 49.2016C9 49.2016 8 50.2016 8 51.3016V66.2016C8 66.7016 7.8 67.2016 7.4 67.5016C7 68.0016 6.3 68.2016 5.6 68.0016C4.7 67.8016 4.1 66.9016 4.1 66.0016V49.6016C4.1 46.4016 6.7 43.7016 10 43.7016H23.2C24.9 43.7016 26.5 44.4016 27.8 45.6016L35.3 53.1016C36.1 53.9016 37.4 53.9016 38.2 53.1016L41.9 49.4016C42.6 48.7016 43.8 48.6016 44.7 49.5016C45.1 49.9016 45.3 50.3016 45.3 50.9016C45.2 51.3016 45 51.8016 44.6 52.2016Z" fill="#333333"/>
<path d="M119.698 38.5969C125.398 38.5969 130.098 33.8969 130.098 28.1969C130.098 22.4969 125.398 17.7969 119.698 17.7969C113.998 17.7969 109.298 22.4969 109.298 28.1969C109.198 33.8969 113.898 38.5969 119.698 38.5969ZM119.698 21.8969C123.198 21.8969 125.998 24.6969 125.998 28.1969C125.998 31.6969 123.198 34.4969 119.698 34.4969C116.198 34.4969 113.398 31.6969 113.398 28.1969C113.398 24.6969 116.198 21.8969 119.698 21.8969Z" fill="#333333"/>
<path d="M127.999 39.5938H111.199C105.699 39.5938 101.199 44.0938 101.199 49.5938V65.9938C101.199 68.8938 103.199 71.4937 105.999 72.0938C106.399 72.1937 106.799 72.1937 107.299 72.1937C107.999 72.1937 108.699 72.0938 109.299 71.7938L109.399 101.094C108.799 103.894 110.499 106.794 113.199 107.594C113.199 107.594 113.299 107.594 113.399 107.594C115.699 108.194 118.099 107.494 119.599 105.794C120.599 106.994 122.299 107.794 124.199 107.794C124.799 107.794 125.399 107.694 125.999 107.494C128.799 106.694 130.499 103.794 129.899 100.994L130.199 71.6937C130.799 71.8937 131.499 71.9938 132.099 71.9938C132.499 71.9938 132.899 71.9938 133.399 71.8938C136.199 71.2938 138.199 68.7938 138.199 65.7938V49.5938C137.999 44.0938 133.499 39.5938 127.999 39.5938ZM133.899 65.9938C133.899 66.9938 133.299 67.8938 132.399 67.9938C131.699 68.0938 131.099 67.8938 130.599 67.4938C130.299 67.1938 130.199 66.8937 130.099 66.5938C130.099 66.4937 130.099 66.2937 130.099 66.1937V51.2938C130.099 50.1938 129.199 49.1938 127.999 49.1938C126.899 49.1938 125.899 50.0938 125.899 51.2938V66.1937C125.899 66.2937 125.899 66.4937 125.899 66.5938C125.899 66.6938 125.899 66.7938 125.899 66.8938V66.9938L125.599 101.294C125.599 101.494 125.599 101.694 125.699 101.894C125.899 102.594 125.499 103.394 124.699 103.594C123.899 103.794 122.799 103.594 122.599 103.194L121.699 73.5938C121.699 72.4938 120.799 71.5938 119.699 71.5938C118.599 71.5938 117.699 72.4938 117.599 73.5938L116.499 102.894C116.399 103.094 116.099 103.294 115.799 103.494C115.299 103.694 114.799 103.794 114.499 103.694C114.499 103.694 114.399 103.694 114.299 103.594C113.599 103.394 113.099 102.594 113.299 101.894C113.399 101.694 113.399 101.494 113.399 101.294L113.299 71.5938V66.0938V51.1938C113.299 50.0938 112.399 49.0938 111.199 49.0938C110.099 49.0938 109.099 49.9938 109.099 51.1938V66.0938C109.099 66.1938 109.099 66.3938 109.099 66.4938C108.999 66.8938 108.799 67.1938 108.599 67.3938C108.099 67.8938 107.399 68.0938 106.799 67.8938C105.899 67.6938 105.299 66.7938 105.299 65.8938V49.5938C105.299 46.2937 107.899 43.6938 111.199 43.6938H127.999C131.199 43.6938 133.899 46.3938 133.899 49.5938V65.9938Z" fill="#333333"/>
<path d="M91.3008 32.9984H84.3008V29.7984C84.3008 28.6984 83.4008 27.6984 82.2008 27.6984H75.2008V23.4984C75.2008 22.3984 74.3008 21.3984 73.1008 21.3984H64.0008C62.9008 21.3984 61.9008 22.2984 61.9008 23.4984V27.6984H54.9008C53.8008 27.6984 52.8008 28.5984 52.8008 29.7984V48.1984C52.8008 49.2984 53.7008 50.2984 54.9008 50.2984H64.0008H73.1008H82.2008H91.3008C92.4008 50.2984 93.4008 49.3984 93.4008 48.1984V35.0984C93.4008 33.8984 92.5008 32.9984 91.3008 32.9984ZM57.0008 31.8984H62.0008V46.1984H57.0008V31.8984ZM66.1008 29.7984V25.5984H71.1008V29.7984V46.1984H66.1008V29.7984ZM75.2008 31.8984H80.2008V35.0984V46.1984H75.2008V31.8984ZM89.3008 46.1984H84.3008V37.1984H89.3008V46.1984Z" fill="#333333"/>
<path d="M111.5 0H34.8C32.7 0 31 1.8 31 3.9V8.8C31 9.8 31.7 10.6 32.6 10.8V41.4C32.6 42.5 33.5 43.5 34.7 43.5C35.8 43.5 36.8 42.6 36.8 41.4V10.9H109.7V16C109.7 17.1 110.6 18.1 111.8 18.1C112.9 18.1 113.9 17.2 113.9 16V10.8C114.8 10.6 115.5 9.8 115.5 8.8V3.9C115.3 1.8 113.6 0 111.5 0ZM35.1 6.8V4.1H111.1V6.8H35.1Z" fill="#333333"/>
<path d="M97.4992 62.2031H78.0992H67.8992H41.7992C40.6992 62.2031 39.6992 63.1031 39.6992 64.3031C39.6992 65.5031 40.5992 66.4031 41.7992 66.4031H64.7992L54.9992 89.8031C54.5992 90.8031 55.0992 92.1031 56.0992 92.5031C56.3992 92.6031 56.5992 92.7031 56.8992 92.7031C57.6992 92.7031 58.4992 92.2031 58.7992 91.4031L69.2992 66.3031H76.6992L87.4992 91.4031C87.7992 92.2031 88.5992 92.6031 89.3992 92.6031C89.6992 92.6031 89.8992 92.5031 90.1992 92.4031C91.1992 92.0031 91.6992 90.7031 91.2992 89.7031L81.1992 66.3031H97.3992C98.4992 66.3031 99.4992 65.4031 99.4992 64.2031C99.4992 63.0031 98.5992 62.2031 97.4992 62.2031Z" fill="#333333"/>
<path d="M72.2992 24.1016H64.6992V47.3016H72.2992V24.1016Z" fill="white"/>
</svg>
