<svg width="119" height="122" viewBox="0 0 119 122" fill="none" xmlns="http://www.w3.org/2000/svg">
<path d="M59.7072 53.0938C53.8072 53.0938 51.6072 56.4938 50.8072 58.4938C49.2072 62.5938 50.5072 68.1938 52.7072 70.2938C54.1072 71.5938 54.5072 72.3937 54.6072 72.6937V72.7938C54.6072 72.8938 54.5072 72.9938 54.5072 72.9938C54.5072 73.0938 54.5072 73.0937 54.5072 73.1937C54.5072 73.2937 54.5072 73.2938 54.5072 73.3938V77.4938C54.5072 77.7938 54.6072 78.0938 54.7072 78.2938C55.2072 79.4938 56.9072 81.4938 59.9072 81.4938C62.9072 81.4938 64.6072 79.4938 65.1072 78.2938C65.2072 77.9938 65.3072 77.7938 65.3072 77.4938V73.3938C65.3072 73.2938 65.3072 73.2937 65.3072 73.1937C65.3072 73.0937 65.3072 73.0938 65.3072 72.9938C65.3072 72.8938 65.3072 72.8938 65.2072 72.7938C65.2072 72.6938 65.2072 72.5938 65.1072 72.5938C65.2072 72.2938 65.6072 71.5938 67.0072 70.3938C69.2072 68.3938 70.6072 62.8938 69.0072 58.6938C68.0072 56.5938 65.8072 53.0938 59.7072 53.0938ZM61.0072 76.9938C60.8072 77.1938 60.4072 77.4938 59.7072 77.4938C59.0072 77.4938 58.6072 77.1938 58.4072 76.9938V75.5938H61.0072V76.9938ZM64.1072 67.2938C62.4072 68.7938 61.4072 70.0938 61.0072 71.3938H58.5072C58.1072 70.2938 57.3072 68.8938 55.5072 67.2938C54.8072 66.5938 53.5072 62.8938 54.6072 59.9938C55.3072 58.0938 57.0072 57.1938 59.8072 57.1938C62.5072 57.1938 64.2072 58.0938 64.9072 60.0938C66.1072 62.9937 64.8072 66.6938 64.1072 67.2938Z" fill="#333333"/>
<path d="M59.807 52.2969C60.907 52.2969 61.907 51.3969 61.907 50.1969V41.3969C61.907 40.2969 61.007 39.2969 59.807 39.2969C58.707 39.2969 57.707 40.1969 57.707 41.3969V50.1969C57.707 51.3969 58.707 52.2969 59.807 52.2969Z" fill="#333333"/>
<path d="M80.5074 60.3984H71.7074C70.6074 60.3984 69.6074 61.2984 69.6074 62.4984C69.6074 63.5984 70.5074 64.5984 71.7074 64.5984H80.5074C81.6074 64.5984 82.6074 63.6984 82.6074 62.4984C82.5074 61.2984 81.6074 60.3984 80.5074 60.3984Z" fill="#333333"/>
<path d="M47.9078 60.3984H39.1078C38.0078 60.3984 37.0078 61.2984 37.0078 62.4984C37.0078 63.5984 37.9078 64.5984 39.1078 64.5984H47.9078C49.0078 64.5984 50.0078 63.6984 50.0078 62.4984C50.0078 61.2984 49.1078 60.3984 47.9078 60.3984Z" fill="#333333"/>
<path d="M49.0086 55.9969C49.4086 56.3969 49.9086 56.5969 50.5086 56.5969C51.0086 56.5969 51.6086 56.3969 52.0086 55.9969C52.8086 55.1969 52.8086 53.8969 52.0086 53.0969L45.8086 46.8969C45.0086 46.0969 43.7086 46.0969 42.9086 46.8969C42.1086 47.6969 42.1086 48.9969 42.9086 49.7969L49.0086 55.9969Z" fill="#333333"/>
<path d="M69.1074 56.5969C69.6074 56.5969 70.2074 56.3969 70.6074 55.9969L76.8074 49.7969C77.6074 48.9969 77.6074 47.6969 76.8074 46.8969C76.0074 46.0969 74.7074 46.0969 73.9074 46.8969L67.7074 53.0969C66.9074 53.8969 66.9074 55.1969 67.7074 55.9969C68.0074 56.3969 68.6074 56.5969 69.1074 56.5969Z" fill="#333333"/>
<path d="M76.4092 33.7C75.7092 26.7 73.0092 22.1 67.9092 19C66.6092 18.2 65.3092 17.6 64.0092 17.2C65.4092 16.3 66.6092 15 67.4092 13.5C68.1092 12.2 68.4092 10.8 68.4092 9.3C68.4092 4.2 64.2092 0 59.1092 0C54.0092 0 49.8092 4.2 49.8092 9.3C49.8092 10.8 50.1092 12.2 50.8092 13.5C51.6092 15.1 52.8092 16.4 54.2092 17.2C52.9092 17.6 51.6092 18.2 50.3092 19C45.2092 22.1 42.5092 26.7 41.8092 33.7C41.7092 34.8 42.5092 35.8 43.6092 36C44.7092 36.1 45.7092 35.3 45.9092 34.2C46.7092 27 49.6092 24.3 52.4092 22.6C56.9092 19.8 61.2092 19.8 65.7092 22.6C68.5092 24.3 71.5092 27 72.2092 34.2C72.3092 35.3 73.2092 36 74.2092 36C74.3092 36 74.3092 36 74.4092 36C75.7092 35.8 76.6092 34.8 76.4092 33.7ZM59.1092 4.1C61.9092 4.1 64.3092 6.4 64.3092 9.2C64.3092 10 64.1092 10.8 63.8092 11.5C62.9092 13.3 61.2092 14.3 59.2092 14.3C57.2092 14.3 55.5092 13.2 54.6092 11.5C54.2092 10.8 54.1092 10 54.1092 9.2C54.0092 6.4 56.3092 4.1 59.1092 4.1Z" fill="#333333"/>
<path d="M118.208 78.9969C117.508 72.0969 114.808 67.3969 109.708 64.2969C108.408 63.4969 107.108 62.8969 105.808 62.4969C107.208 61.5969 108.408 60.2969 109.208 58.7969C109.908 57.4969 110.208 56.0969 110.208 54.5969C110.208 49.4969 106.008 45.2969 100.908 45.2969C95.8081 45.2969 91.608 49.4969 91.608 54.5969C91.608 56.0969 91.908 57.4969 92.608 58.7969C93.408 60.3969 94.6081 61.6969 96.008 62.4969C94.708 62.8969 93.408 63.4969 92.108 64.2969C87.008 67.3969 84.308 71.9969 83.608 78.9969C83.508 80.0969 84.3081 81.0969 85.4081 81.2969C85.5081 81.2969 85.508 81.2969 85.608 81.2969C86.608 81.2969 87.508 80.4969 87.608 79.4969C88.408 72.2969 91.308 69.5969 94.108 67.8969C98.608 65.0969 102.908 65.0969 107.408 67.8969C110.208 69.5969 113.208 72.2969 113.908 79.4969C114.008 80.5969 115.008 81.4969 116.208 81.2969C117.508 81.1969 118.308 80.1969 118.208 78.9969ZM100.908 49.4969C103.708 49.4969 106.108 51.7969 106.108 54.5969C106.108 55.3969 105.908 56.1969 105.608 56.8969C104.708 58.6969 103.008 59.6969 101.008 59.6969C99.0081 59.6969 97.3081 58.5969 96.4081 56.8969C96.0081 56.1969 95.9081 55.3969 95.9081 54.5969C95.8081 51.7969 98.1081 49.4969 100.908 49.4969Z" fill="#333333"/>
<path d="M34.6084 78.9969C33.9084 72.0969 31.2084 67.3969 26.1084 64.2969C24.8084 63.4969 23.5084 62.8969 22.2084 62.4969C23.6084 61.5969 24.8084 60.2969 25.6084 58.7969C26.3084 57.4969 26.6084 56.0969 26.6084 54.5969C26.6084 49.4969 22.4084 45.2969 17.3084 45.2969C12.2084 45.2969 8.00844 49.4969 8.00844 54.5969C8.00844 56.0969 8.30844 57.4969 9.00844 58.7969C9.80844 60.3969 11.0084 61.6969 12.4084 62.4969C11.1084 62.8969 9.80844 63.4969 8.50844 64.2969C3.40844 67.3969 0.708439 72.0969 0.00843918 78.9969C-0.0915608 80.0969 0.708439 81.0969 1.80844 81.2969C1.90844 81.2969 1.90844 81.2969 2.00844 81.2969C3.00844 81.2969 3.90844 80.4969 4.00844 79.4969C4.80844 72.2969 7.70844 69.5969 10.5084 67.8969C15.0084 65.0969 19.3084 65.0969 23.8084 67.8969C26.6084 69.5969 29.6084 72.2969 30.3084 79.4969C30.4084 80.5969 31.4084 81.4969 32.6084 81.2969C33.9084 81.1969 34.7084 80.1969 34.6084 78.9969ZM17.3084 49.4969C20.1084 49.4969 22.5084 51.7969 22.5084 54.5969C22.5084 55.3969 22.3084 56.1969 22.0084 56.8969C21.1084 58.6969 19.4084 59.6969 17.4084 59.6969C15.4084 59.6969 13.7084 58.5969 12.8084 56.8969C12.4084 56.1969 12.3084 55.3969 12.3084 54.5969C12.1084 51.7969 14.4084 49.4969 17.3084 49.4969Z" fill="#333333"/>
<path d="M76.4092 119.098C75.7092 112.198 73.0092 107.498 67.9092 104.398C66.6092 103.598 65.3092 102.998 64.0092 102.598C65.4092 101.698 66.6092 100.398 67.4092 98.8984C68.1092 97.5984 68.4092 96.1984 68.4092 94.6984C68.4092 89.5984 64.2092 85.3984 59.1092 85.3984C54.0092 85.3984 49.8092 89.5984 49.8092 94.6984C49.8092 96.1984 50.1092 97.5984 50.8092 98.8984C51.6092 100.498 52.8092 101.798 54.2092 102.598C52.9092 102.998 51.6092 103.598 50.3092 104.398C45.2092 107.498 42.5092 112.098 41.8092 119.098C41.7092 120.198 42.5092 121.198 43.6092 121.398C44.7092 121.498 45.7092 120.698 45.9092 119.598C46.7092 112.398 49.6092 109.698 52.4092 107.998C56.9092 105.198 61.2092 105.198 65.7092 107.998C68.5092 109.698 71.5092 112.398 72.2092 119.598C72.3092 120.698 73.2092 121.398 74.2092 121.398C74.3092 121.398 74.3092 121.398 74.4092 121.398C75.7092 121.198 76.6092 120.198 76.4092 119.098ZM59.1092 89.4984C61.9092 89.4984 64.3092 91.7984 64.3092 94.5984C64.3092 95.3984 64.1092 96.1984 63.8092 96.8984C62.9092 98.5984 61.2092 99.6984 59.2092 99.6984C57.2092 99.6984 55.5092 98.5984 54.6092 96.8984C54.2092 96.1984 54.1092 95.3984 54.1092 94.5984C54.0092 91.7984 56.3092 89.4984 59.1092 89.4984Z" fill="#333333"/>
</svg>
