<svg width="135" height="96" viewBox="0 0 135 96" fill="none" xmlns="http://www.w3.org/2000/svg">
<g clip-path="url(#clip0_35_15267)">
<path d="M113.6 64.6001H21.6V69.7001H113.6V64.6001Z" fill="#D1D3D4"/>
<path d="M81.8 29.7999H52.8C52.8 29.7999 57.3 19.2999 67.5 20.0999C77.6 20.7999 81.8 29.7999 81.8 29.7999Z" fill="#01AB8D"/>
<path d="M50.8 29.8H55.4C56.5 27.8 58.1 25.2 60.3 23.8C65.2 20.8 69.8 20.8 74.7 23.8C76.9 25.1 78.5 27.7 79.6 29.8H84.2C82.7 26.2 80.4 22.4 76.9 20.3C75.4 19.4 73.9 18.7 72.4 18.3C74 17.4 75.4 16 76.3 14.2C77 12.8 77.3 11.4 77.3 9.8C77.3 4.4 72.9 0 67.5 0C62.1 0 57.7 4.4 57.7 9.8C57.7 11.3 58 12.8 58.7 14.2C59.6 16 60.9 17.3 62.6 18.3C61.1 18.8 59.6 19.4 58.2 20.3C54.6 22.4 52.3 26.1 50.8 29.8ZM62.4 12.3C62 11.5 61.8 10.6 61.8 9.8C61.8 6.7 64.3 4.2 67.4 4.2C70.5 4.2 73 6.7 73 9.8C73 10.7 72.8 11.5 72.4 12.3C71.4 14.2 69.5 15.4 67.3 15.4C65.3 15.4 63.3 14.2 62.4 12.3Z" fill="#333333"/>
<path d="M36.8 31.1C40.5 31.1 43.9 29 45.5 25.7C46.2 24.3 46.5 22.9 46.5 21.3C46.5 15.9 42.1 11.5 36.7 11.5C31.3 11.5 26.9 15.9 26.9 21.3C26.9 22.8 27.2 24.3 27.9 25.7C29.7 29 33.1 31.1 36.8 31.1ZM36.8 15.7C39.9 15.7 42.4 18.2 42.4 21.3C42.4 22.2 42.2 23 41.8 23.8C40.8 25.7 38.9 26.9 36.7 26.9C34.5 26.9 32.6 25.7 31.7 23.8C31.3 23 31.1 22.1 31.1 21.3C31.2 18.2 33.7 15.7 36.8 15.7Z" fill="#333333"/>
<path d="M19.5 43.7001C23.2 43.7001 26.6 41.6001 28.2 38.3001C28.9 36.9001 29.2 35.5001 29.2 33.9001C29.2 28.5001 24.8 24.1001 19.4 24.1001C14 24.1001 9.60001 28.5001 9.60001 33.9001C9.60001 35.4001 9.90001 36.9001 10.6 38.3001C12.4 41.6001 15.7 43.7001 19.5 43.7001ZM19.5 28.2001C22.6 28.2001 25.1 30.7001 25.1 33.8001C25.1 34.7001 24.9 35.5001 24.5 36.3001C23.5 38.2001 21.6 39.4001 19.4 39.4001C17.2 39.4001 15.3 38.2001 14.4 36.3001C14 35.5001 13.8 34.6001 13.8 33.8001C13.8 30.8001 16.3 28.2001 19.5 28.2001Z" fill="#333333"/>
<path d="M133.1 55.4001C132 55.2001 130.9 55.9001 130.7 57.1001L128.5 69.4001C127.2 72.1001 124.5 73.8001 121.5 73.8001H109.7C108.6 73.8001 107.6 74.7001 107.6 75.9001C107.6 77.0001 108.5 78.0001 109.7 78.0001H117.3V89.0001C117.3 90.1001 118.2 91.1001 119.4 91.1001C120.5 91.1001 121.5 90.2001 121.5 89.0001V77.9001C126.2 77.9001 130.4 75.1001 132.3 70.8001C132.4 70.7001 132.4 70.5001 132.4 70.3001L134.6 57.8001C135 56.7001 134.2 55.6001 133.1 55.4001Z" fill="#333333"/>
<path d="M25 73.7999H13.2C10.2 73.7999 7.50001 72.0999 6.20001 69.3999L4.10001 57.0999C3.90001 55.9999 2.80001 55.1999 1.70001 55.3999C0.600008 55.5999 -0.199992 56.6999 8.3521e-06 57.7999L2.20001 70.2999C2.20001 70.4999 2.30001 70.5999 2.30001 70.7999C4.20001 75.0999 8.40001 77.8999 13.1 77.8999V88.9999C13.1 90.0999 14 91.0999 15.2 91.0999C16.4 91.0999 17.3 90.1999 17.3 88.9999V77.8999H25C26.1 77.8999 27.1 76.9999 27.1 75.7999C27.1 74.6999 26.2 73.7999 25 73.7999Z" fill="#333333"/>
<path d="M98 31.1C101.7 31.1 105.1 29 106.7 25.7C107.4 24.3 107.7 22.9 107.7 21.3C107.7 15.9 103.3 11.5 97.9 11.5C92.5 11.5 88.1 15.9 88.1 21.3C88.1 22.8 88.4 24.3 89.1 25.7C90.9 29 94.3 31.1 98 31.1ZM98 15.7C101.1 15.7 103.6 18.2 103.6 21.3C103.6 22.2 103.4 23 103 23.8C102 25.7 100.1 26.9 98 26.9C95.9 26.9 93.9 25.7 93 23.8C92.6 23 92.4 22.1 92.4 21.3C92.4 18.2 94.9 15.7 98 15.7Z" fill="#333333"/>
<path d="M106.6 38.3001C108.3 41.6001 111.6 43.7001 115.3 43.7001C119 43.7001 122.4 41.6001 124 38.3001C124.7 36.9001 125 35.5001 125 33.9001C125 28.5001 120.6 24.1001 115.2 24.1001C109.8 24.1001 105.4 28.5001 105.4 33.9001C105.6 35.4001 105.9 36.9001 106.6 38.3001ZM115.4 28.2001C118.5 28.2001 121 30.7001 121 33.8001C121 34.7001 120.8 35.5001 120.4 36.3001C119.4 38.2001 117.5 39.4001 115.4 39.4001C113.3 39.4001 111.3 38.2001 110.4 36.3001C110 35.5001 109.8 34.6001 109.8 33.8001C109.7 30.8001 112.2 28.2001 115.4 28.2001Z" fill="#333333"/>
<path d="M123.1 69.5C123.3 69.6 123.5 69.6 123.7 69.6C124.6 69.6 125.4 69 125.7 68.1C132.1 47 122.5 43.3 122.1 43.2C121.1 42.8 119.9 43.4 119.5 44.4C119.1 45.4 119.6 46.6 120.6 47.1C120.7 47.1 126.9 50 121.7 66.9C121.4 68.1 122 69.2 123.1 69.5Z" fill="#333333"/>
<path d="M11.1 69.6C11.3 69.6 11.5 69.6 11.7 69.5C12.8 69.2 13.4 68 13.1 66.9C8.00002 50.3 14 47.2 14.2 47.1C15.2 46.7 15.8 45.5 15.4 44.5C15 43.4 13.8 42.9 12.8 43.2C12.4 43.3 2.80002 47 9.20002 68.1C9.40002 69.1 10.2 69.6 11.1 69.6Z" fill="#333333"/>
<path d="M96.8 72.3H113C114.6 72.3 116 71 116 69.3V64C116 63.9 116 63.8 116 63.7V63.6C116 63.4 115.9 63.3 115.8 63.1C115.8 63.1 115.8 63 115.7 63C115.6 62.9 115.5 62.7 115.4 62.6L109.9 56.8L112.5 54.8C113.4 54.1 113.6 52.8 112.9 51.9C112.2 51 110.9 50.8 110 51.5L104.2 55.9H96C95.7 55.6 95.3 55.2 95.3 55C95.3 54.7 95.7 54.3 96 54.1H102.3H103C103.5 54.1 103.9 53.9 104.3 53.6L108.3 50.3C109.2 49.6 109.3 48.3 108.6 47.4C107.9 46.5 106.6 46.4 105.7 47.1L102.8 49.5L97.1 43.5L101.4 40.2C102.3 39.5 102.5 38.2 101.8 37.3C101.1 36.4 99.8 36.2 98.9 36.9L93.1 41.3H84.7C84.4 41.2 84.1 40.9 84.1 40.9C84.2 40.8 84.4 40.7 84.6 40.6H92C92.5 40.6 92.9 40.4 93.3 40.1L97.3 36.8C98.2 36.1 98.3 34.8 97.6 33.9C96.9 33 95.6 32.9 94.7 33.6L91.3 36.4H90.1C90 36.2 89.9 36.1 89.8 36C88.7 34.9 87.3 34.2 85.8 34.1C85.7 34.1 85.5 34.1 85.4 34.1H49.2C49.1 34.1 48.9 34.1 48.8 34.1C47.3 34.2 45.8 34.9 44.8 36C44.7 36.1 44.6 36.3 44.5 36.4H43.3L39.9 33.6C39 32.9 37.7 33 37 33.9C36.3 34.8 36.4 36.1 37.3 36.8L41.3 40.1C41.7 40.4 42.1 40.6 42.6 40.6H50C50.2 40.7 50.4 40.8 50.5 40.9C50.5 41 50.2 41.2 49.9 41.4H41.5L35.7 37C34.8 36.3 33.5 36.5 32.8 37.4C32.1 38.3 32.3 39.6 33.2 40.3L37.6 43.6L31.9 49.6L28.9 47.1C28 46.4 26.7 46.5 26 47.4C25.3 48.3 25.4 49.6 26.3 50.3L30.3 53.6C30.7 53.9 31.1 54.1 31.6 54.1H38.7C39.1 54.4 39.4 54.8 39.4 55C39.4 55.3 39.1 55.6 38.7 55.9H30.5L24.7 51.5C23.8 50.8 22.5 51 21.8 51.9C21.1 52.8 21.3 54.1 22.2 54.8L24.9 56.8L19.4 62.6C19.4 62.6 19.4 62.6 19.4 62.7C19.3 62.8 19.2 62.9 19.1 63.1C19.1 63.1 19.1 63.2 19 63.2C18.9 63.4 18.9 63.5 18.8 63.7V63.8C18.8 63.9 18.8 64 18.8 64.1V69.4C18.8 71 20.1 72.4 21.8 72.4H37.8L30.5 93.4C30.1 94.5 30.7 95.6 31.8 96C32 96.1 32.3 96.1 32.5 96.1C33.4 96.1 34.1 95.6 34.4 94.7L42.2 72.3H92.5L98.9 94.6C99.2 95.5 100 96.1 100.9 96.1C101.1 96.1 101.3 96.1 101.5 96C102.6 95.7 103.2 94.5 102.9 93.5L96.8 72.3ZM28.6 59.6C29 59.9 29.4 60 29.8 60H39.3C39.6 60 40 59.9 40.3 59.8C40.6 59.6 43.5 58 43.5 55C43.5 52 40.6 50.4 40.3 50.2C40 50 39.7 49.9 39.3 49.9H37.2L41.5 45.4H50.3C50.5 45.4 50.7 45.4 50.9 45.3C52.3 44.9 54.6 43.4 54.6 40.8C54.6 39.7 54.2 38.9 53.6 38.2H81.3C80.7 38.9 80.3 39.8 80.3 40.8C80.3 43.4 82.6 44.9 84 45.3C84.2 45.4 84.4 45.4 84.6 45.4H93.4L97.7 49.9H95.5C95.2 49.9 94.8 50 94.5 50.2C94.2 50.4 91.3 52 91.3 55C91.3 58 94.2 59.6 94.5 59.8C94.8 60 95.1 60 95.5 60H105C105.4 60 105.9 59.9 106.2 59.6L106.6 59.3L109.1 62H25.8L28.3 59.4L28.6 59.6ZM23 66.1H111.9V68.2H23V66.1Z" fill="#333333"/>
</g>
<defs>
<clipPath id="clip0_35_15267">
<rect width="134.8" height="96" fill="white"/>
</clipPath>
</defs>
</svg>
