<svg width="120" height="113" viewBox="0 0 120 113" fill="none" xmlns="http://www.w3.org/2000/svg">
<g clip-path="url(#clip0_35_15282)">
<path d="M79.3 50.8999V68.2999C79.3 71.3999 77.2 73.9999 74.3 74.5999C73.9 74.6999 73.4 74.6999 73 74.6999C72.3 74.6999 71.5 74.4999 70.8 74.2999L70.5 105.6C71.2 108.5 69.4 111.5 66.5 112.4C65.9 112.6 65.2 112.7 64.6 112.7C62.6 112.7 60.8 111.9 59.7 110.5C59.2 111.1 58.5 111.7 57.6 112.1C56.2 112.8 54.6 112.9 53.2 112.5C53.2 112.5 53.1 112.5 53 112.4C50.1 111.6 48.4 108.6 49.1 105.6L49 74.3999C48.3 74.6999 47.5 74.7999 46.7 74.7999C46.3 74.7999 45.8 74.7999 45.4 74.6999C42.5 74.0999 40.4 71.3999 40.4 68.3999V50.8999C40.4 45.0999 45.1 40.3999 50.9 40.3999H68.8C74.6 40.3999 79.3 45.0999 79.3 50.8999Z" fill="#01AB8D"/>
<path d="M119.8 50.8999V68.2999C119.8 71.3999 117.7 73.9999 114.8 74.5999C114.4 74.6999 113.9 74.6999 113.5 74.6999C112.8 74.6999 112 74.4999 111.3 74.2999L111 105.6C111.7 108.5 109.9 111.5 107 112.4C106.4 112.6 105.7 112.7 105.1 112.7C103.1 112.7 101.3 111.9 100.2 110.5C99.7 111.1 99 111.7 98.1 112.1C96.7 112.8 95.1 112.9 93.7 112.5C93.7 112.5 93.6 112.5 93.5 112.4C90.6 111.6 88.9 108.6 89.6 105.6L89.5 74.2999C88.8 74.5999 88 74.6999 87.2 74.6999C86.8 74.6999 86.3 74.6999 85.9 74.5999C83 73.9999 80.9 71.2999 80.9 68.2999V50.8999C80.9 45.0999 85.6 40.3999 91.4 40.3999H109.3C115.1 40.3999 119.8 45.0999 119.8 50.8999Z" fill="white"/>
<path d="M38.9 50.8999V68.2999C38.9 71.3999 36.8 73.9999 33.9 74.5999C33.5 74.6999 33 74.6999 32.6 74.6999C31.9 74.6999 31.1 74.4999 30.4 74.2999L30.1 105.6C30.8 108.5 29 111.5 26.1 112.4C25.5 112.6 24.8 112.7 24.2 112.7C22.2 112.7 20.4 111.9 19.3 110.5C18.8 111.1 18.1 111.7 17.2 112.1C15.8 112.8 14.2 112.9 12.7 112.5C12.7 112.5 12.6 112.5 12.5 112.4C9.6 111.6 7.9 108.6 8.6 105.6V74.3999C7.9 74.6999 7.1 74.7999 6.3 74.7999C5.9 74.7999 5.4 74.7999 5 74.6999C2.1 74.0999 0 71.3999 0 68.3999V50.8999C0 45.0999 4.7 40.3999 10.5 40.3999H28.4C34.2 40.3999 38.9 45.0999 38.9 50.8999Z" fill="white"/>
<path d="M19.5 39.1C25.5 39.1 30.4 34.2001 30.4 28.2001C30.4 22.2001 25.5 17.3 19.5 17.3C13.5 17.3 8.59999 22.2001 8.59999 28.2001C8.49999 34.2001 13.5 39.1 19.5 39.1ZM19.5 21.3C23.3 21.3 26.3 24.4001 26.3 28.1C26.3 31.9001 23.2 34.9001 19.5 34.9001C15.7 34.9001 12.7 31.8 12.7 28.1C12.7 24.4001 15.7 21.3 19.5 21.3Z" fill="#333333"/>
<path d="M39.5 21.9C45.5 21.9 50.4 17 50.4 11C50.4 5 45.5 0 39.5 0C33.5 0 28.6 4.9 28.6 10.9C28.6 16.9 33.5 21.9 39.5 21.9ZM39.5 4.1C43.3 4.1 46.3 7.2 46.3 10.9C46.3 14.6 43.2 17.7 39.5 17.7C35.7 17.7 32.7 14.6 32.7 10.9C32.7 7.2 35.7 4.1 39.5 4.1Z" fill="#333333"/>
<path d="M80.1 21.9C86.1 21.9 91 17 91 11C91 5 86.1 0 80.1 0C74.1 0 69.2 4.9 69.2 10.9C69.2 16.9 74 21.9 80.1 21.9ZM80.1 4.1C83.9 4.1 86.9 7.2 86.9 10.9C86.9 14.6 83.8 17.7 80.1 17.7C76.3 17.7 73.3 14.6 73.3 10.9C73.3 7.2 76.3 4.1 80.1 4.1Z" fill="#333333"/>
<path d="M28.4 40.3999H10.5C4.7 40.3999 0 45.0999 0 50.8999V68.2999C0 71.3999 2.1 73.9999 5 74.5999C5.4 74.6999 5.9 74.6999 6.3 74.6999C7.1 74.6999 7.9 74.4999 8.6 74.2999L8.7 105.6C8 108.6 9.8 111.6 12.6 112.4C12.6 112.4 12.7 112.4 12.8 112.5C14.2 112.9 15.8 112.8 17.3 112.1C18.1 111.7 18.8 111.2 19.4 110.5C20.4 111.9 22.2 112.7 24.3 112.7C24.9 112.7 25.6 112.6 26.2 112.4C29.1 111.6 30.9 108.6 30.2 105.6L30.5 74.2999C31.2 74.4999 31.9 74.6999 32.7 74.6999C33.1 74.6999 33.6 74.6999 34 74.5999C36.9 73.9999 39 71.2999 39 68.2999V50.8999C38.9 45.0999 34.2 40.3999 28.4 40.3999ZM34.8 68.2999C34.8 69.3999 34.1 70.3999 33.1 70.5999C32.4 70.7999 31.6 70.4999 31 69.9999C30.7 69.6999 30.5 69.2999 30.4 68.8999C30.4 68.7999 30.5 68.5999 30.5 68.4999V52.6999C30.5 51.5999 29.6 50.5999 28.4 50.5999C27.3 50.5999 26.3 51.4999 26.3 52.6999V68.4999C26.3 68.6999 26.3 68.7999 26.4 68.8999C26.4 68.8999 26.4 68.8999 26.4 68.9999C26.4 69.0999 26.4 69.1999 26.4 69.2999V69.3999L26 105.9C26 106.1 26 106.3 26.1 106.5C26.3 107.4 25.8 108.3 25 108.5C24.1 108.7 22.9 108.6 22.6 108L21.7 76.4999C21.7 75.3999 20.8 74.4999 19.6 74.4999C18.5 74.4999 17.6 75.3999 17.5 76.4999L16.3 107.7C16.2 108 15.9 108.2 15.5 108.4C15 108.6 14.4 108.7 14 108.6C14 108.6 13.9 108.6 13.8 108.5C12.9 108.3 12.4 107.4 12.7 106.5C12.8 106.3 12.8 106.1 12.8 105.9L12.7 74.2999V68.4999V52.6999C12.7 51.5999 11.8 50.5999 10.6 50.5999C9.5 50.5999 8.5 51.4999 8.5 52.6999V68.4999C8.5 68.6999 8.5 68.7999 8.5 68.8999C8.4 69.2999 8.2 69.6999 7.9 69.9999C7.3 70.4999 6.6 70.7999 5.8 70.5999C4.8 70.3999 4.1 69.3999 4.1 68.2999V50.8999C4.1 47.3999 7 44.4999 10.5 44.4999H28.4C31.9 44.4999 34.8 47.3999 34.8 50.8999V68.2999Z" fill="#333333"/>
<path d="M60 39.1C66 39.1 70.9 34.2001 70.9 28.2001C70.9 22.2001 66 17.3 60 17.3C54 17.3 49.1 22.2001 49.1 28.2001C49 34.2001 53.9 39.1 60 39.1ZM60 21.3C63.8 21.3 66.8 24.4001 66.8 28.1C66.8 31.9001 63.7 34.9001 60 34.9001C56.2 34.9001 53.2 31.8 53.2 28.1C53.1 24.4001 56.2 21.3 60 21.3Z" fill="#333333"/>
<path d="M68.8 40.3999H51C45.2 40.3999 40.5 45.0999 40.5 50.8999V68.2999C40.5 71.3999 42.6 73.9999 45.5 74.5999C45.9 74.6999 46.4 74.6999 46.8 74.6999C47.6 74.6999 48.3 74.4999 49.1 74.2999L49.2 105.6C48.5 108.5 50.3 111.5 53.1 112.4C53.1 112.4 53.2 112.4 53.3 112.5C54.7 112.9 56.3 112.8 57.7 112.1C58.5 111.7 59.2 111.2 59.8 110.5C60.9 111.9 62.6 112.7 64.7 112.7C65.4 112.7 66 112.6 66.6 112.4C69.5 111.5 71.3 108.6 70.6 105.6L70.9 74.2999C71.6 74.4999 72.3 74.6999 73.1 74.6999C73.5 74.6999 74 74.6999 74.4 74.5999C77.3 73.9999 79.4 71.2999 79.4 68.2999V50.8999C79.3 45.0999 74.6 40.3999 68.8 40.3999ZM75.2 68.2999C75.2 69.3999 74.5 70.3999 73.5 70.5999C72.7 70.7999 72 70.4999 71.4 69.9999C71.1 69.6999 70.9 69.2999 70.8 68.8999C70.8 68.6999 70.9 68.5999 70.9 68.3999V52.5999C70.9 51.4999 70 50.4999 68.8 50.4999C67.7 50.4999 66.7 51.3999 66.7 52.5999V68.3999C66.7 68.5999 66.7 68.6999 66.8 68.8999C66.8 68.8999 66.8 68.8999 66.8 68.9999C66.8 69.0999 66.8 69.1999 66.8 69.2999V69.3999L66.5 105.9C66.5 106.1 66.5 106.3 66.6 106.5C66.8 107.4 66.3 108.3 65.5 108.5C64.6 108.7 63.4 108.6 63 108L62.1 76.4999C62.1 75.3999 61.2 74.4999 60.1 74.4999C59 74.4999 58.1 75.3999 58 76.4999L56.8 107.7C56.7 108 56.4 108.2 56 108.4C55.5 108.6 54.9 108.7 54.5 108.6C54.5 108.6 54.4 108.6 54.3 108.5C53.4 108.3 52.9 107.4 53.2 106.5C53.2 106.3 53.3 106.1 53.3 105.9L53.2 74.2999V52.6999C53.2 51.5999 52.3 50.5999 51.1 50.5999C50 50.5999 49 51.4999 49 52.6999V68.4999C49 68.6999 49 68.7999 48.9 68.9999C48.8 69.3999 48.6 69.7999 48.3 70.0999C47.7 70.5999 47 70.8999 46.2 70.6999C45.2 70.4999 44.5 69.4999 44.5 68.3999V50.8999C44.5 47.3999 47.4 44.4999 50.9 44.4999H68.8C72.3 44.4999 75.2 47.3999 75.2 50.8999V68.2999Z" fill="#333333"/>
<path d="M100.4 39.1C106.4 39.1 111.3 34.2001 111.3 28.2001C111.3 22.2001 106.4 17.3 100.4 17.3C94.4 17.3 89.5 22.2001 89.5 28.2001C89.5 34.2001 94.4 39.1 100.4 39.1ZM100.4 21.3C104.2 21.3 107.2 24.4001 107.2 28.1C107.2 31.9001 104.1 34.9001 100.4 34.9001C96.6 34.9001 93.6 31.8 93.6 28.1C93.6 24.4001 96.7 21.3 100.4 21.3Z" fill="#333333"/>
<path d="M109.3 40.3999H91.4C85.6 40.3999 80.9 45.0999 80.9 50.8999V68.2999C80.9 71.3999 83 73.9999 85.9 74.5999C86.3 74.6999 86.8 74.6999 87.2 74.6999C88 74.6999 88.8 74.4999 89.5 74.2999L89.6 105.6C88.9 108.6 90.7 111.6 93.5 112.4C93.5 112.4 93.6 112.4 93.7 112.5C95.1 112.9 96.7 112.8 98.2 112.1C99 111.7 99.7 111.2 100.3 110.5C101.3 111.9 103.1 112.7 105.2 112.7C105.8 112.7 106.5 112.6 107.1 112.4C110 111.6 111.8 108.6 111.1 105.6L111.4 74.2999C112.1 74.4999 112.8 74.6999 113.6 74.6999C114 74.6999 114.5 74.6999 114.9 74.5999C117.8 73.9999 119.9 71.2999 119.9 68.2999V50.8999C119.8 45.0999 115.1 40.3999 109.3 40.3999ZM115.7 68.2999C115.7 69.3999 115 70.3999 114 70.5999C113.3 70.7999 112.5 70.4999 111.9 69.9999C111.6 69.6999 111.4 69.2999 111.3 68.8999C111.3 68.7999 111.4 68.5999 111.4 68.4999V52.6999C111.4 51.5999 110.5 50.5999 109.3 50.5999C108.2 50.5999 107.2 51.4999 107.2 52.6999V68.4999C107.2 68.6999 107.2 68.7999 107.3 68.8999C107.3 68.8999 107.3 68.8999 107.3 68.9999C107.3 69.0999 107.3 69.1999 107.3 69.1999V69.2999L107 105.8C107 106 107 106.2 107.1 106.4C107.3 107.3 106.8 108.2 106 108.4C105.1 108.6 103.9 108.5 103.6 107.9L102.7 76.3999C102.7 75.2999 101.8 74.3999 100.7 74.3999C99.6 74.3999 98.7 75.2999 98.6 76.3999L97.4 107.6C97.3 107.9 97 108.1 96.6 108.3C96.1 108.5 95.5 108.6 95.1 108.5C95.1 108.5 95 108.5 94.9 108.4C94 108.2 93.5 107.3 93.8 106.4C93.9 106.2 93.9 106 93.9 105.8L93.8 74.1999V68.3999V52.5999C93.8 51.4999 92.9 50.4999 91.7 50.4999C90.6 50.4999 89.6 51.3999 89.6 52.5999V68.3999C89.6 68.5999 89.6 68.6999 89.6 68.7999C89.5 69.1999 89.3 69.5999 89 69.8999C88.4 70.3999 87.7 70.6999 86.9 70.4999C85.9 70.2999 85.2 69.2999 85.2 68.1999V50.8999C85.2 47.3999 88.1 44.4999 91.6 44.4999H109.5C113 44.4999 115.9 47.3999 115.9 50.8999V68.2999H115.7Z" fill="#333333"/>
<path d="M39.5 33.2999C39.7 33.2999 39.9 33.2999 40.1 33.1999C40.2 33.1999 40.2 33.1999 40.3 33.0999C40.5 32.9999 40.6 32.9999 40.8 32.8999C40.8 32.8999 40.8 32.8999 40.9 32.8999L41 32.7999C41.1 32.6999 41.2 32.5999 41.2 32.5999L45.7 26.7999C46.4 25.8999 46.2 24.5999 45.3 23.8999C44.4 23.1999 43.1 23.3999 42.4 24.2999L39.6 27.9999L36.8 24.2999C36.1 23.3999 34.8 23.1999 33.9 23.8999C33 24.5999 32.8 25.8999 33.5 26.7999L38 32.5999C38.1 32.6999 38.2 32.7999 38.2 32.7999L38.3 32.8999C38.3 32.8999 38.3 32.8999 38.4 32.8999C38.5 32.9999 38.7 33.0999 38.9 33.0999C39 33.0999 39 33.0999 39.1 33.1999C39.1 33.1999 39.3 33.2999 39.5 33.2999Z" fill="#333333"/>
<path d="M80.1 33.2999C80.3 33.2999 80.5 33.2999 80.7 33.1999C80.8 33.1999 80.8 33.1999 80.9 33.0999C81.1 32.9999 81.2 32.9999 81.4 32.8999C81.4 32.8999 81.4 32.8999 81.5 32.8999L81.6 32.7999C81.7 32.6999 81.8 32.5999 81.8 32.5999L86.3 26.7999C87 25.8999 86.8 24.5999 85.9 23.8999C85 23.1999 83.7 23.3999 83 24.2999L80.2 27.9999L77.4 24.2999C76.7 23.3999 75.4 23.1999 74.5 23.8999C73.6 24.5999 73.4 25.8999 74.1 26.7999L78.6 32.5999C78.7 32.6999 78.8 32.7999 78.8 32.7999L78.9 32.8999C78.9 32.8999 78.9 32.8999 79 32.8999C79.1 32.9999 79.3 33.0999 79.5 33.0999C79.6 33.0999 79.6 33.0999 79.7 33.1999C79.7 33.1999 79.9 33.2999 80.1 33.2999Z" fill="#333333"/>
</g>
<defs>
<clipPath id="clip0_35_15282">
<rect width="119.8" height="112.7" fill="white"/>
</clipPath>
</defs>
</svg>
