<svg width="126" height="114" viewBox="0 0 126 114" fill="none" xmlns="http://www.w3.org/2000/svg">
<g clip-path="url(#clip0_35_15298)">
<path d="M91 24.1C90.8 21.6 88.7 19.6 86.1 19.6H83.7C82.5 19.6 83.8 18.7 84.1 18.3C86 16.4 87.5 14 85.8 11.3C84.9 9.80001 83.3 8.60001 82.1 7.40001C80.6 5.90001 79.3 4.40001 77 4.50001C74.6 4.60001 73.3 6.30001 71.7 7.90001C71.3 8.20001 71.4 6.00001 71.4 5.90001C71.4 4.70001 71.3 3.60001 70.7 2.50001C69.5 0.300011 67.3 1.08518e-05 65.1 1.08518e-05C63.4 1.08518e-05 61.8 -0.0999891 60.1 1.08518e-05C57.1 1.08518e-05 55.2 2.50001 55.2 5.30001C55.2 5.60001 55.4 7.50001 55.2 7.70001C54.5 8.00001 53.6 6.60001 53.2 6.10001C51.2 4.10001 48.1 3.70001 46 5.80001C44.8 7.00001 43.5 8.20001 42.3 9.50001C40.6 11.2 39.4 13.2 40.4 15.6C40.8 16.6 41.5 17.3 42.3 18C42.5 18.2 44.1 19.5 43.1 19.5C40.8 19.5 38.4 19.3 36.8 21.3C35.5 23 35.7 25.1 35.7 27C35.7 28.7 35.4 30.9 36 32.6C37.1 35.3 39.6 35.7 42.2 35.7C42.8 35.7 43.9 35.6 43.2 36.3C42.6 36.9 41.8 37.6 41.3 38.3C39.4 40.5 40 43.3 41.9 45.2C43.2 46.5 44.5 47.9 45.9 49.2C47.9 51.2 51 51.4 53.1 49.4C53.7 48.8 54.3 48.2 54.9 47.6C55.4 47.1 55.3 49.4 55.3 49.6C55.3 52.3 56.5 54.8 59.4 55.3C61.1 55.6 62.9 55.4 64.7 55.4C66.8 55.4 68.9 55.4 70.4 53.6C71.2 52.6 71.5 51.5 71.5 50.3C71.5 49.8 71.2 48 71.5 47.7C72.1 47.5 72.9 48.7 73.3 49.1C74.3 50.1 75.4 50.9 76.8 51C79.3 51.2 80.8 49.5 82.4 47.9C83.6 46.7 85.4 45.4 86.1 43.8C87.5 41 85.9 38.9 84 37C83.6 36.6 82.7 35.9 83.7 35.9C84.6 35.9 85.6 36 86.5 35.9C88.9 35.7 90.8 33.8 91 31.4C91.1 30.2 91 29 91 27.8C91 26.5 91.1 25.3 91 24.1ZM72.2 27.7C72.2 32.6 68.1 36.6 63.3 36.6C58.5 36.6 54.4 32.5 54.4 27.7C54.4 22.9 58.5 18.8 63.3 18.8C68.1 18.8 72.2 22.8 72.2 27.7Z" fill="#01AB8D"/>
<path d="M71.5 17.5001C69.2 15.7001 66.3 14.6001 63.3 14.6001C57.1 14.6001 51.5 19.2001 50.5 25.4001C49.4 31.6001 53 37.8001 58.9 40.0001C64.8 42.1001 71.6 39.6001 74.7 34.1001C77.8 28.6001 76.4 21.5001 71.5 17.5001ZM63.3 36.6001C58.4 36.6001 54.4 32.5001 54.4 27.7001C54.4 22.9001 58.5 18.8001 63.3 18.8001C68.1 18.8001 72.2 22.9001 72.2 27.7001C72.2 32.5001 68.2 36.6001 63.3 36.6001Z" fill="#333333"/>
<path d="M91 24.1C90.8 21.6 88.7 19.6 86.1 19.6H83.7C82.5 19.6 83.8 18.7 84.1 18.3C86 16.4 87.5 14 85.8 11.3C84.9 9.80001 83.3 8.60001 82.1 7.40001C80.6 5.90001 79.3 4.40001 77 4.50001C74.6 4.60001 73.3 6.30001 71.7 7.90001C71.3 8.20001 71.4 6.00001 71.4 5.90001C71.4 4.70001 71.3 3.60001 70.7 2.50001C69.5 0.300011 67.3 1.08518e-05 65.1 1.08518e-05C63.4 1.08518e-05 61.8 -0.0999891 60.1 1.08518e-05C57.1 1.08518e-05 55.2 2.50001 55.2 5.30001C55.2 5.60001 55.4 7.50001 55.2 7.70001C54.5 8.00001 53.6 6.60001 53.2 6.10001C51.2 4.10001 48.1 3.70001 46 5.80001C44.8 7.00001 43.5 8.20001 42.3 9.50001C40.6 11.2 39.4 13.2 40.4 15.6C40.8 16.6 41.5 17.3 42.3 18C42.5 18.2 44.1 19.5 43.1 19.5C40.8 19.5 38.4 19.3 36.8 21.3C35.5 23 35.7 25.1 35.7 27C35.7 28.7 35.4 30.9 36 32.6C37.1 35.3 39.6 35.7 42.2 35.7C42.8 35.7 43.9 35.6 43.2 36.3C42.6 36.9 41.8 37.6 41.3 38.3C39.4 40.5 40 43.3 41.9 45.2C43.2 46.5 44.5 47.9 45.9 49.2C47.9 51.2 51 51.4 53.1 49.4C53.7 48.8 54.3 48.2 54.9 47.6C55.4 47.1 55.3 49.4 55.3 49.6C55.3 52.3 56.5 54.8 59.4 55.3C61.1 55.6 62.9 55.4 64.7 55.4C66.8 55.4 68.9 55.4 70.4 53.6C71.2 52.6 71.5 51.5 71.5 50.3C71.5 49.8 71.2 48 71.5 47.7C72.1 47.5 72.9 48.7 73.3 49.1C74.3 50.1 75.4 50.9 76.8 51C79.3 51.2 80.8 49.5 82.4 47.9C83.6 46.7 85.4 45.4 86.1 43.8C87.5 41 85.9 38.9 84 37C83.6 36.6 82.7 35.9 83.7 35.9C84.6 35.9 85.6 36 86.5 35.9C88.9 35.7 90.8 33.8 91 31.4C91.1 30.2 91 29 91 27.8C91 26.5 91.1 25.3 91 24.1ZM86.9 30.9C86.9 32.2 82.9 31.7 82 31.7C79.9 31.7 79.3 34.2 78.7 35.8C78 37.6 80.3 39.1 81.4 40.2C81.8 40.6 82.9 41.4 82.2 42.1C81.9 42.6 81.2 43.1 80.8 43.4C80.1 44.1 79.4 44.9 78.6 45.6C78.2 46 77.6 46.8 77.1 46.8C76.5 46.8 75.8 45.8 75.4 45.4L73.5 43.5C73 43 72 42.8 71.2 43.2C70.1 43.7 68.4 44 67.7 45C66.8 46.2 67.3 48.5 67.3 49.8C67.3 50.4 67.4 51.2 66.5 51.2H64.2C63.4 51.2 59.4 51.8 59.4 50.4C59.1 49.1 59.5 47.4 59.4 46.1C59.4 45.3 58.8 44.5 58.1 44.2C57 43.8 55.4 42.7 54.2 43C52.7 43.3 51.3 45.4 50.4 46.4C49.2 47.6 47.8 45.3 47 44.5C46.4 43.9 43.6 41.9 44.6 40.9C45.6 39.9 47.4 38.7 48 37.3C48.5 36.1 47.6 35 47.2 33.9C46.8 32.9 46.6 32 45.4 31.7C44 31.3 42.2 31.6 40.7 31.6C39.3 31.6 39.9 28.2 39.9 27.4C39.9 26.3 39.3 23.7 41 23.7C42.4 23.7 44.3 24.1 45.6 23.6C46.7 23.2 46.9 22 47.3 21C47.8 19.8 48.6 18.5 47.5 17.4C46.6 16.4 45.1 15.5 44.5 14.4C43.6 13.5 46.8 11 47.3 10.5L48.9 8.90001C49.5 8.30001 50.1 8.80001 50.5 9.30001C51.5 10.3 52.7 12.1 54.2 12.4C55.4 12.6 57 11.5 58.1 11.1C58.9 10.8 59.4 10 59.4 9.20001C59.5 8.50001 59.4 7.80001 59.4 7.10001C59.4 6.40001 59.2 5.30001 59.5 4.70001C59.8 4.10001 60.7 4.20001 61.2 4.20001H66.5C67.5 4.20001 67.3 5.20001 67.3 5.80001C67.3 7.10001 66.8 9.50001 67.8 10.6C68.6 11.5 70.2 11.7 71.2 12.2C72.1 12.6 73.1 12.4 73.7 11.7C74.3 11.1 74.9 10.5 75.5 9.90001C75.9 9.50001 76.6 8.50001 77.2 8.50001C77.7 8.50001 78.1 9.10001 78.4 9.40001C79.1 10.1 79.8 10.8 80.5 11.5C81.3 12.3 83.1 13.4 82 14.5C81 15.5 79.3 16.6 78.8 17.9C78.3 19 79 19.9 79.4 20.9C79.8 21.9 80 23.1 81.1 23.5C82.4 24 84.1 23.6 85.4 23.6C86 23.6 86.8 23.5 86.8 24.4V30.9H86.9Z" fill="#333333"/>
<path d="M16.7 49.9001C11 49.9001 6.40002 45.3 6.40002 39.6C6.40002 33.9 11 29.3 16.7 29.3C22.4 29.3 27 33.9 27 39.6C27 45.3 22.4 49.9001 16.7 49.9001ZM16.7 33.3C13.3 33.3 10.5 36.1 10.5 39.5C10.5 42.9 13.3 45.7001 16.7 45.7001C20.1 45.7001 22.9 42.9 22.9 39.5C22.9 36.1 20.1 33.3 16.7 33.3Z" fill="#333333"/>
<path d="M35.8 113.2C32.6 113.2 29.9 110.8 29.4 107.6L27.6 94.4H14.5C10.9 94.5 8.00002 91.5999 8.00002 88L7.90002 86.4V59.4C7.90002 54.9 11.6 51.2 16.1 51.2H16.3C16.9 51.2 22.3 51.4999 23.9 55.2999L31.2 62.5999H43.9C46.9 62.5999 49.4 65.0999 49.4 68.0999C49.4 71.1999 46.9 73.6999 43.9 73.6999H27.4C26.9 73.6999 26.3 73.4999 25.9 73.0999L24.3 71.5V81.5999H35.3C37.4 81.5999 39.2 83.2 39.5 85.3L42.3 106C42.5 107.7 42.1 109.4 41 110.7C40 112.1 38.5 112.9 36.8 113.2C36.4 113.2 36.1 113.2 35.8 113.2ZM16.1 55.2999C13.8 55.2999 12 57.1 12 59.4V86.3L12.1 87.8C12.1 87.8 12.1 87.9 12.1 88C12.1 89.2999 13.2 90.4 14.5 90.4H29.5C30.5 90.4 31.4 91.1999 31.5 92.1999L33.5 107.1C33.7 108.3 34.8 109.2 36.1 109.1C36.8 109 37.3 108.7 37.7 108.2C38.1 107.7 38.2 107.1 38.1 106.5L35.3 85.8L35.2 85.6999H22.2C21.1 85.6999 20.1 84.7999 20.1 83.5999V66.5C20.1 65.7 20.6 64.8999 21.4 64.5999C22.2 64.2999 23.1 64.5 23.6 65L28.1 69.5H43.7C44.5 69.5 45.1 68.8999 45.1 68.0999C45.1 67.2999 44.5 66.5999 43.7 66.5999H30.3C29.8 66.5999 29.2 66.4 28.8 66L20.6 57.7999C20.3 57.4999 20.2 57.2 20.1 56.9C19.8 56 17.6 55.3999 16.1 55.2999Z" fill="#333333"/>
<path d="M108.5 49.9001C102.8 49.9001 98.2 45.3 98.2 39.6C98.2 33.9 102.8 29.3 108.5 29.3C114.2 29.3 118.8 33.9 118.8 39.6C118.9 45.3 114.2 49.9001 108.5 49.9001ZM108.5 33.3C105.1 33.3 102.3 36.1 102.3 39.5C102.3 42.9 105.1 45.7001 108.5 45.7001C111.9 45.7001 114.7 42.9 114.7 39.5C114.8 36.1 112 33.3 108.5 33.3Z" fill="#333333"/>
<path d="M89.4 113.2C89.1 113.2 88.8 113.2 88.5 113.1C84.9 112.6 82.4 109.4 82.9 105.9L85.7 85.1999C86 83.0999 87.8 81.5 89.9 81.5H100.9V71.3L99.3 72.9C98.9 73.3 98.4 73.5 97.8 73.5H81.4C78.4 73.5 75.9 71 75.9 68C75.9 64.9 78.4 62.4 81.4 62.4H94.1L101.4 55.0999C103 51.3999 109 51.2 109 51.2C113.6 51.2 117.3 54.9 117.3 59.4V86.3L117.2 88.0999C117.2 91.5999 114.3 94.5 110.7 94.5H97.5L95.7 107.7C95.3 110.8 92.6 113.2 89.4 113.2ZM89.9 85.6999C89.8 85.6999 89.8 85.8 89.8 85.8L87 106.4C86.8 107.7 87.7 108.8 89 109C89.2 109 89.3 109 89.4 109C90.5 109 91.5 108.1 91.7 107L93.7 92.0999C93.8 91.0999 94.7 90.3 95.7 90.3H110.7C112 90.3 113.1 89.2 113.1 87.9C113.1 87.9 113.1 87.7999 113.1 87.6999L113.2 86V59.2999C113.2 57.0999 111.4 55.2 109.2 55.2C107.7 55.2 105.4 55.9 105.2 56.7C105.1 57 104.9 57.3999 104.7 57.5999L96.5 65.8C96.1 66.2 95.6 66.4 95 66.4H81.4C80.6 66.4 80 67 80 67.8C80 68.6 80.6 69.3 81.4 69.3H97L101.5 64.8C102.1 64.2 103 64 103.7 64.4C104.5 64.7 105 65.5 105 66.3V83.5999C105 84.6999 104.1 85.6999 102.9 85.6999H89.9Z" fill="#333333"/>
<path d="M83.7 76.3H42.9C41.8 76.3 40.8 77.2 40.8 78.4C40.8 79.5 41.7 80.5 42.9 80.5H61.3V111.2C61.3 112.3 62.2 113.3 63.4 113.3C64.6 113.3 65.5 112.4 65.5 111.2V80.4H83.9C85 80.4 86 79.5 86 78.3C85.8 77.2 84.9 76.3 83.7 76.3Z" fill="#333333"/>
<path d="M123.6 77.5C122.5 77.3 121.4 78 121.2 79.2L119 91.4C117.7 94.1 115 95.8 112 95.8H100.2C99.1 95.8 98.1 96.7 98.1 97.9C98.1 99 99 100 100.2 100H107.8V111.2C107.8 112.3 108.7 113.3 109.9 113.3C111 113.3 112 112.4 112 111.2V100C116.7 100 120.9 97.2 122.8 92.9C122.9 92.8 122.9 92.6 122.9 92.4L125.1 79.9C125.4 78.8 124.7 77.7 123.6 77.5Z" fill="#333333"/>
<path d="M25 95.8H13.2C10.2 95.8 7.50001 94.1 6.20001 91.4L4.10001 77.7C3.90001 76.6 2.90001 75.8 1.70001 76C0.600008 76.2 -0.199992 77.2 8.3521e-06 78.4L2.20001 92.5C2.20001 92.7 2.30001 92.8 2.30001 93C4.20001 97.3 8.40001 100.1 13.1 100.1V111.3C13.1 112.4 14 113.4 15.2 113.4C16.3 113.4 17.3 112.5 17.3 111.3V100H25C26.1 100 27.1 99.1 27.1 97.9C27.1 96.8 26.2 95.8 25 95.8Z" fill="#333333"/>
</g>
<defs>
<clipPath id="clip0_35_15298">
<rect width="125.3" height="113.2" fill="white"/>
</clipPath>
</defs>
</svg>
