<svg width="20" height="17" viewBox="0 0 20 17" fill="none" xmlns="http://www.w3.org/2000/svg">
<path d="M16.5999 0.800781C17.3956 0.800781 18.1586 1.11685 18.7212 1.67946C19.2838 2.24207 19.5999 3.00513 19.5999 3.80078V13.4008C19.5999 14.1964 19.2838 14.9595 18.7212 15.5221C18.1586 16.0847 17.3956 16.4008 16.5999 16.4008H3.3999C2.60425 16.4008 1.84119 16.0847 1.27858 15.5221C0.715973 14.9595 0.399902 14.1964 0.399902 13.4008V3.80078C0.399902 3.00513 0.715973 2.24207 1.27858 1.67946C1.84119 1.11685 2.60425 0.800781 3.3999 0.800781H16.5999ZM18.3999 5.55398L10.3047 10.318C10.2282 10.3629 10.1426 10.3903 10.0542 10.3982C9.96583 10.4061 9.87678 10.3943 9.7935 10.3636L9.6951 10.318L1.5999 5.55638V13.4008C1.5999 13.8782 1.78954 14.336 2.12711 14.6736C2.46468 15.0111 2.92251 15.2008 3.3999 15.2008H16.5999C17.0773 15.2008 17.5351 15.0111 17.8727 14.6736C18.2103 14.336 18.3999 13.8782 18.3999 13.4008V5.55398ZM16.5999 2.00078H3.3999C2.92251 2.00078 2.46468 2.19042 2.12711 2.52799C1.78954 2.86555 1.5999 3.32339 1.5999 3.80078V4.16318L9.9999 9.10478L18.3999 4.16078V3.80078C18.3999 3.32339 18.2103 2.86555 17.8727 2.52799C17.5351 2.19042 17.0773 2.00078 16.5999 2.00078V2.00078Z" fill="white"/>
</svg>
