<svg width="20" height="20" viewBox="0 0 20 20" fill="none" xmlns="http://www.w3.org/2000/svg">
<path d="M4.5676 1.66037C4.49381 1.56545 4.40066 1.48731 4.29435 1.43115C4.18804 1.37499 4.071 1.34209 3.951 1.33465C3.831 1.3272 3.71078 1.34537 3.59835 1.38795C3.48591 1.43053 3.38381 1.49655 3.29885 1.58162L2.00635 2.87537C1.4026 3.48037 1.1801 4.33662 1.44385 5.08787C2.53852 8.19735 4.31922 11.0205 6.65385 13.3479C8.98126 15.6825 11.8044 17.4632 14.9139 18.5579C15.6651 18.8216 16.5214 18.5991 17.1264 17.9954L18.4188 16.7029C18.5039 16.6179 18.5699 16.5158 18.6125 16.4034C18.6551 16.2909 18.6733 16.1707 18.6658 16.0507C18.6584 15.9307 18.6255 15.8137 18.5693 15.7074C18.5132 15.6011 18.435 15.5079 18.3401 15.4341L15.4564 13.1916C15.3549 13.113 15.237 13.0584 15.1114 13.032C14.9858 13.0055 14.8559 13.008 14.7313 13.0391L11.9939 13.7229C11.6285 13.8142 11.2456 13.8094 10.8827 13.7088C10.5197 13.6083 10.1889 13.4154 9.9226 13.1491L6.8526 10.0779C6.58606 9.81167 6.39301 9.48097 6.29224 9.11799C6.19148 8.75502 6.18643 8.37213 6.2776 8.00662L6.9626 5.26912C6.99373 5.14461 6.99619 5.01466 6.96977 4.88907C6.94335 4.76348 6.88876 4.64553 6.8101 4.54412L4.5676 1.66037ZM2.3551 0.639119C2.57384 0.420306 2.83664 0.250532 3.12602 0.14107C3.41541 0.0316089 3.72478 -0.0150353 4.03358 0.00423504C4.34238 0.0235054 4.64354 0.108249 4.91708 0.25284C5.19061 0.39743 5.43026 0.598558 5.6201 0.842869L7.8626 3.72537C8.27385 4.25412 8.41885 4.94287 8.25635 5.59287L7.5726 8.33037C7.53725 8.47216 7.53916 8.62068 7.57814 8.76151C7.61713 8.90234 7.69187 9.0307 7.7951 9.13412L10.8664 12.2054C10.9699 12.3088 11.0985 12.3837 11.2395 12.4227C11.3806 12.4617 11.5294 12.4635 11.6714 12.4279L14.4076 11.7441C14.7284 11.6639 15.0632 11.6577 15.3867 11.7259C15.7102 11.7941 16.014 11.935 16.2751 12.1379L19.1576 14.3804C20.1939 15.1866 20.2889 16.7179 19.3614 17.6441L18.0689 18.9366C17.1439 19.8616 15.7614 20.2679 14.4726 19.8141C11.1741 18.6535 8.17919 16.7652 5.7101 14.2891C3.23421 11.8204 1.34586 8.82594 0.1851 5.52787C-0.2674 4.24037 0.13885 2.85662 1.06385 1.93162L2.35635 0.639119H2.3551Z" fill="white"/>
</svg>
