<svg width="24" height="24" viewBox="0 0 24 24" fill="none" xmlns="http://www.w3.org/2000/svg">
<path d="M0 0V24H24V0H0ZM7.88683 18.6202H4.77911V8.67029H7.86072V18.6202H7.88683ZM6.31991 7.3123C5.32753 7.3123 4.51795 6.50272 4.51795 5.51034C4.51795 4.51796 5.32753 3.70837 6.31991 3.70837C7.3123 3.70837 8.12187 4.51796 8.12187 5.51034C8.12187 6.52884 7.3123 7.3123 6.31991 7.3123ZM19.4559 18.6202H16.3743V13.7889C16.3743 12.6398 16.3482 11.1512 14.7552 11.1512C13.136 11.1512 12.901 12.4048 12.901 13.7106V18.6202H9.81937V8.67029H12.7704V10.0283H12.8226C13.2405 9.24483 14.2329 8.43525 15.7476 8.43525C18.8814 8.43525 19.4559 10.4984 19.4559 13.1621V18.6202V18.6202Z" fill="#2B2B2B"/>
</svg>
